<?xml version="1.0" encoding="UTF-8"?>
<svg width="127.63mm" height="121.42mm" version="1.1" viewBox="0 0 127.63 121.42" xmlns="http://www.w3.org/2000/svg">
 <g transform="translate(-.00057446)">
  <g stroke="#161718">
   <path d="m61.632 121.37c-4.2046 1.2658-22.647-26.569-18.878-25.301 0.7672 0.258-30.568-0.67692-32.077-6.4618-1.4598-5.598 10.518-33.266 12.309-29.123 1.5711 3.6342-14.183-27.284-10.484-31.22 3.1656-3.3686 27.122-6.4604 31.187-3.8213 2.1297 1.3828 15.733-28.143 21.593-24.758 11.105 6.4154 21.749 27.197 18.878 25.301-3.4352-2.2678 27.271 0.31499 32.077 6.4618 4.827 6.1741-12.35 30.456-12.309 29.123 0.0536-1.7171 14.65 23.871 10.484 31.22-3.6953 6.5186-34.513 6.6628-31.187 3.8213 1.8166-1.5521-14.68 22.677-21.593 24.758z" fill="#fff" stroke-width=".013531" style="mix-blend-mode:normal"/>
   <path d="m61.712 119.21c-4.0545 1.2206-21.839-25.62-18.204-24.398 0.73981 0.24879-29.477-0.65275-30.932-6.2312-1.4077-5.3982 10.142-32.078 11.869-28.083 1.515 3.5044-13.677-26.31-10.11-30.105 3.0526-3.2483 26.154-6.2297 30.073-3.6849 2.0536 1.3335 15.171-27.139 20.822-23.874 10.708 6.1864 20.973 26.226 18.204 24.398-3.3125-2.1868 26.298 0.30375 30.932 6.2312 4.6547 5.9537-11.91 29.369-11.869 28.083 0.0517-1.6558 14.127 23.019 10.11 30.105-3.5634 6.2859-33.281 6.425-30.073 3.6849 1.7518-1.4967-14.156 21.867-20.822 23.874z" fill="#87abd2" stroke-width=".013048" style="mix-blend-mode:normal"/>
   <path d="m62.212 105.12c-3.0976 0.92558-16.685-19.428-13.908-18.501 0.56521 0.18865-22.52-0.49497-23.632-4.725-1.0755-4.0933 7.7485-24.324 9.0682-21.295 1.1575 2.6573-10.449-19.95-7.724-22.828 2.3322-2.4631 19.982-4.7239 22.976-2.7942 1.569 1.0111 11.591-20.579 15.908-18.103 8.181 4.691 16.023 19.887 13.908 18.501-2.5308-1.6582 20.091 0.23033 23.632 4.725 3.5561 4.5146-9.0988 22.27-9.0682 21.295 0.0395-1.2556 10.793 17.455 7.724 22.828-2.7224 4.7665-25.426 4.872-22.976 2.7942 1.3384-1.1349-10.815 16.581-15.908 18.103z" fill="#457ba5" stroke-width=".0099315" style="mix-blend-mode:normal"/>
   <g transform="matrix(.97792 .58296 -.58644 .97212 211.11 199.23)" fill="#fff" stroke-width=".016863">
    <path d="m-167.31-38.476-13.666-0.0631-9.5372-28.314c-2.3526-7.7087 11.786-26.456 15.046-30.702 2.4257 3.6736 17.716 17.381 17.048 30.586z"/>
    <path d="m-167.81-38.175-13.666 0.0631-9.5372 28.314c-2.3526 7.7087 11.786 26.456 15.046 30.702 2.4257-3.6736 17.716-17.381 17.048-30.586z"/>
    <path d="m-171.8-44.353-7.1386 11.653 19.056 23.011c5.3166 6.0575 28.698 3.9022 34.024 3.3649-1.847-3.996-5.4547-24.212-17.035-30.594z"/>
    <path d="m-180.05-44.856 6.0156 12.271 29.639-3.763c7.9631-1.2441 18.669-22.142 21.069-26.927-4.3637-0.5811-23.366-8.3648-34.959-2.0055z"/>
    <path d="m-174.6-45.837 7.1386 11.653-19.056 23.011c-5.3166 6.0575-28.698 3.9022-34.024 3.3649 1.847-3.996 5.4547-24.212 17.035-30.594z"/>
    <path d="m-167.16-46.742-5.5222 12.5-29.765-2.58c-8.0064-0.9261-19.536-21.381-22.124-26.067 4.3371-0.75439 23.015-9.2885 34.852-3.3958z"/>
   </g>
  </g>
  <g fill="#f5ecdb" stroke="#161718" stroke-width=".018632">
   <path d="m69.87 64.205-12.914-7.8255 7.0522-32.249c2.1512-8.6415 26.202-18.372 31.704-20.543 0.21102 4.8594 6.9106 26.537-1.2262 38.67z"/>
   <path d="m69.225 64.206-12.985-7.7059-25.127 21.41c-6.6097 5.9677-3.8654 31.767-3.1891 37.642 4.3861-2.1026 26.664-6.4028 33.535-19.295z"/>
   <path d="m68.955 56.085-13.386 6.9856 4.9811 32.633c1.5957 8.7611 24.976 20.005 30.328 22.523 0.52055-4.8361 8.5897-26.042 1.243-38.67z"/>
   <path d="m61.423 50.92-1.2727 15.046 30.224 13.277c8.2526 3.3461 30.273-10.373 35.266-13.543-3.8048-3.0303-17.388-21.204-31.987-21.766z"/>
   <path d="m67.145 53.088 0.14258 15.099-31.133 10.976c-8.4801 2.7188-29.411-12.61-34.153-16.146 4.0209-2.737 18.927-19.843 33.527-19.31z"/>
   <path d="m74.709 56.458-12.336 8.7068-26.739-19.359c-7.0604-5.4272-6.3622-31.362-6.1517-37.273 4.5384 1.7497 27.087 4.2767 34.955 16.587z"/>
  </g>
  <g stroke="#161718">
   <path d="m45.811 89.337c-0.028599 10.163 22.506-19.985 18.972-27.662-3.6356-7.8985-26.416-8.34-33.192-3.2304-7.5233 5.6732 27.684 10.538 32.229 3.4761 4.6761-7.2657-5.8222-29.911-13.94-31.894-7.4668-1.8238 5.1783 30.523 13.257 31.138 8.3117 0.63281 21.545-20.224 19.252-28.663-2.2241-8.1859-22.506 19.985-18.972 27.662 3.6356 7.8985 26.859 8.9356 33.192 3.2304 4.8673-4.3848-27.684-10.538-32.229-3.4761-4.6761 7.2657 8.857 33.294 13.94 31.894 4.7652-1.3124-5.1783-30.523-13.257-31.138-8.3117-0.63281-19.227 19.885-19.252 28.663z" fill="#bad2c5" stroke-width=".010937"/>
   <g transform="translate(-36.724,-92.043)" fill="#fff">
    <ellipse transform="matrix(.9966 .082447 -.08489 .99639 0 0)" cx="107.68" cy="133.42" rx="3.7243" ry="3.6707" stroke-width=".016637"/>
    <g stroke-width=".016638">
     <ellipse transform="matrix(.83404 -.5517 .563 .82646 0 0)" cx="-13.351" cy="175.29" rx="3.7079" ry="3.6873"/>
     <ellipse transform="matrix(-.1849 -.98276 .98372 -.17971 0 0)" cx="-177.1" cy="61.783" rx="3.6721" ry="3.7229"/>
     <ellipse transform="matrix(.56186 .82724 -.8348 .55056 0 0)" cx="179.55" cy="-9.2897" rx="3.6872" ry="3.7079"/>
     <ellipse transform="matrix(-.52108 .8535 -.8602 -.50995 0 0)" cx="75.227" cy="-177.34" rx="3.6848" ry="3.7103"/>
    </g>
    <ellipse transform="matrix(.9966 .082447 -.08489 .99639 0 0)" cx="105.45" cy="130.5" rx="8.1715" ry="8.0538" stroke-width=".036504"/>
    <ellipse transform="matrix(.83404 -.5517 .563 .82646 0 0)" cx="-15.57" cy="172.35" rx="8.1354" ry="8.0902" stroke-width=".036506"/>
    <ellipse transform="matrix(-.1849 -.98276 .98372 -.17971 0 0)" cx="-179.3" cy="58.813" rx="8.057" ry="8.1683" stroke-width=".036504"/>
    <ellipse transform="matrix(.56186 .82724 -.8348 .55056 0 0)" cx="177.34" cy="-12.248" rx="8.0901" ry="8.1356" stroke-width=".036506"/>
    <ellipse transform="matrix(-.52108 .8535 -.8602 -.50995 0 0)" cx="73.022" cy="-180.3" rx="8.0849" ry="8.1407" stroke-width=".036506"/>
    <ellipse transform="matrix(-.99914 -.041439 .042674 -.99909 0 0)" cx="-114.14" cy="-162.35" rx="8.1721" ry="8.0532" stroke-width=".036504"/>
   </g>
   <g transform="translate(-36.724,-92.043)" fill="#ff7a7a" stroke-width=".015416">
    <circle transform="rotate(-33.873)" cx="-11.317" cy="175.81" r="3.4261"/>
    <circle transform="rotate(4.7989)" cx="107.94" cy="134" r="3.4261"/>
    <circle transform="rotate(259.5)" cx="-176.71" cy="62.928" r="3.4261"/>
    <circle transform="rotate(56.206)" cx="179.77" cy="-9.6211" r="3.4261"/>
    <circle transform="rotate(121.03)" cx="74.51" cy="-175.91" r="3.4261"/>
    <circle transform="rotate(182.41)" cx="-112.4" cy="-158.32" r="3.4261"/>
   </g>
   <circle transform="rotate(19.506)" cx="80.428" cy="35.91" r="8.6004" stroke-width=".031533"/>
   <circle transform="rotate(19.506)" cx="80.428" cy="35.91" r="8.196" fill="#ffe168" stroke-width=".03005"/>
  </g>
  <g transform="translate(.009421)" stroke-width=".017546">
   <rect x="11.61" y="10.839" width="101.88" height="101.59" opacity="0"/>
   <rect x="4.6509" y="-4.0899e-7" width="120.29" height="121.25" opacity="0"/>
   <rect x=".37855" y="2.2939" width="127.19" height="114.7" opacity="0"/>
  </g>
 </g>
</svg>
