<?xml version="1.0" encoding="UTF-8" standalone="no"?>
<svg
   xmlns:svg="http://www.w3.org/2000/svg"
   xmlns="http://www.w3.org/2000/svg"
   xmlns:sodipodi="http://sodipodi.sourceforge.net/DTD/sodipodi-0.dtd"
   xmlns:inkscape="http://www.inkscape.org/namespaces/inkscape"
   width="40.351299mm"
   height="39.194656mm"
   version="1.1"
   viewBox="0 0 40.351299 39.194656"
   id="svg1035"
   sodipodi:docname="notesandbytes.svg"
   inkscape:version="1.1-dev (48d18c81, 2020-07-08)">
  <defs
     id="defs1039">
    <inkscape:path-effect
       only_selected="false"
       apply_with_weight="true"
       apply_no_weight="true"
       helper_size="0"
       steps="2"
       weight="33.333333"
       lpeversion="1"
       is_visible="true"
       id="path-effect1566"
       effect="bspline" />
    <inkscape:path-effect
       fuse_tolerance="0"
       hide_knot="false"
       vertical_pattern="false"
       prop_units="false"
       tang_offset="0"
       normal_offset="0"
       spacing="0"
       scale_y_rel="false"
       prop_scale="1"
       copytype="single_stretched"
       pattern="M 0,5 C 0,2.24 2.24,0 5,0 7.76,0 10,2.24 10,5 10,7.76 7.76,10 5,10 2.24,10 0,7.76 0,5 Z"
       lpeversion="1"
       is_visible="true"
       id="path-effect1562"
       effect="skeletal" />
  </defs>
  <sodipodi:namedview
     pagecolor="#ffffff"
     bordercolor="#666666"
     borderopacity="1"
     objecttolerance="10"
     gridtolerance="10"
     guidetolerance="10"
     inkscape:pageopacity="0"
     inkscape:pageshadow="2"
     inkscape:window-width="1209"
     inkscape:window-height="689"
     id="namedview1037"
     showgrid="false"
     inkscape:zoom="2.040405"
     inkscape:cx="66.898483"
     inkscape:cy="84.542039"
     inkscape:window-x="23"
     inkscape:window-y="82"
     inkscape:window-maximized="0"
     inkscape:current-layer="svg1035" />
  <text
     id="text825"
     xml:space="preserve"
     style="line-height:1.25;fill:#484848;fill-opacity:1"
     word-spacing="0px"
     stroke-width="0.26458"
     font-size="22.578px"
     font-family="sans-serif"
     y="-55.686024"
     x="-32.461273"><tspan
       style="fill:#484848;fill-opacity:1"
       id="tspan823"
       stroke-width="0.26458"
       y="-55.686024"
       x="-32.461273" /></text>
  <path
     id="path856"
     d="M 34.246331,36.179601 C 28.708215,35.176751 22.82478,30.282319 19.781576,24.146367 c -0.91644,-1.847799 -1.277204,-3.090497 -1.287049,-4.433406 -0.0084,-1.150527 0.223338,-1.796049 0.880994,-2.453706 1.243391,-1.24339 3.129381,-1.425268 9.165779,-0.883912 6.414109,0.575231 9.597516,0.575297 16.001677,2.65e-4 5.011672,-0.449951 7.281448,-0.378206 8.55271,0.270343 0.25155,0.128331 0.676569,0.471138 0.944483,0.761794 1.211432,1.314249 1.085964,3.436019 -0.384791,6.50712 -2.992469,6.248606 -9.015433,11.284751 -14.676652,12.271986 -1.225215,0.213659 -3.531792,0.210095 -4.732396,-0.0073 z m 5.322246,-2.093888 c 4.610893,-1.177147 9.316743,-5.201121 12.026743,-10.284071 1.243856,-2.333006 1.668505,-4.511257 1.008197,-5.171565 -0.161785,-0.161784 -0.544293,-0.366828 -0.850019,-0.455654 -0.805045,-0.233895 -3.898923,-0.184539 -7.004283,0.111736 -5.835998,0.556805 -9.772362,0.611838 -14.24514,0.199162 -7.433089,-0.685805 -9.020021,-0.666684 -9.804845,0.118139 -0.423313,0.423313 -0.391813,1.613893 0.08008,3.026733 1.495358,4.477065 6.030908,9.490943 10.465272,11.568954 1.059603,0.496549 2.664922,0.992105 3.773384,1.164836 1.162565,0.181157 3.251339,0.05343 4.550611,-0.27827 z"
     style="fill:none;fill-opacity:1;stroke:none;stroke-width:0.560427;stroke-opacity:1" />
  <path
     id="path987"
     d=""
     style="fill:#f5ecdb;fill-opacity:1;stroke:none;stroke-width:0.560427;stroke-opacity:1" />
  <path
     id="path1274"
     d=""
     style="fill:#e3af77;fill-opacity:1;stroke:none;stroke-width:0.0966322;stroke-opacity:1" />
  <path
     id="path1276"
     d=""
     style="fill:#e3af77;fill-opacity:1;stroke:none;stroke-width:0.0966322;stroke-opacity:1" />
  <path
     id="path1278"
     d=""
     style="fill:#e3af77;fill-opacity:1;stroke:none;stroke-width:0.0966322;stroke-opacity:1" />
  <path
     id="path1280"
     d=""
     style="fill:#e3af77;fill-opacity:1;stroke:none;stroke-width:0.0966322;stroke-opacity:1" />
  <g
     transform="translate(0,-0.20270013)"
     id="g4076">
    <g
       id="g4006"
       transform="translate(0,0.25934394)">
      <g
         id="g3991">
        <text
           id="text1408"
           y="-15.587013"
           x="10.342069"
           style="font-size:19.2417px;line-height:1.25;font-family:sans-serif;word-spacing:0px;fill:#484848;fill-opacity:1;stroke-width:0.225487"
           xml:space="preserve"
           transform="matrix(-0.18726714,1.1882386,-0.86171167,0.1277271,0,0)"><tspan
             y="-15.587013"
             x="10.342069"
             style="font-style:normal;font-variant:normal;font-weight:normal;font-stretch:normal;font-size:19.2417px;font-family:'Market Saturday';-inkscape-font-specification:'Market Saturday, Normal';font-variant-ligatures:normal;font-variant-caps:normal;font-variant-numeric:normal;font-variant-east-asian:normal;fill:#484848;fill-opacity:1;stroke-width:0.225487"
             id="tspan1406"
             sodipodi:role="line">0</tspan></text>
        <text
           xml:space="preserve"
           style="font-size:25.6394px;line-height:1.25;font-family:sans-serif;word-spacing:0px;fill:#484848;fill-opacity:1;stroke-width:0.300462"
           x="18.026405"
           y="8.6367931"
           id="text1412"
           transform="rotate(11.056653)"><tspan
             sodipodi:role="line"
             id="tspan1410"
             style="font-style:normal;font-variant:normal;font-weight:normal;font-stretch:normal;font-size:25.6394px;font-family:'Market Saturday';-inkscape-font-specification:'Market Saturday, Normal';font-variant-ligatures:normal;font-variant-caps:normal;font-variant-numeric:normal;font-variant-east-asian:normal;fill:#484848;fill-opacity:1;stroke-width:0.300462"
             x="18.026405"
             y="8.6367931">1</tspan></text>
      </g>
      <text
         transform="rotate(63.252285)"
         id="text2014"
         y="-20.239979"
         x="13.042453"
         style="font-size:12.5586px;line-height:1.25;font-family:sans-serif;word-spacing:0px;fill:#484848;fill-opacity:1;stroke-width:0.147171"
         xml:space="preserve"><tspan
           y="-20.239979"
           x="13.042453"
           style="font-style:normal;font-variant:normal;font-weight:normal;font-stretch:normal;font-size:12.5586px;font-family:'Market Saturday';-inkscape-font-specification:'Market Saturday, Normal';font-variant-ligatures:normal;font-variant-caps:normal;font-variant-numeric:normal;font-variant-east-asian:normal;fill:#484848;fill-opacity:1;stroke-width:0.147171"
           id="tspan2012"
           sodipodi:role="line">0101101</tspan></text>
      <g
         id="g2010"
         transform="matrix(0.33581159,-0.33670317,0.33670317,0.33581159,13.88025,10.606661)">
        <text
           transform="matrix(-0.34321363,1.1529026,-0.87103947,0.01230626,0,0)"
           xml:space="preserve"
           style="font-size:38.2509px;line-height:1.25;font-family:sans-serif;word-spacing:0px;fill:#484848;fill-opacity:1;stroke-width:0.448251"
           x="14.238307"
           y="-8.68153"
           id="text2004"><tspan
             sodipodi:role="line"
             id="tspan2002"
             style="font-style:normal;font-variant:normal;font-weight:normal;font-stretch:normal;font-size:38.2509px;font-family:'Market Saturday';-inkscape-font-specification:'Market Saturday, Normal';font-variant-ligatures:normal;font-variant-caps:normal;font-variant-numeric:normal;font-variant-east-asian:normal;fill:#484848;fill-opacity:1;stroke-width:0.448251"
             x="14.238307"
             y="-8.68153">0</tspan></text>
        <text
           transform="rotate(18.678488)"
           id="text2008"
           y="16.052858"
           x="17.239689"
           style="font-size:50.9691px;line-height:1.25;font-family:sans-serif;word-spacing:0px;fill:#484848;fill-opacity:1;stroke-width:0.597294"
           xml:space="preserve"><tspan
             y="16.052858"
             x="17.239689"
             style="font-style:normal;font-variant:normal;font-weight:normal;font-stretch:normal;font-size:50.9691px;font-family:'Market Saturday';-inkscape-font-specification:'Market Saturday, Normal';font-variant-ligatures:normal;font-variant-caps:normal;font-variant-numeric:normal;font-variant-east-asian:normal;fill:#484848;fill-opacity:1;stroke-width:0.597294"
             id="tspan2006"
             sodipodi:role="line">1</tspan></text>
      </g>
      <ellipse
         transform="matrix(0.77695994,-0.62955004,0.59962492,0.80028117,0,0)"
         ry="1.1024373"
         rx="3.1194167"
         cy="26.700327"
         cx="10.323399"
         id="path2078"
         style="fill:#484848;fill-opacity:1;stroke-width:0.990338" />
    </g>
    <g
       id="g3386"
       transform="translate(-2.2992349e-8,-2.1668367)">
      <path
         sodipodi:nodetypes="ccccccccc"
         d="m 6.191962,24.493502 c -2.2793877,0.928727 -4.0949517,2.208455 -5.162398,3.638794 -2.6413406,3.573714 -0.025202,7.131887 5.8432879,7.947376 1.5936781,0.218921 3.3271401,0.217087 5.0722971,-0.0054 l -0.780731,-1.946398 c -0.93867,0.06888 -1.8492755,0.07808 -2.7088831,0.0274 C 2.9939037,33.820526 0.86984337,31.415984 3.5667409,28.4974 4.4596182,27.542314 6.4056794,26.752709 8.0877037,25.992154 Z"
         style="fill:#f5ecdb;fill-opacity:1;stroke:none;stroke-width:1.25653;stroke-opacity:1"
         id="path919" />
      <path
         id="path1118"
         d="M 21.634386,41.419102 C 18.55943,40.998475 15.558107,39.501426 12.620994,36.923254 l -0.924265,-0.811313 -1.9485646,0.02809 C 6.0048016,36.194002 3.1915003,35.401672 1.4818298,33.811931 0.73951598,33.121689 0.39048559,32.558947 0.16937159,31.695855 -0.17941369,30.334412 0.3250635,28.939193 1.6830071,27.509631 2.583204,26.561958 3.9193159,25.613485 5.2551261,24.973873 5.7257066,24.74855 6.3415767,24.351405 6.6237263,24.091329 c 0.7939849,-0.73187 1.4846754,-0.891907 3.7552407,-0.870114 1.031746,0.0099 3.326797,0.156607 5.100111,0.326008 5.73871,0.548207 9.600246,0.530778 15.945178,-0.07197 2.986048,-0.283665 5.874237,-0.336359 6.813796,-0.124317 0.904767,0.204191 1.578888,0.666946 1.881145,1.291329 0.212903,0.439796 0.238056,0.64981 0.182671,1.525185 -0.0735,1.161671 -0.405021,2.221437 -1.179779,3.771363 -2.393474,4.78822 -6.925623,9.05015 -11.425087,10.743896 -1.765902,0.664744 -4.319187,0.974876 -6.062616,0.736391 z m 4.253299,-1.935242 c 1.357234,-0.339228 2.972065,-1.097105 4.388727,-2.059726 1.376746,-0.9355 3.640844,-3.189015 4.694375,-4.672436 1.047546,-1.474991 2.020623,-3.437845 2.332283,-4.704589 0.403278,-1.639133 0.136105,-2.529953 -0.913802,-3.046817 -0.502647,-0.247452 -0.762807,-0.284491 -2.250019,-0.320341 -1.065718,-0.02569 -2.719022,0.04928 -4.513892,0.204679 -1.557732,0.134868 -3.069656,0.262602 -3.359835,0.283852 -0.371908,0.02724 -0.289863,0.04468 0.278029,0.05912 0.443092,0.01127 1.709327,-0.06613 2.813854,-0.172001 1.104527,-0.105867 2.984283,-0.198197 4.177242,-0.205177 2.025605,-0.01185 2.200984,0.0044 2.652551,0.245966 0.265946,0.142262 0.627999,0.430338 0.804561,0.64017 0.306268,0.363978 0.318698,0.427526 0.270497,1.382757 -0.04075,0.807492 -0.132438,1.200703 -0.473829,2.031963 -1.523604,3.70985 -4.968838,7.491 -8.404239,9.223661 -1.875292,0.945814 -3.764376,1.36267 -5.726399,1.263621 C 17.747359,39.390668 12.259319,34.940575 9.8223996,29.230711 8.827126,26.89872 9.0547161,25.512766 10.512625,25.02745 c 0.826566,-0.275152 2.668161,-0.283604 5.637845,-0.02587 1.562222,0.13558 3.197775,0.238066 3.634562,0.227746 0.910279,-0.02151 0.94977,-0.01694 -2.979692,-0.344579 -1.782025,-0.148586 -3.572085,-0.229979 -4.513893,-0.205244 -1.382702,0.03631 -1.627623,0.07443 -2.146968,0.334099 -0.8301821,0.415091 -1.1553788,1.056179 -1.0705108,2.110391 0.187157,2.324818 2.2458528,5.836053 4.9556738,8.452211 3.683628,3.556306 7.815753,4.917993 11.858043,3.90766 z M 9.9686126,34.208343 c 0,-0.03714 -0.2301693,-0.366889 -0.5114874,-0.732776 C 8.042668,31.635906 6.9118743,29.573674 6.3725936,27.850296 6.0280854,26.749352 6.1262239,26.7768 4.9271228,27.446021 c -0.9334151,0.520942 -1.8556473,1.424796 -2.2155494,2.171394 -0.945392,1.961174 0.1564979,3.446518 3.1097952,4.191995 1.2137458,0.306377 4.147244,0.588555 4.147244,0.398933 z M 24.425302,25.27795 c -0.657459,-0.02086 -1.765414,-0.02094 -2.462123,-1.76e-4 -0.696709,0.02077 -0.15879,0.03783 1.195378,0.03793 1.354168,9.6e-5 1.924203,-0.01689 1.266745,-0.03775 z"
         style="fill:#f5ecdb;fill-opacity:1;stroke:none;stroke-width:0.560427;stroke-opacity:1" />
      <path
         id="path1120"
         d="M 21.634386,41.419102 C 18.55943,40.998475 15.558107,39.501426 12.620994,36.923254 l -0.924265,-0.811313 -1.9485646,0.02809 C 6.0048016,36.194002 3.1915003,35.401672 1.4818298,33.811931 0.73951598,33.121689 0.39048559,32.558947 0.16937159,31.695855 -0.17941369,30.334412 0.3250635,28.939193 1.6830071,27.509631 2.583204,26.561958 3.9193159,25.613485 5.2551261,24.973873 5.7257066,24.74855 6.3415767,24.351405 6.6237263,24.091329 c 0.7939849,-0.73187 1.4846754,-0.891907 3.7552407,-0.870114 1.031746,0.0099 3.326797,0.156607 5.100111,0.326008 5.73871,0.548207 9.600246,0.530778 15.945178,-0.07197 2.986048,-0.283665 5.874237,-0.336359 6.813796,-0.124317 0.904767,0.204191 1.578888,0.666946 1.881145,1.291329 0.212903,0.439796 0.238056,0.64981 0.182671,1.525185 -0.0735,1.161671 -0.405021,2.221437 -1.179779,3.771363 -2.393474,4.78822 -6.925623,9.05015 -11.425087,10.743896 -1.765902,0.664744 -4.319187,0.974876 -6.062616,0.736391 z m 4.253299,-1.935242 c 1.357234,-0.339228 2.972065,-1.097105 4.388727,-2.059726 1.376746,-0.9355 3.640844,-3.189015 4.694375,-4.672436 1.047546,-1.474991 2.020623,-3.437845 2.332283,-4.704589 0.403278,-1.639133 0.136105,-2.529953 -0.913802,-3.046817 -0.502647,-0.247452 -0.762807,-0.284491 -2.250019,-0.320341 -1.065718,-0.02569 -2.719022,0.04928 -4.513892,0.204679 -1.557732,0.134868 -3.069656,0.262602 -3.359835,0.283852 -0.371908,0.02724 -0.289863,0.04468 0.278029,0.05912 0.443092,0.01127 1.709327,-0.06613 2.813854,-0.172001 1.104527,-0.105867 2.984283,-0.198197 4.177242,-0.205177 2.025605,-0.01185 2.200984,0.0044 2.652551,0.245966 0.265946,0.142262 0.627999,0.430338 0.804561,0.64017 0.306268,0.363978 0.318698,0.427526 0.270497,1.382757 -0.04075,0.807492 -0.132438,1.200703 -0.473829,2.031963 -1.523604,3.70985 -4.968838,7.491 -8.404239,9.223661 -1.875292,0.945814 -3.764376,1.36267 -5.726399,1.263621 C 17.747359,39.390668 12.259319,34.940575 9.8223996,29.230711 8.827126,26.89872 9.0547161,25.512766 10.512625,25.02745 c 0.826566,-0.275152 2.668161,-0.283604 5.637845,-0.02587 1.562222,0.13558 3.197775,0.238066 3.634562,0.227746 0.910279,-0.02151 0.94977,-0.01694 -2.979692,-0.344579 -1.782025,-0.148586 -3.572085,-0.229979 -4.513893,-0.205244 -1.382702,0.03631 -1.627623,0.07443 -2.146968,0.334099 -0.8301821,0.415091 -1.1553788,1.056179 -1.0705108,2.110391 0.187157,2.324818 2.2458528,5.836053 4.9556738,8.452211 3.683628,3.556306 7.815753,4.917993 11.858043,3.90766 z M 9.9686126,34.208343 c 0,-0.03714 -0.2301693,-0.366889 -0.5114874,-0.732776 C 8.042668,31.635906 6.9118743,29.573674 6.3725936,27.850296 6.0280854,26.749352 6.1262239,26.7768 4.9271228,27.446021 c -0.9334151,0.520942 -1.8556473,1.424796 -2.2155494,2.171394 -0.945392,1.961174 0.1564979,3.446518 3.1097952,4.191995 1.2137458,0.306377 4.147244,0.588555 4.147244,0.398933 z M 24.425302,25.27795 c -0.657459,-0.02086 -1.765414,-0.02094 -2.462123,-1.76e-4 -0.696709,0.02077 -0.15879,0.03783 1.195378,0.03793 1.354168,9.6e-5 1.924203,-0.01689 1.266745,-0.03775 z"
         style="fill:#f5ecdb;fill-opacity:1;stroke:none;stroke-width:0.560427;stroke-opacity:1" />
      <path
         id="path1122"
         d="M 21.634386,41.419102 C 18.55943,40.998475 15.558107,39.501426 12.620994,36.923254 l -0.924265,-0.811313 -1.9485646,0.02809 C 6.0048016,36.194002 3.1915003,35.401672 1.4818298,33.811931 0.73951598,33.121689 0.39048559,32.558947 0.16937159,31.695855 -0.17941369,30.334412 0.3250635,28.939193 1.6830071,27.509631 2.583204,26.561958 3.9193159,25.613485 5.2551261,24.973873 5.7257066,24.74855 6.3415767,24.351405 6.6237263,24.091329 c 0.7939849,-0.73187 1.4846754,-0.891907 3.7552407,-0.870114 1.031746,0.0099 3.326797,0.156607 5.100111,0.326008 5.73871,0.548207 9.600246,0.530778 15.945178,-0.07197 2.986048,-0.283665 5.874237,-0.336359 6.813796,-0.124317 0.904767,0.204191 1.578888,0.666946 1.881145,1.291329 0.212903,0.439796 0.238056,0.64981 0.182671,1.525185 -0.0735,1.161671 -0.405021,2.221437 -1.179779,3.771363 -2.393474,4.78822 -6.925623,9.05015 -11.425087,10.743896 -1.765902,0.664744 -4.319187,0.974876 -6.062616,0.736391 z m 4.253299,-1.935242 c 1.357234,-0.339228 2.972065,-1.097105 4.388727,-2.059726 1.376746,-0.9355 3.640844,-3.189015 4.694375,-4.672436 1.047546,-1.474991 2.020623,-3.437845 2.332283,-4.704589 0.403278,-1.639133 0.136105,-2.529953 -0.913802,-3.046817 -0.502647,-0.247452 -0.762807,-0.284491 -2.250019,-0.320341 -1.065718,-0.02569 -2.719022,0.04928 -4.513892,0.204679 -1.557732,0.134868 -3.069656,0.262602 -3.359835,0.283852 -0.371908,0.02724 -0.289863,0.04468 0.278029,0.05912 0.443092,0.01127 1.709327,-0.06613 2.813854,-0.172001 1.104527,-0.105867 2.984283,-0.198197 4.177242,-0.205177 2.025605,-0.01185 2.200984,0.0044 2.652551,0.245966 0.265946,0.142262 0.627999,0.430338 0.804561,0.64017 0.306268,0.363978 0.318698,0.427526 0.270497,1.382757 -0.04075,0.807492 -0.132438,1.200703 -0.473829,2.031963 -1.523604,3.70985 -4.968838,7.491 -8.404239,9.223661 -1.875292,0.945814 -3.764376,1.36267 -5.726399,1.263621 C 17.747359,39.390668 12.259319,34.940575 9.8223996,29.230711 8.827126,26.89872 9.0547161,25.512766 10.512625,25.02745 c 0.826566,-0.275152 2.668161,-0.283604 5.637845,-0.02587 1.562222,0.13558 3.197775,0.238066 3.634562,0.227746 0.910279,-0.02151 0.94977,-0.01694 -2.979692,-0.344579 -1.782025,-0.148586 -3.572085,-0.229979 -4.513893,-0.205244 -1.382702,0.03631 -1.627623,0.07443 -2.146968,0.334099 -0.8301821,0.415091 -1.1553788,1.056179 -1.0705108,2.110391 0.187157,2.324818 2.2458528,5.836053 4.9556738,8.452211 3.683628,3.556306 7.815753,4.917993 11.858043,3.90766 z M 9.9686126,34.208343 c 0,-0.03714 -0.2301693,-0.366889 -0.5114874,-0.732776 C 8.042668,31.635906 6.9118743,29.573674 6.3725936,27.850296 6.0280854,26.749352 6.1262239,26.7768 4.9271228,27.446021 c -0.9334151,0.520942 -1.8556473,1.424796 -2.2155494,2.171394 -0.945392,1.961174 0.1564979,3.446518 3.1097952,4.191995 1.2137458,0.306377 4.147244,0.588555 4.147244,0.398933 z M 24.425302,25.27795 c -0.657459,-0.02086 -1.765414,-0.02094 -2.462123,-1.76e-4 -0.696709,0.02077 -0.15879,0.03783 1.195378,0.03793 1.354168,9.6e-5 1.924203,-0.01689 1.266745,-0.03775 z"
         style="fill:#f5ecdb;fill-opacity:1;stroke:none;stroke-width:0.560427;stroke-opacity:1" />
      <path
         id="path1124"
         d="M 21.634386,41.419102 C 18.55943,40.998475 15.558107,39.501426 12.620994,36.923254 l -0.924265,-0.811313 -1.9485646,0.02809 C 6.0048016,36.194002 3.1915003,35.401672 1.4818298,33.811931 0.73951598,33.121689 0.39048559,32.558947 0.16937159,31.695855 -0.17941369,30.334412 0.3250635,28.939193 1.6830071,27.509631 2.583204,26.561958 3.9193159,25.613485 5.2551261,24.973873 5.7257066,24.74855 6.3415767,24.351405 6.6237263,24.091329 c 0.7939849,-0.73187 1.4846754,-0.891907 3.7552407,-0.870114 1.031746,0.0099 3.326797,0.156607 5.100111,0.326008 5.73871,0.548207 9.600246,0.530778 15.945178,-0.07197 2.986048,-0.283665 5.874237,-0.336359 6.813796,-0.124317 0.904767,0.204191 1.578888,0.666946 1.881145,1.291329 0.212903,0.439796 0.238056,0.64981 0.182671,1.525185 -0.0735,1.161671 -0.405021,2.221437 -1.179779,3.771363 -2.393474,4.78822 -6.925623,9.05015 -11.425087,10.743896 -1.765902,0.664744 -4.319187,0.974876 -6.062616,0.736391 z m 4.253299,-1.935242 c 1.357234,-0.339228 2.972065,-1.097105 4.388727,-2.059726 1.376746,-0.9355 3.640844,-3.189015 4.694375,-4.672436 1.047546,-1.474991 2.020623,-3.437845 2.332283,-4.704589 0.403278,-1.639133 0.136105,-2.529953 -0.913802,-3.046817 -0.502647,-0.247452 -0.762807,-0.284491 -2.250019,-0.320341 -1.065718,-0.02569 -2.719022,0.04928 -4.513892,0.204679 -1.557732,0.134868 -3.069656,0.262602 -3.359835,0.283852 -0.371908,0.02724 -0.289863,0.04468 0.278029,0.05912 0.443092,0.01127 1.709327,-0.06613 2.813854,-0.172001 1.104527,-0.105867 2.984283,-0.198197 4.177242,-0.205177 2.025605,-0.01185 2.200984,0.0044 2.652551,0.245966 0.265946,0.142262 0.627999,0.430338 0.804561,0.64017 0.306268,0.363978 0.318698,0.427526 0.270497,1.382757 -0.04075,0.807492 -0.132438,1.200703 -0.473829,2.031963 -1.523604,3.70985 -4.968838,7.491 -8.404239,9.223661 -1.875292,0.945814 -3.764376,1.36267 -5.726399,1.263621 C 17.747359,39.390668 12.259319,34.940575 9.8223996,29.230711 8.827126,26.89872 9.0547161,25.512766 10.512625,25.02745 c 0.826566,-0.275152 2.668161,-0.283604 5.637845,-0.02587 1.562222,0.13558 3.197775,0.238066 3.634562,0.227746 0.910279,-0.02151 0.94977,-0.01694 -2.979692,-0.344579 -1.782025,-0.148586 -3.572085,-0.229979 -4.513893,-0.205244 -1.382702,0.03631 -1.627623,0.07443 -2.146968,0.334099 -0.8301821,0.415091 -1.1553788,1.056179 -1.0705108,2.110391 0.187157,2.324818 2.2458528,5.836053 4.9556738,8.452211 3.683628,3.556306 7.815753,4.917993 11.858043,3.90766 z M 9.9686126,34.208343 c 0,-0.03714 -0.2301693,-0.366889 -0.5114874,-0.732776 C 8.042668,31.635906 6.9118743,29.573674 6.3725936,27.850296 6.0280854,26.749352 6.1262239,26.7768 4.9271228,27.446021 c -0.9334151,0.520942 -1.8556473,1.424796 -2.2155494,2.171394 -0.945392,1.961174 0.1564979,3.446518 3.1097952,4.191995 1.2137458,0.306377 4.147244,0.588555 4.147244,0.398933 z M 24.425302,25.27795 c -0.657459,-0.02086 -1.765414,-0.02094 -2.462123,-1.76e-4 -0.696709,0.02077 -0.15879,0.03783 1.195378,0.03793 1.354168,9.6e-5 1.924203,-0.01689 1.266745,-0.03775 z"
         style="fill:#f5ecdb;fill-opacity:1;stroke:none;stroke-width:0.560427;stroke-opacity:1" />
      <path
         id="path1126"
         d="M 21.634386,41.419102 C 18.55943,40.998475 15.558107,39.501426 12.620994,36.923254 l -0.924265,-0.811313 -1.9485646,0.02809 C 6.0048016,36.194002 3.1915003,35.401672 1.4818298,33.811931 0.73951598,33.121689 0.39048559,32.558947 0.16937159,31.695855 -0.17941369,30.334412 0.3250635,28.939193 1.6830071,27.509631 2.583204,26.561958 3.9193159,25.613485 5.2551261,24.973873 5.7257066,24.74855 6.3415767,24.351405 6.6237263,24.091329 c 0.7939849,-0.73187 1.4846754,-0.891907 3.7552407,-0.870114 1.031746,0.0099 3.326797,0.156607 5.100111,0.326008 5.73871,0.548207 9.600246,0.530778 15.945178,-0.07197 2.986048,-0.283665 5.874237,-0.336359 6.813796,-0.124317 0.904767,0.204191 1.578888,0.666946 1.881145,1.291329 0.212903,0.439796 0.238056,0.64981 0.182671,1.525185 -0.0735,1.161671 -0.405021,2.221437 -1.179779,3.771363 -2.393474,4.78822 -6.925623,9.05015 -11.425087,10.743896 -1.765902,0.664744 -4.319187,0.974876 -6.062616,0.736391 z m 4.253299,-1.935242 c 1.357234,-0.339228 2.972065,-1.097105 4.388727,-2.059726 1.376746,-0.9355 3.640844,-3.189015 4.694375,-4.672436 1.047546,-1.474991 2.020623,-3.437845 2.332283,-4.704589 0.403278,-1.639133 0.136105,-2.529953 -0.913802,-3.046817 -0.502647,-0.247452 -0.762807,-0.284491 -2.250019,-0.320341 -1.065718,-0.02569 -2.719022,0.04928 -4.513892,0.204679 -1.557732,0.134868 -3.069656,0.262602 -3.359835,0.283852 -0.371908,0.02724 -0.289863,0.04468 0.278029,0.05912 0.443092,0.01127 1.709327,-0.06613 2.813854,-0.172001 1.104527,-0.105867 2.984283,-0.198197 4.177242,-0.205177 2.025605,-0.01185 2.200984,0.0044 2.652551,0.245966 0.265946,0.142262 0.627999,0.430338 0.804561,0.64017 0.306268,0.363978 0.318698,0.427526 0.270497,1.382757 -0.04075,0.807492 -0.132438,1.200703 -0.473829,2.031963 -1.523604,3.70985 -4.968838,7.491 -8.404239,9.223661 -1.875292,0.945814 -3.764376,1.36267 -5.726399,1.263621 C 17.747359,39.390668 12.259319,34.940575 9.8223996,29.230711 8.827126,26.89872 9.0547161,25.512766 10.512625,25.02745 c 0.826566,-0.275152 2.668161,-0.283604 5.637845,-0.02587 1.562222,0.13558 3.197775,0.238066 3.634562,0.227746 0.910279,-0.02151 0.94977,-0.01694 -2.979692,-0.344579 -1.782025,-0.148586 -3.572085,-0.229979 -4.513893,-0.205244 -1.382702,0.03631 -1.627623,0.07443 -2.146968,0.334099 -0.8301821,0.415091 -1.1553788,1.056179 -1.0705108,2.110391 0.187157,2.324818 2.2458528,5.836053 4.9556738,8.452211 3.683628,3.556306 7.815753,4.917993 11.858043,3.90766 z M 9.9686126,34.208343 c 0,-0.03714 -0.2301693,-0.366889 -0.5114874,-0.732776 C 8.042668,31.635906 6.9118743,29.573674 6.3725936,27.850296 6.0280854,26.749352 6.1262239,26.7768 4.9271228,27.446021 c -0.9334151,0.520942 -1.8556473,1.424796 -2.2155494,2.171394 -0.945392,1.961174 0.1564979,3.446518 3.1097952,4.191995 1.2137458,0.306377 4.147244,0.588555 4.147244,0.398933 z M 24.425302,25.27795 c -0.657459,-0.02086 -1.765414,-0.02094 -2.462123,-1.76e-4 -0.696709,0.02077 -0.15879,0.03783 1.195378,0.03793 1.354168,9.6e-5 1.924203,-0.01689 1.266745,-0.03775 z"
         style="fill:#f5ecdb;fill-opacity:1;stroke:none;stroke-width:0.560427;stroke-opacity:1" />
      <path
         id="path1128"
         d="M 21.192225,41.376054 C 18.306454,40.864649 15.275247,39.299215 12.60867,36.943169 L 11.712966,36.151774 9.6976607,36.15098 C 6.6657466,36.149922 4.7462644,35.784924 2.9582064,34.869381 1.6924059,34.221247 0.55609949,33.05698 0.21902459,32.062798 0.1397694,31.829038 0.0733691,31.260721 0.07146836,30.799873 0.06839464,30.054626 0.11851104,29.862475 0.52465919,29.062301 1.2935629,27.54744 2.7108953,26.294951 5.1029887,25.016455 5.6188621,24.740737 6.2519793,24.344887 6.509916,24.136788 c 1.3595174,-1.096837 2.5296713,-1.1835 8.651774,-0.640757 5.999076,0.531837 9.942081,0.547042 15.031505,0.05796 6.944151,-0.667311 9.033809,-0.468822 9.857269,0.936304 0.736412,1.256592 0.09641,3.892083 -1.652133,6.803441 -1.014113,1.688515 -1.891773,2.81726 -3.398136,4.370287 -3.039999,3.13418 -5.963301,4.887756 -9.320893,5.591246 -1.241399,0.260102 -3.37634,0.317522 -4.487077,0.120679 z m 2.820281,-1.675736 c -0.304138,-0.02408 -0.831736,-0.02431 -1.17244,-5.29e-4 -0.340704,0.02376 -0.09186,0.04345 0.552979,0.04375 0.644841,2.65e-4 0.923599,-0.01913 0.619461,-0.04319 z m -2.290187,-0.108876 c -0.08061,-0.03252 -0.212505,-0.03252 -0.29311,0 -0.0806,0.03252 -0.01466,0.05914 0.146555,0.05914 0.16121,0 0.22716,-0.02661 0.146555,-0.05914 z m 3.402305,7.94e-4 c -0.07938,-0.03211 -0.237657,-0.03407 -0.351732,-0.0043 -0.114074,0.02973 -0.04913,0.056 0.144324,0.05839 0.193453,0.0024 0.286786,-0.02193 0.207408,-0.05405 z m -4.662678,-0.285761 c -1.107981,-0.308898 -3.448395,-1.486553 -4.45527,-2.241814 -2.050411,-1.538023 -4.098629,-3.858268 -5.31263,-6.018207 -0.581817,-1.035164 -1.3116532,-2.701203 -1.3116532,-2.994184 0,-0.08061 -0.031755,-0.114809 -0.070567,-0.076 -0.1136497,0.11365 0.2926662,1.234562 0.8558742,2.361118 1.555152,3.110696 4.319609,6.075252 7.256986,7.782264 1.158432,0.673206 3.073343,1.422395 3.62348,1.417651 0.128968,-0.0011 -0.134831,-0.104987 -0.58622,-0.230831 z m 5.510466,0.128217 c 0.298763,-0.128381 -0.0095,-0.128381 -0.410354,0 -0.235629,0.07546 -0.247126,0.09455 -0.05862,0.09732 0.128968,0.0019 0.340007,-0.04189 0.468976,-0.09732 z m 2.051768,-0.762084 c 0.29018,-0.155382 0.474838,-0.282514 0.410356,-0.282514 -0.06448,0 -0.354663,0.127132 -0.644843,0.282514 -0.290179,0.155382 -0.474839,0.282514 -0.410355,0.282514 0.06448,0 0.354663,-0.127132 0.644842,-0.282514 z m 2.344881,-1.356037 c 1.141338,-0.79774 3.879241,-3.556535 4.646567,-4.682027 1.081262,-1.585968 2.276983,-4.044617 2.267826,-4.663123 -0.0016,-0.111375 -0.134162,0.182544 -0.294473,0.653153 -0.404511,1.187479 -0.952143,2.237084 -1.945976,3.729712 -1.099058,1.650659 -3.445293,4.022334 -4.976866,5.030827 -0.585753,0.385702 -1.166108,0.7678 -1.289682,0.849109 -0.123574,0.08131 -0.01365,0.04638 0.244298,-0.0776 0.257937,-0.123991 0.864674,-0.502012 1.348306,-0.840046 z M 9.8513686,34.151582 c 0,-0.07041 -0.237967,-0.437266 -0.5288161,-0.815247 C 8.1366668,31.795187 6.9396452,29.608181 6.3875719,27.974008 6.2078481,27.442013 6.0152583,27.006745 5.9595943,27.006745 c -0.3163141,0 -1.6419687,0.820894 -2.2273617,1.379265 -1.0992866,1.048541 -1.5498173,2.333884 -1.1667966,3.328815 0.1735012,0.450686 0.8741808,1.109335 1.5379435,1.445689 0.9725562,0.492832 2.8959096,0.919295 4.6341715,1.027533 0.2579367,0.01606 0.6140654,0.04323 0.7913968,0.06037 0.1773314,0.01715 0.3224207,-0.02643 0.3224207,-0.09684 z M 9.2291541,27.390019 c -0.029727,-0.114074 -0.056003,-0.04913 -0.058393,0.144324 -0.00238,0.193452 0.021931,0.286786 0.054048,0.207408 0.032116,-0.07938 0.034071,-0.237657 0.00434,-0.351732 z M 37.197742,25.796436 c -0.215672,-0.369284 -0.88311,-0.900483 -1.130376,-0.899644 -0.07107,2.46e-4 0.03131,0.09833 0.227509,0.217979 0.196202,0.119646 0.499571,0.387296 0.674153,0.594776 0.273519,0.325057 0.320601,0.49357 0.34039,1.218261 l 0.02296,0.841023 0.04122,-0.800354 c 0.03199,-0.621133 -0.0074,-0.883586 -0.175858,-1.172041 z M 9.1107519,26.750274 c -0.037427,-0.09353 -0.065209,-0.06575 -0.070835,0.07084 -0.00509,0.123594 0.022619,0.192842 0.061579,0.153883 0.038959,-0.03896 0.043124,-0.140083 0.00926,-0.224718 z m 0.8009772,-1.455487 c 0.1729739,-0.113336 0.5599029,-0.272168 0.8598429,-0.352958 0.35206,-0.09483 0.44146,-0.148785 0.252236,-0.152231 -0.393903,-0.0072 -1.1719799,0.362878 -1.4861688,0.70682 -0.1403093,0.153596 -0.2889904,0.437545 -0.3304027,0.630997 -0.061842,0.288886 -0.033727,0.264333 0.1573501,-0.137414 0.1279549,-0.269031 0.3741693,-0.581877 0.5471425,-0.695214 z m 9.7563779,-0.117536 c -0.03896,-0.03896 -0.140083,-0.04312 -0.224718,-0.0093 -0.09353,0.03743 -0.06575,0.06521 0.07084,0.07083 0.123593,0.0051 0.192841,-0.02262 0.153882,-0.06158 z m 7.269125,0 c -0.03896,-0.03896 -0.140083,-0.04312 -0.224718,-0.0093 -0.09353,0.03743 -0.06575,0.06521 0.07084,0.07083 0.123592,0.0051 0.192841,-0.02262 0.153881,-0.06158 z M 18.323856,25.04831 c -0.144203,-0.02783 -0.408002,-0.02855 -0.58622,-0.0016 -0.178217,0.02695 -0.06023,0.04972 0.262187,0.0506 0.322421,8.73e-4 0.468236,-0.02117 0.324033,-0.049 z m 10.374477,-0.0015 c -0.177331,-0.02686 -0.46751,-0.02686 -0.644842,0 -0.177332,0.02686 -0.03224,0.04884 0.322421,0.04884 0.354664,0 0.499753,-0.02198 0.322421,-0.04884 z M 16.976038,24.929824 c -0.176176,-0.02675 -0.492735,-0.02729 -0.703463,-0.0012 -0.210729,0.02609 -0.06658,0.04798 0.320321,0.04864 0.386905,6.62e-4 0.559319,-0.02069 0.383142,-0.04744 z m 13.072213,0.0012 c -0.144203,-0.02783 -0.408001,-0.02855 -0.586219,-0.0016 -0.178218,0.02695 -0.06024,0.04972 0.262186,0.0506 0.322422,8.73e-4 0.468236,-0.02117 0.324033,-0.049 z m 1.329005,-0.127214 c -0.444998,-0.01994 -0.851498,0.0059 -0.903338,0.05743 -0.05184,0.05153 0.312248,0.06785 0.809085,0.03626 l 0.903338,-0.05743 z m -15.925389,0.0087 c -0.176177,-0.02675 -0.492735,-0.02729 -0.703464,-0.0012 -0.210728,0.02609 -0.06658,0.04798 0.320321,0.04864 0.386906,6.61e-4 0.55932,-0.02069 0.383143,-0.04744 z m 20.281102,0.003 c -0.112845,-0.02949 -0.297505,-0.02949 -0.410353,0 -0.112847,0.02949 -0.02053,0.05362 0.205177,0.05362 0.225695,0 0.318024,-0.02413 0.205176,-0.05362 z M 13.280754,24.694295 c -0.209573,-0.02601 -0.552512,-0.02601 -0.762085,0 -0.209574,0.02601 -0.0381,0.04729 0.381042,0.04729 0.419148,0 0.590617,-0.02128 0.381043,-0.04729 z m 21.107449,-8.46e-4 c -0.272113,-0.02459 -0.74695,-0.02488 -1.055195,-6.35e-4 -0.308245,0.02423 -0.08561,0.04435 0.49475,0.04471 0.580355,3.44e-4 0.832556,-0.01947 0.560445,-0.04406 z"
         style="fill:#f5ecdb;fill-opacity:1;stroke:none;stroke-width:0.560427;stroke-opacity:1" />
      <path
         id="path1130"
         d="m 21.399898,41.423369 c -2.854971,-0.445254 -6.09095,-2.094378 -8.791228,-4.4802 L 11.712966,36.151774 9.6976607,36.15098 C 6.5884751,36.150015 4.7557593,35.795499 2.9038697,34.836906 1.7979623,34.264456 0.8494361,33.360656 0.40830356,32.459014 -0.06358105,31.494518 -0.07108515,30.279609 0.38877607,29.297537 1.12386,27.727703 2.5073202,26.438724 4.8285171,25.161001 5.559834,24.758441 6.3164636,24.291714 6.509916,24.123829 c 1.2384971,-1.07481 2.6263045,-1.175572 8.734674,-0.634183 1.38641,0.122878 3.233002,0.254719 4.103539,0.292979 0.870536,0.03826 2.051308,0.09081 2.623939,0.116772 1.425624,0.06464 5.556111,-0.123526 8.807346,-0.401227 5.584065,-0.476959 7.247307,-0.439651 8.401335,0.188449 0.847164,0.461084 1.154047,1.035561 1.154047,2.160344 0,3.864133 -4.590431,10.241885 -9.618589,13.363667 -1.599969,0.993357 -3.296811,1.692799 -4.974337,2.050439 -1.023123,0.218125 -3.411572,0.307403 -4.341972,0.1623 z m 2.434424,-1.719566 c -0.144203,-0.02783 -0.408002,-0.02855 -0.58622,-0.0016 -0.178218,0.02695 -0.06023,0.04972 0.262187,0.0506 0.322421,7.94e-4 0.468236,-0.02117 0.324033,-0.049 z m 1.227007,-0.105548 c -0.03896,-0.03896 -0.140083,-0.04312 -0.224718,-0.0093 -0.09353,0.03743 -0.06575,0.06521 0.07083,0.07083 0.123594,0.0051 0.192842,-0.02262 0.153883,-0.06158 z m 1.055196,-0.234487 c -0.03896,-0.03896 -0.140084,-0.04312 -0.224718,-0.0093 -0.09353,0.03743 -0.06575,0.06521 0.07083,0.07083 0.123594,0.0051 0.192841,-0.02262 0.153883,-0.06158 z M 19.523391,38.985094 C 17.452263,38.167555 15.891809,37.130201 14.029834,35.3331 12.125565,33.49518 10.526197,31.146305 9.647292,28.896783 9.4301016,28.340893 9.2857973,28.044354 9.3266156,28.237806 c 0.040818,0.193453 0.2282136,0.722096 0.4164336,1.174764 1.4374488,3.45704 4.8238798,7.204683 8.0120878,8.866692 1.094411,0.570513 2.166979,1.027817 2.413699,1.029105 0.09673,5.29e-4 -0.193724,-0.144965 -0.645445,-0.323273 z m 8.500789,-0.312576 c 0.161211,-0.09216 0.240351,-0.167556 0.175866,-0.167556 -0.06448,0 -0.249142,0.0754 -0.410353,0.167556 -0.16121,0.09216 -0.24035,0.167558 -0.175865,0.167558 0.06448,0 0.249142,-0.0754 0.410352,-0.167558 z m 1.289685,-0.711714 c 0,-0.03224 -0.105521,-0.0021 -0.234489,0.06687 -0.128969,0.06902 -0.234487,0.151876 -0.234487,0.184119 0,0.03224 0.105518,0.0021 0.234487,-0.06687 0.128968,-0.06902 0.234489,-0.151873 0.234489,-0.184116 z m 1.113817,-0.699452 c 0.386905,-0.27255 0.808982,-0.616185 0.93795,-0.763632 0.128969,-0.14745 -0.05569,-0.03425 -0.410352,0.251563 -0.354664,0.285811 -0.84269,0.641913 -1.084506,0.791342 -0.241816,0.149429 -0.439666,0.296878 -0.439666,0.327668 0,0.07756 0.183668,-0.0343 0.996574,-0.606941 z m 1.714992,-1.431999 c 0.145836,-0.185957 0.14169,-0.190103 -0.04427,-0.04427 -0.195299,0.153165 -0.257408,0.249444 -0.160911,0.249444 0.02434,0 0.116675,-0.09233 0.205176,-0.205176 z m 0.981617,-0.967264 c 0.317574,-0.322421 0.551027,-0.586219 0.518785,-0.586219 -0.03224,0 -0.318455,0.263798 -0.636027,0.586219 -0.317574,0.322421 -0.551026,0.586222 -0.518784,0.586222 0.03224,0 0.318455,-0.263801 0.636026,-0.586222 z M 9.7894921,34.142341 C 9.8157201,34.11612 9.4223617,33.501435 8.9153611,32.776395 7.8844701,31.302158 6.8729984,29.401883 6.388677,28.029457 6.2117015,27.527959 6.021509,27.089588 5.9660272,27.055298 5.7624459,26.929479 4.3831251,27.78865 3.6911702,28.472293 2.8433142,29.309967 2.4649999,30.05293 2.4649999,30.88034 c 0,0.740574 0.1979473,1.129845 0.8796952,1.729941 0.6326736,0.556903 1.6340823,0.981255 2.9307331,1.241917 1.4315912,0.287788 3.3574111,0.446794 3.5140639,0.290143 z M 34.814757,32.873558 c 0.506288,-0.690423 1.326552,-2.026354 1.154639,-1.880518 -0.03801,0.03224 -0.381699,0.534976 -0.76376,1.117189 -0.382061,0.582213 -0.873514,1.268093 -1.092115,1.524172 -0.218602,0.256083 -0.276754,0.362159 -0.129225,0.235728 0.147529,-0.126428 0.521237,-0.574886 0.830461,-0.996571 z m 1.598273,-2.59564 c 0.166632,-0.328834 0.283308,-0.617537 0.259281,-0.641567 -0.02402,-0.02402 -0.185282,0.245018 -0.358341,0.597879 -0.173058,0.352862 -0.289734,0.641565 -0.259281,0.641565 0.03046,0 0.191709,-0.269044 0.358341,-0.597877 z m 0.859216,-2.215977 c -0.0021,-0.09673 -0.07475,0.0088 -0.16166,0.234486 -0.206142,0.535303 -0.2031,0.745914 0.0042,0.293111 0.08858,-0.193453 0.159422,-0.430871 0.157425,-0.527597 z M 9.2279959,27.453738 c -0.037427,-0.09353 -0.065209,-0.06575 -0.070835,0.07083 -0.00509,0.123595 0.022619,0.192842 0.061579,0.153883 0.038959,-0.03896 0.043124,-0.140082 0.00926,-0.224717 z M 37.366544,27.336494 c -0.03743,-0.09353 -0.06521,-0.06575 -0.07083,0.07083 -0.0051,0.123595 0.02262,0.192842 0.06158,0.153883 0.03896,-0.03896 0.04312,-0.140082 0.0093,-0.224717 z m -0.09036,-1.409747 c -0.142486,-0.343991 -0.94878,-1.030839 -1.209069,-1.029955 -0.07093,2.46e-4 0.03156,0.09833 0.227763,0.217979 0.545211,0.332479 0.989571,0.925255 1.007544,1.344061 0.01262,0.294332 0.02689,0.314619 0.06823,0.09712 0.02875,-0.151213 -0.01376,-0.434353 -0.09447,-0.629202 z M 9.909024,25.29656 c 0.158335,-0.103746 0.513505,-0.259084 0.789266,-0.345196 0.275762,-0.08611 0.393854,-0.160097 0.262428,-0.164411 -0.614499,-0.02017 -1.8275112,0.949992 -1.8076315,1.445734 0.00285,0.07107 0.1093283,-0.06804 0.2366186,-0.309142 0.12729,-0.241096 0.3609837,-0.52324 0.5193189,-0.626985 z m 8.298207,-0.242623 c -0.07938,-0.03212 -0.237657,-0.03407 -0.351732,-0.0043 -0.114075,0.02973 -0.04913,0.056 0.144324,0.05839 0.193453,0.0024 0.286786,-0.02193 0.207408,-0.05405 z m 10.373858,-0.0039 c -0.112848,-0.02949 -0.297506,-0.02949 -0.410353,0 -0.112848,0.02949 -0.02053,0.05362 0.205176,0.05362 0.225695,0 0.318024,-0.02413 0.205177,-0.05362 z M 16.858062,24.933042 c -0.112096,-0.02935 -0.323135,-0.03041 -0.468976,-0.0024 -0.145841,0.02804 -0.05413,0.05205 0.20381,0.05336 0.257936,0.0013 0.377261,-0.02164 0.265166,-0.05099 z m 13.073563,0.0037 c -0.07938,-0.03212 -0.237657,-0.03407 -0.351732,-0.0043 -0.114075,0.02973 -0.04913,0.056 0.144325,0.05839 0.193453,0.0024 0.286785,-0.02193 0.207407,-0.05405 z M 15.333891,24.815798 c -0.112096,-0.02934 -0.323136,-0.03041 -0.468976,-0.0024 -0.145841,0.02804 -0.05413,0.05205 0.203809,0.05335 0.257937,0.0013 0.377262,-0.02164 0.265167,-0.05099 z m 16.178297,-0.0034 c -0.177332,-0.02686 -0.467511,-0.02686 -0.64484,0 -0.177332,0.02686 -0.03224,0.04884 0.322419,0.04884 0.354663,0 0.499752,-0.02198 0.322421,-0.04884 z m 4.218339,0.01314 c -0.03896,-0.03896 -0.140081,-0.04312 -0.224716,-0.0093 -0.09353,0.03743 -0.06575,0.06521 0.07083,0.07083 0.123595,0.0051 0.192842,-0.02262 0.153882,-0.06158 z M 33.97431,24.69829 c -0.112847,-0.02949 -0.297505,-0.02949 -0.410353,0 -0.112847,0.02949 -0.0205,0.05362 0.205177,0.05362 0.225695,0 0.318024,-0.02413 0.205176,-0.05362 z"
         style="fill:#f5ecdb;fill-opacity:1;stroke:none;stroke-width:0.560427;stroke-opacity:1" />
      <path
         id="path1132"
         d="m 21.059548,41.356628 c -2.735211,-0.493942 -5.550451,-1.937961 -8.266584,-4.240175 l -1.103319,-0.93518 -2.5898649,-0.0601 C 6.8113428,36.068073 6.3734593,36.025673 5.3374766,35.756937 2.9051951,35.125996 1.0499616,33.875927 0.37495066,32.413155 -0.06685949,31.455736 -0.06153129,30.25947 0.38882776,29.297538 1.1044804,27.76896 2.5479597,26.401902 4.6691845,25.243796 5.2946819,24.902299 6.0702514,24.426843 6.392672,24.187227 c 0.8510926,-0.632512 1.2237386,-0.793428 2.1870688,-0.944421 0.9553162,-0.149738 2.9236842,-0.08924 6.0653142,0.186421 4.109808,0.360612 5.326865,0.421872 8.337636,0.419669 3.060354,-0.0022 4.801486,-0.08797 8.500186,-0.41854 4.663533,-0.416801 6.619288,-0.347071 7.727051,0.275496 0.845349,0.47509 1.12046,0.997118 1.122939,2.130811 0.0026,1.153615 -0.322652,2.306672 -1.106982,3.925316 -1.131756,2.335631 -2.550417,4.273296 -4.661935,6.36746 -4.202684,4.168151 -9.027409,6.035672 -13.504402,5.227189 z m -1.007956,-2.156513 c -0.09673,-0.06251 -0.228625,-0.113651 -0.29311,-0.113651 -0.06448,0 -0.0381,0.05114 0.05862,0.113651 0.09673,0.06251 0.228625,0.113652 0.293109,0.113652 0.06448,0 0.03811,-0.05114 -0.05862,-0.113652 z m -0.703463,-0.264826 c -0.161211,-0.07244 -0.701999,-0.333262 -1.201751,-0.579594 -0.499752,-0.246335 -0.908641,-0.419155 -0.908641,-0.384051 0,0.08658 2.1196,1.113272 2.277748,1.103292 0.06916,-0.0044 -0.0061,-0.06721 -0.167356,-0.139647 z m 8.558807,-0.20415 c 0.09673,-0.06251 0.123108,-0.113652 0.05862,-0.113652 -0.06448,0 -0.196384,0.05114 -0.29311,0.113652 -0.09673,0.06251 -0.123106,0.113654 -0.05862,0.113654 0.06448,0 0.196384,-0.05114 0.293108,-0.113654 z M 17.120493,37.867391 c 0,-0.02368 -0.211039,-0.1827 -0.468975,-0.353396 -0.257937,-0.170694 -0.468976,-0.285129 -0.468976,-0.254294 0,0.05149 0.834812,0.650732 0.906545,0.650732 0.01728,0 0.03141,-0.01937 0.03141,-0.04304 z m 13.19785,-0.555969 c 0.04377,-0.07083 -0.05881,-0.03809 -0.227957,0.07274 -0.169151,0.110832 -0.307547,0.223679 -0.307547,0.250772 0,0.08481 0.451856,-0.188163 0.535504,-0.323508 z M 15.596322,36.764525 c -0.290179,-0.237548 -1.081575,-0.959773 -1.758659,-1.604946 -0.928349,-0.884595 -1.029253,-0.961276 -0.410354,-0.311849 0.826135,0.866886 2.496358,2.363767 2.626569,2.353969 0.03852,-0.0029 -0.167377,-0.199625 -0.457556,-0.437174 z m 15.139425,0.237265 c 0.145836,-0.185954 0.141689,-0.1901 -0.04427,-0.04426 -0.195297,0.153164 -0.257405,0.249444 -0.160909,0.249444 0.02434,0 0.116676,-0.09233 0.205177,-0.20518 z m 0.468976,-0.351731 c 0.145836,-0.185955 0.14169,-0.190101 -0.04427,-0.04427 -0.1953,0.153165 -0.257405,0.249444 -0.160909,0.249444 0.02434,0 0.116673,-0.09233 0.205176,-0.205179 z m 2.227636,-2.110391 c 0.145836,-0.185955 0.14169,-0.190101 -0.04427,-0.04427 -0.112848,0.0885 -0.205177,0.18083 -0.205177,0.205177 0,0.0965 0.09628,0.03439 0.249444,-0.160912 z M 8.8575041,32.700443 C 7.7392025,31.052047 7.0720513,29.799901 6.448551,28.179185 6.1310906,27.353984 5.9688403,27.069713 5.8224002,27.082138 c -0.3493941,0.02964 -1.5001879,0.785964 -2.1462364,1.410539 -1.0473545,1.012542 -1.4571608,2.272014 -1.0532212,3.236902 0.1726231,0.412345 0.9262223,1.146529 1.4471577,1.409874 1.0718008,0.541825 3.2240582,0.98719 4.8703247,1.007817 l 0.9063376,0.01135 z m 3.2611859,0.520232 c -0.300459,-0.386905 -0.570663,-0.703464 -0.600454,-0.703464 -0.06338,0 0.009,0.102056 0.60311,0.850019 0.243283,0.306298 0.465125,0.556909 0.492983,0.556909 0.02786,0 -0.19518,-0.316558 -0.495639,-0.703464 z m 22.134375,0.381042 c 0.145838,-0.185954 0.141689,-0.190103 -0.04427,-0.04427 -0.1953,0.153165 -0.257408,0.249444 -0.160912,0.249444 0.02434,0 0.116676,-0.09233 0.205177,-0.205177 z m 0.692623,-0.914622 c 0.496224,-0.721235 0.350475,-0.658175 -0.177572,0.07683 -0.236469,0.329146 -0.373999,0.563872 -0.305626,0.521615 0.06838,-0.04226 0.285816,-0.31156 0.483198,-0.598448 z M 10.837726,31.316961 C 10.485744,30.721307 10.030763,29.825515 9.8266565,29.326313 9.6225509,28.82711 9.4371597,28.437069 9.4146765,28.459551 c -0.1220227,0.122023 0.9032185,2.262259 1.6488905,3.442129 0.577703,0.914095 0.422716,0.512823 -0.225841,-0.584719 z m 24.924556,0.145055 c 0.06902,-0.128968 0.09911,-0.234489 0.06687,-0.234489 -0.03224,0 -0.115094,0.105521 -0.184115,0.234489 -0.06902,0.128969 -0.09912,0.234487 -0.06687,0.234487 0.03224,0 0.115097,-0.105518 0.184118,-0.234487 z m 0.650476,-1.183336 c 0.103137,-0.199445 0.166706,-0.383442 0.141266,-0.408881 -0.02545,-0.02545 -0.133995,0.137742 -0.241236,0.362627 -0.24112,0.505637 -0.157576,0.544293 0.09997,0.04625 z m 0.823923,-4.42726 c -0.160586,-0.31054 -0.472125,-0.591019 -0.995037,-0.895835 -0.09101,-0.05305 0.106836,0.166015 0.439666,0.48682 0.379823,0.366101 0.610206,0.689529 0.618744,0.868634 0.0088,0.185084 0.03191,0.216022 0.0657,0.08805 0.02865,-0.108518 -0.02943,-0.354968 -0.129077,-0.547665 z M 9.6172427,25.570507 c 0.1726128,-0.23579 0.2009244,-0.317679 0.07427,-0.21482 -0.1922542,0.156134 -0.4829518,0.595862 -0.393915,0.595862 0.022384,0 0.1662245,-0.171469 0.319645,-0.381042 z m 0.6475823,-0.534266 c -0.0361,-0.0361 -0.130703,-7.4e-5 -0.210233,0.08005 -0.1149309,0.115792 -0.1014638,0.129259 0.06563,0.06563 0.115629,-0.04403 0.180699,-0.109587 0.144601,-0.145685 z m 7.879111,0.02376 c -0.03896,-0.03896 -0.140083,-0.04312 -0.224718,-0.0093 -0.09353,0.03743 -0.06575,0.06521 0.07083,0.07083 0.123594,0.0051 0.192842,-0.02262 0.153883,-0.06158 z m 10.317468,0 c -0.03896,-0.03896 -0.140083,-0.04312 -0.224718,-0.0093 -0.09353,0.03743 -0.06575,0.06521 0.07083,0.07083 0.123595,0.0051 0.192842,-0.02262 0.153884,-0.06158 z M 10.847942,24.896354 c 0.154615,-0.06644 0.174583,-0.102958 0.05862,-0.107208 -0.09673,-0.0035 -0.255005,0.0447 -0.351732,0.107208 -0.214318,0.138503 -0.0292,0.138503 0.29311,0 z m 5.889066,0.04641 c -0.03896,-0.03896 -0.140083,-0.04312 -0.224717,-0.0093 -0.09353,0.03743 -0.06575,0.06521 0.07083,0.07083 0.123594,0.0051 0.192842,-0.02262 0.153882,-0.06158 z m 13.131324,0 c -0.03896,-0.03896 -0.140084,-0.04312 -0.224719,-0.0093 -0.09353,0.03743 -0.06575,0.06521 0.07083,0.07083 0.123595,0.0051 0.192842,-0.02262 0.153885,-0.06158 z M 15.212837,24.825519 c -0.03896,-0.03896 -0.140083,-0.04312 -0.224718,-0.0093 -0.09353,0.03743 -0.06575,0.06521 0.07084,0.07083 0.123593,0.0051 0.192841,-0.02262 0.153882,-0.06158 z m 16.182109,-0.01 c -0.112848,-0.02949 -0.297508,-0.02949 -0.410356,0 -0.112847,0.02949 -0.0205,0.05362 0.205177,0.05362 0.225694,0 0.318023,-0.02413 0.205179,-0.05362 z"
         style="fill:#f5ecdb;fill-opacity:1;stroke:none;stroke-width:0.560427;stroke-opacity:1" />
      <path
         id="path1134"
         d="m 21.041491,41.368053 c -2.869907,-0.525748 -5.774817,-2.074725 -8.70655,-4.642559 L 11.711549,36.179479 9.1107329,36.122104 C 6.7973051,36.071071 6.3803621,36.03092 5.3374766,35.758767 2.9043298,35.123804 1.0564802,33.879067 0.37082081,32.413154 0.12423732,31.885969 0.06288394,31.579068 0.06226788,30.869715 0.06158129,30.07901 0.10945855,29.887264 0.50987599,29.077075 1.2523394,27.574802 2.7650788,26.254368 5.4750325,24.743107 5.9152502,24.49761 6.530926,24.115819 6.8432013,23.894682 7.1554766,23.673544 7.6303146,23.42655 7.898397,23.345806 c 0.7785152,-0.234482 4.111407,-0.166721 7.463437,0.151741 4.161924,0.395406 10.925729,0.403353 15.241714,0.01791 5.676722,-0.506967 7.391543,-0.471048 8.601257,0.180167 0.842635,0.453608 1.125546,0.990568 1.128062,2.141039 0.0026,1.162682 -0.323969,2.32284 -1.104733,3.925315 -1.127173,2.313459 -2.410254,4.083132 -4.493377,6.197434 -3.11259,3.159175 -6.502934,5.013084 -9.993407,5.464595 -1.176372,0.152173 -2.688611,0.129302 -3.699859,-0.05595 z m -2.054864,-2.564545 c -0.11916,-0.109469 -1.74889,-0.889945 -1.74889,-0.837544 0,0.07074 1.538134,0.868492 1.690268,0.876654 0.05911,0.0032 0.08549,-0.01442 0.05862,-0.03911 z M 27.96866,38.63654 c -0.0361,-0.0361 -0.130701,-7.7e-5 -0.210232,0.08005 -0.11493,0.115792 -0.101463,0.129257 0.06563,0.06563 0.115628,-0.04403 0.1807,-0.109588 0.1446,-0.145685 z M 17.120493,37.865295 c 0,-0.02482 -0.145089,-0.133477 -0.32242,-0.241448 l -0.322421,-0.196308 0.276787,0.241446 c 0.270099,0.235611 0.368054,0.287859 0.368054,0.19631 z m -1.055195,-0.702593 c 0,-0.02434 -0.09233,-0.116676 -0.205177,-0.205176 -0.185956,-0.145836 -0.190103,-0.14169 -0.04427,0.04426 0.153165,0.1953 0.249444,0.257408 0.249444,0.160912 z m -0.468976,-0.347916 c 0,-0.02225 -0.118709,-0.140957 -0.263799,-0.263798 l -0.263799,-0.223348 0.223349,0.263798 c 0.209893,0.247906 0.304249,0.317174 0.304249,0.223348 z m -1.172439,-1.073367 c -0.284789,-0.290179 -0.544179,-0.527598 -0.576421,-0.527598 -0.03224,0 0.174388,0.237419 0.459177,0.527598 0.284789,0.290179 0.544178,0.527597 0.57642,0.527597 0.03224,0 -0.174387,-0.237418 -0.459176,-0.527597 z m -0.820708,-0.802535 c 0,-0.02225 -0.118709,-0.140959 -0.263799,-0.2638 l -0.263799,-0.223348 0.223349,0.263798 c 0.209892,0.247906 0.304249,0.317174 0.304249,0.22335 z M 8.8565567,32.699046 C 7.8204839,31.171858 6.9407193,29.522448 6.4034127,28.099818 6.2286203,27.637018 6.0191425,27.203202 5.9379064,27.135782 c -0.2091198,-0.173554 -1.4803636,0.590696 -2.2455713,1.35 -1.4291084,1.418082 -1.6133809,2.924008 -0.4900331,4.004688 0.9701992,0.933349 3.3435953,1.610265 5.7967449,1.653289 l 0.8477157,0.01487 z m 3.6914233,1.063583 c 0,-0.02434 -0.09233,-0.116676 -0.205177,-0.205179 -0.185956,-0.145836 -0.190103,-0.141687 -0.04427,0.04427 0.153164,0.1953 0.249444,0.257406 0.249444,0.160912 z m -0.351732,-0.465161 c 0,-0.02225 -0.11871,-0.140957 -0.263799,-0.2638 l -0.263799,-0.223348 0.223348,0.2638 c 0.209893,0.247906 0.30425,0.317172 0.30425,0.223348 z m 22.628081,-0.428525 c 0.13775,-0.193452 0.224076,-0.351732 0.191834,-0.351732 -0.03224,0 -0.171326,0.15828 -0.309076,0.351732 -0.13775,0.193453 -0.224076,0.351732 -0.191833,0.351732 0.03224,0 0.171325,-0.158279 0.309075,-0.351732 z M 10.906564,31.462016 c -0.06902,-0.128968 -0.151874,-0.234489 -0.184116,-0.234489 -0.03224,0 -0.0021,0.105521 0.06687,0.234489 0.06902,0.128969 0.151874,0.234487 0.184116,0.234487 0.03224,0 0.0021,-0.105518 -0.06687,-0.234487 z m 24.855718,0 c 0.06902,-0.128968 0.09911,-0.234489 0.06687,-0.234489 -0.03224,0 -0.115094,0.105521 -0.184115,0.234489 -0.06902,0.128969 -0.09912,0.234487 -0.06687,0.234487 0.03224,0 0.115097,-0.105518 0.184118,-0.234487 z M 10.295943,30.351965 c -0.205669,-0.417076 -0.3932908,-0.738974 -0.4169361,-0.715328 -0.052421,0.05242 0.6564721,1.473647 0.7350411,1.473647 0.03071,0 -0.112436,-0.341243 -0.318105,-0.758319 z m 26.14716,-0.241359 c -0.0361,-0.0361 -0.101658,0.02897 -0.145685,0.144603 -0.06363,0.167095 -0.05016,0.180562 0.06563,0.06563 0.08013,-0.07953 0.116149,-0.174136 0.08005,-0.210236 z M 9.7484369,29.155241 c -0.1382123,-0.23768 -0.1715879,-0.161605 -0.05845,0.133228 0.040208,0.104781 0.097804,0.165815 0.1279908,0.135628 0.030187,-0.03019 -0.00111,-0.151172 -0.069541,-0.268856 z M 37.162907,25.75779 c -0.07688,-0.119127 -0.304771,-0.34671 -0.50641,-0.505741 -0.321879,-0.253862 -0.309388,-0.224341 0.102357,0.241918 0.475742,0.538726 0.658495,0.658053 0.404053,0.263823 z M 9.556936,25.644004 c 0.1108314,-0.16915 0.1435627,-0.271731 0.072737,-0.227958 -0.1353458,0.08365 -0.4083229,0.535503 -0.3235111,0.535503 0.027095,0 0.1399431,-0.138395 0.2507741,-0.307545 z m 1.232384,-0.74765 c 0.09673,-0.06251 0.123106,-0.113653 0.05862,-0.113653 -0.06448,0 -0.196383,0.05114 -0.29311,0.113653 -0.09673,0.06251 -0.123106,0.113653 -0.05862,0.113653 0.06448,0 0.196383,-0.05114 0.293109,-0.113653 z m 20.485939,-0.07083 c -0.03896,-0.03896 -0.140084,-0.04312 -0.224719,-0.0093 -0.09353,0.03743 -0.06575,0.06521 0.07083,0.07083 0.123595,0.0051 0.192842,-0.02262 0.153885,-0.06158 z"
         style="fill:#f5ecdb;fill-opacity:1;stroke:none;stroke-width:0.560427;stroke-opacity:1" />
      <path
         id="path1136"
         d="M 20.98384,41.371863 C 18.337201,40.867887 15.49392,39.393312 12.780114,37.117265 L 11.663942,36.18114 9.0869293,36.116759 C 7.4028948,36.074688 6.2458404,35.990402 5.7478303,35.873517 3.1254656,35.258051 1.1952854,34.043611 0.40412404,32.511335 0.12578498,31.972265 0.07321255,31.725732 0.06785237,30.934418 0.06250319,30.144725 0.11323036,29.885988 0.38877607,29.297537 1.1136244,27.749562 2.485979,26.460233 4.8167621,25.137437 5.527991,24.733792 6.2526675,24.284211 6.4271546,24.13837 c 1.314735,-1.098897 2.7480208,-1.19771 9.1228004,-0.628944 4.149109,0.370189 10.929826,0.37147 14.967212,0.0028 3.840712,-0.350684 6.158515,-0.436603 7.231335,-0.268057 1.130847,0.177661 1.966878,0.624026 2.325872,1.241804 0.247597,0.426082 0.267949,0.576208 0.222523,1.641415 -0.03833,0.898661 -0.125339,1.377774 -0.372632,2.051769 -1.928412,5.255837 -7.096267,10.592096 -12.099964,12.494263 -1.966645,0.747622 -4.971091,1.05438 -6.840461,0.698415 z m -2.231701,-2.68524 c -0.11923,-0.108651 -1.279914,-0.656881 -1.279914,-0.604547 0,0.07137 1.071417,0.635992 1.221292,0.643604 0.05911,0.003 0.08549,-0.01458 0.05862,-0.03906 z M 15.596322,36.81097 c 0,-0.02434 -0.09233,-0.116676 -0.205177,-0.205176 -0.185956,-0.145836 -0.190103,-0.14169 -0.04427,0.04427 0.153164,0.195299 0.249443,0.257407 0.249443,0.160911 z m -0.820707,-0.697383 c 0,-0.02101 -0.14509,-0.16609 -0.322421,-0.322419 l -0.322421,-0.284236 0.284236,0.322421 c 0.265662,0.30135 0.360606,0.376187 0.360606,0.284234 z M 9.7341248,34.083823 c 0,-0.04114 -0.4439666,-0.740209 -0.9865923,-1.553483 C 7.6578577,30.897162 7.0837145,29.825216 6.4484173,28.237806 6.1391977,27.465162 5.9653133,27.173903 5.7990412,27.15009 5.2393051,27.06993 3.2502683,28.749167 2.7977694,29.683905 c -1.0450384,2.158762 0.5095036,3.697401 4.3382189,4.293838 1.0812236,0.168434 2.5981366,0.230368 2.5981365,0.10608 z m 1.1724392,-2.621807 c -0.06902,-0.128968 -0.151874,-0.234489 -0.184116,-0.234489 -0.03224,0 -0.0021,0.105521 0.06687,0.234489 0.06902,0.128969 0.151874,0.234487 0.184116,0.234487 0.03224,0 0.0021,-0.105518 -0.06687,-0.234487 z m 24.833075,-0.06172 c -0.0361,-0.0361 -0.101658,0.02897 -0.145685,0.144601 -0.06363,0.167095 -0.05016,0.180562 0.06563,0.06563 0.08013,-0.07953 0.116149,-0.174135 0.08005,-0.210233 z M 10.296708,30.350769 c -0.140293,-0.288764 -0.275187,-0.504915 -0.2997654,-0.480335 -0.05304,0.05304 0.4207024,1.005361 0.5001264,1.005361 0.03009,0 -0.06007,-0.23626 -0.200361,-0.525026 z m 26.989744,-4.434842 c 0,-0.01959 -0.197848,-0.217442 -0.439664,-0.439665 l -0.439666,-0.404042 0.404043,0.439665 c 0.376073,0.40923 0.475287,0.493572 0.475287,0.404042 z"
         style="fill:#f5ecdb;fill-opacity:1;stroke:none;stroke-width:0.560427;stroke-opacity:1" />
      <path
         id="path1138"
         d="m 21.010463,41.368312 c -2.648742,-0.479874 -5.580834,-1.996553 -8.292136,-4.289266 l -1.096572,-0.927272 -2.0283218,-0.0024 C 6.5093882,36.145874 5.1146259,35.889919 3.2253861,34.980845 1.8562683,34.322046 0.91255224,33.495971 0.40412404,32.511277 0.12578498,31.972207 0.07321255,31.725673 0.06785237,30.93436 0.06250319,30.144666 0.11323036,29.88593 0.38877607,29.297478 1.1037771,27.770533 2.4591268,26.48534 4.7103399,25.19961 5.377686,24.81847 6.1874954,24.309538 6.509916,24.068651 c 1.0332744,-0.771981 1.474226,-0.869904 3.869051,-0.859207 1.160715,0.0052 3.455765,0.1223 5.100111,0.260257 5.542354,0.464992 10.323562,0.452767 15.827933,-0.04047 5.778667,-0.517818 7.831606,-0.303691 8.695074,0.90692 0.245546,0.344263 0.274058,0.512484 0.273801,1.615343 -2.64e-4,1.428013 -0.207454,2.16661 -1.117851,3.986295 -2.622463,5.241724 -7.933206,9.944764 -12.56846,11.130261 -1.914235,0.48958 -3.933975,0.59826 -5.579112,0.300207 z m -2.483042,-2.813039 c -0.16121,-0.09215 -0.34587,-0.167555 -0.410354,-0.167555 -0.06448,0 0.01466,0.0754 0.175866,0.167555 0.16121,0.09216 0.34587,0.167558 0.410354,0.167558 0.06448,0 -0.01466,-0.0754 -0.175866,-0.167558 z M 9.7341248,34.096097 c 0,-0.03439 -0.3612714,-0.60156 -0.8028251,-1.260375 C 7.926559,31.336617 7.2535777,30.151249 6.7958695,29.074451 5.9523339,27.089956 5.9608125,27.103966 5.6505258,27.181843 c -0.7830941,0.196544 -2.3764265,1.598735 -2.8390616,2.49848 -1.1163834,2.171168 0.6837093,3.820697 4.7536474,4.356039 0.8423947,0.110805 2.1690132,0.147338 2.1690132,0.05974 z m 0.5646612,-3.748395 c -0.07358,-0.161483 -0.15586,-0.27152 -0.182852,-0.24453 -0.05476,0.05476 0.182956,0.538136 0.264644,0.538136 0.02859,0 -0.0082,-0.132123 -0.08179,-0.293606 z M 37.16921,25.79004 c 0,-0.02435 -0.09233,-0.116677 -0.205177,-0.205177 -0.185957,-0.145837 -0.190103,-0.14169 -0.04427,0.04427 0.153164,0.195298 0.249444,0.257406 0.249444,0.160911 z"
         style="fill:#f5ecdb;fill-opacity:1;stroke:none;stroke-width:0.560427;stroke-opacity:1" />
      <path
         id="path1140"
         d="M 20.755056,41.324333 C 17.972982,40.706976 15.467154,39.389189 12.783549,37.132214 L 11.617777,36.151774 9.5914441,36.15098 C 6.6015619,36.149922 4.8734418,35.832123 3.1098418,34.958868 1.7734104,34.29713 0.92809778,33.513804 0.34833551,32.399866 -0.07044803,31.595229 -0.05278813,30.240435 0.38877607,29.297436 1.0894778,27.801028 2.3891352,26.55002 4.5542309,25.287905 c 0.6242378,-0.363892 1.4638242,-0.893079 1.865748,-1.175972 1.2229616,-0.860777 1.4278701,-0.907319 3.9589881,-0.899214 1.26232,0.004 3.5994,0.123973 5.393222,0.276763 2.446903,0.208416 4.043977,0.271305 7.034637,0.277005 3.900002,0.0074 4.853325,-0.03142 8.382941,-0.341667 3.076572,-0.270425 5.687766,-0.341899 6.611231,-0.180964 1.006231,0.175359 1.843431,0.590803 2.201087,1.092249 0.245547,0.344264 0.274058,0.512484 0.273802,1.615344 -2.65e-4,1.411079 -0.208283,2.166956 -1.072288,3.897567 -1.134128,2.271678 -2.50163,4.149243 -4.463219,6.127966 -2.61729,2.640145 -5.526754,4.422524 -8.43814,5.169318 -1.611994,0.413491 -4.122735,0.494028 -5.547184,0.177933 z m -2.110391,-2.64769 c 0,-0.02998 -0.118709,-0.112022 -0.263799,-0.182333 -0.25332,-0.122758 -0.254758,-0.120594 -0.03621,0.0545 0.239208,0.191645 0.300012,0.217553 0.300012,0.127836 z M 9.7341248,34.096097 c 0,-0.03439 -0.3604223,-0.60156 -0.8009384,-1.260375 C 7.759527,31.080458 7.1930057,30.064151 6.6082093,28.664844 5.9193436,27.016518 5.918979,27.016203 5.171609,27.422973 c -1.3844276,0.7535 -2.5086583,2.12781 -2.6632495,3.255675 -0.233298,1.702097 1.8772266,3.014057 5.4671061,3.398504 0.6882654,0.07371 1.7586592,0.08524 1.7586592,0.01895 z"
         style="fill:#f4ecd3;fill-opacity:1;stroke:none;stroke-width:0.560427;stroke-opacity:1" />
      <path
         sodipodi:nodetypes="ssssssssssssss"
         d="m 10.860971,22.617233 c -2.7575778,-0.03413 -4.939029,1.013399 -4.939029,3.158262 0,4.575704 7.725005,15.788698 17.254243,15.788698 9.529238,0 16.659615,-11.086318 16.744401,-15.661237 0.0424,-2.287855 -2.049657,-3.065652 -5.373325,-3.271486 -3.323668,-0.205833 -6.731799,-0.222085 -11.615842,-0.222085 -5.062408,0 -8.945193,0.246521 -12.070448,0.207851 z m 1.425956,2.034815 c 2.574551,-0.04607 6.480818,0.666625 10.886674,0.666625 7.832633,0 14.278716,-2.251569 14.278716,1.509469 0,3.761039 -6.349964,12.977503 -14.182598,12.977503 -7.832632,0 -14.1820792,-9.216464 -14.1820792,-12.977503 0,-1.645454 1.1968592,-2.140262 3.1992872,-2.176094 z"
         style="fill:#f5ecdb;fill-opacity:1;stroke:none;stroke-width:2.04672;stroke-opacity:1"
         id="path890" />
      <path
         id="path1116"
         d="M 21.722319,39.591442 C 17.251391,38.940081 12.477047,35.083996 10.052959,30.166479 8.6909803,27.403561 8.6422097,25.801278 9.8986546,25.097061 10.16483,24.947874 10.766867,24.778767 11.293922,24.705143 c 0.986729,-0.137835 1.341626,-0.12076 5.675453,0.273059 3.9194,0.356159 8.449183,0.349073 12.193372,-0.01907 3.545684,-0.34863 5.808263,-0.378722 6.648128,-0.08842 0.718936,0.248504 1.277516,0.822772 1.391552,1.430634 0.39424,2.101485 -2.150843,6.683653 -5.275892,9.498711 -3.242456,2.92082 -6.886451,4.274751 -10.204216,3.791389 z"
         style="fill:#f5ecdb;fill-opacity:1;stroke:none;stroke-width:0.560427;stroke-opacity:1" />
      <path
         id="path1245"
         style="fill:#e3af77;fill-opacity:1;stroke:none;stroke-width:0.560427;stroke-opacity:1"
         d="m 4.739643,35.605552 c 1.297277,0.38934 2.767906,0.544968 4.851901,0.545704 l 2.026233,5.18e-4 1.16582,0.980818 c 2.683605,2.256976 5.189533,3.574635 7.971607,4.191993 1.424448,0.316095 3.934955,0.235207 5.546949,-0.178284 2.911385,-0.746795 5.820955,-2.529049 8.438245,-5.169194 0.123432,-0.12451 0.23775,-0.247722 0.356567,-0.371555 z m 13.446209,2.804481 c 0.0047,-0.0071 0.06816,0.02285 0.19482,0.08423 0.145089,0.07031 0.264067,0.152445 0.264067,0.182419 0,0.08972 -0.06103,0.064 -0.30024,-0.127643 -0.109273,-0.08754 -0.163353,-0.131926 -0.158647,-0.139009 z" />
      <path
         id="path1300"
         d="M 22.186629,41.492249 C 21.423563,41.445989 21.016642,41.38541 20.346681,41.218328 17.92662,40.614793 15.680529,39.448726 13.356052,37.589115 13.182903,37.450593 12.723635,37.070312 12.335455,36.744044 l -0.70578,-0.593214 h -0.400009 -0.400009 v -0.267595 -0.267591 h 8.468539 8.468538 v 2.530882 2.530883 l -0.303008,0.106328 c -1.224258,0.429596 -2.236931,0.623139 -3.679408,0.70321 -0.246041,0.01365 -1.396863,0.01749 -1.597689,0.0053 z m -3.536752,-2.802404 c 0.0062,-0.04343 -0.07718,-0.10673 -0.264646,-0.200943 -0.248873,-0.125073 -0.268227,-0.111421 -0.06811,0.04805 0.253145,0.201729 0.321349,0.233067 0.332757,0.152892 z"
         style="fill:#e3af77;fill-opacity:1;stroke:none;stroke-width:0.0752409;stroke-opacity:1" />
      <path
         id="path1302"
         d="m 18.516508,38.64725 c -0.09429,-0.04519 -0.155263,-0.08808 -0.125208,-0.08808 0.0268,0 0.245783,0.1114 0.245783,0.125031 0,0.02199 0.0067,0.02408 -0.120575,-0.03695 z"
         style="fill:#e3af77;fill-opacity:1;stroke:none;stroke-width:0.0752409;stroke-opacity:1" />
      <path
         id="path1304"
         d="M 22.170888,41.491855 C 21.27295,41.445399 20.510842,41.298402 19.447733,40.966614 17.584903,40.38524 15.789057,39.434206 13.969942,38.06572 13.448557,37.673494 13.117484,37.405166 12.190408,36.623455 L 11.629894,36.15083 h -0.400119 -0.400118 v -0.267595 -0.267591 h 8.468539 8.468538 v 2.53162 2.531621 L 27.46834,40.78339 c -0.515284,0.180465 -1.087135,0.344353 -1.5479,0.443614 -0.561088,0.120872 -1.372419,0.219898 -2.128252,0.259757 -0.267479,0.0141 -1.37959,0.0176 -1.6213,0.0051 z m -3.521053,-2.794993 c 0.0079,-0.04122 -0.07753,-0.10959 -0.246527,-0.197199 -0.274176,-0.142137 -0.292023,-0.127624 -0.06442,0.05238 0.224729,0.177726 0.298031,0.211868 0.310943,0.144822 z"
         style="fill:#e3af77;fill-opacity:1;stroke:none;stroke-width:0.0752409;stroke-opacity:1" />
      <path
         id="path1306"
         d="M 22.170888,41.491855 C 21.27295,41.445399 20.510842,41.298402 19.447733,40.966614 17.584903,40.38524 15.789057,39.434206 13.969942,38.06572 13.448557,37.673494 13.117484,37.405166 12.190408,36.623455 L 11.629894,36.15083 h -0.400119 -0.400118 v -0.267595 -0.267591 h 8.468539 8.468538 v 2.53162 2.531621 L 27.46834,40.78339 c -0.515284,0.180465 -1.087135,0.344353 -1.5479,0.443614 -0.561088,0.120872 -1.372419,0.219898 -2.128252,0.259757 -0.267479,0.0141 -1.37959,0.0176 -1.6213,0.0051 z m -3.521053,-2.794993 c 0.0079,-0.04122 -0.07753,-0.10959 -0.246527,-0.197199 -0.274176,-0.142137 -0.292023,-0.127624 -0.06442,0.05238 0.224729,0.177726 0.298031,0.211868 0.310943,0.144822 z"
         style="fill:#e3af77;fill-opacity:1;stroke:none;stroke-width:0.0752409;stroke-opacity:1" />
      <path
         id="path1308"
         d="M 22.170888,41.491855 C 21.27295,41.445399 20.510842,41.298402 19.447733,40.966614 17.584903,40.38524 15.789057,39.434206 13.969942,38.06572 13.448557,37.673494 13.117484,37.405166 12.190408,36.623455 L 11.629894,36.15083 h -0.400119 -0.400118 v -0.267595 -0.267591 h 8.468539 8.468538 v 2.53162 2.531621 L 27.46834,40.78339 c -0.515284,0.180465 -1.087135,0.344353 -1.5479,0.443614 -0.561088,0.120872 -1.372419,0.219898 -2.128252,0.259757 -0.267479,0.0141 -1.37959,0.0176 -1.6213,0.0051 z m -3.521053,-2.794993 c 0.0079,-0.04122 -0.07753,-0.10959 -0.246527,-0.197199 -0.274176,-0.142137 -0.292023,-0.127624 -0.06442,0.05238 0.224729,0.177726 0.298031,0.211868 0.310943,0.144822 z"
         style="fill:#e3af77;fill-opacity:1;stroke:none;stroke-width:0.0752409;stroke-opacity:1" />
      <path
         id="path1310"
         d="M 22.170888,41.491855 C 21.27295,41.445399 20.510842,41.298402 19.447733,40.966614 17.584903,40.38524 15.789057,39.434206 13.969942,38.06572 13.448557,37.673494 13.117484,37.405166 12.190408,36.623455 L 11.629894,36.15083 h -0.400119 -0.400118 v -0.267595 -0.267591 h 8.468539 8.468538 v 2.53162 2.531621 L 27.46834,40.78339 c -0.515284,0.180465 -1.087135,0.344353 -1.5479,0.443614 -0.561088,0.120872 -1.372419,0.219898 -2.128252,0.259757 -0.267479,0.0141 -1.37959,0.0176 -1.6213,0.0051 z m -3.521053,-2.794993 c 0.0079,-0.04122 -0.07753,-0.10959 -0.246527,-0.197199 -0.274176,-0.142137 -0.292023,-0.127624 -0.06442,0.05238 0.224729,0.177726 0.298031,0.211868 0.310943,0.144822 z"
         style="fill:#e3af77;fill-opacity:1;stroke:none;stroke-width:0.0752409;stroke-opacity:1" />
      <path
         id="path1312"
         d="M 22.170888,41.491855 C 21.27295,41.445399 20.510842,41.298402 19.447733,40.966614 17.584903,40.38524 15.789057,39.434206 13.969942,38.06572 13.448557,37.673494 13.117484,37.405166 12.190408,36.623455 L 11.629894,36.15083 h -0.400119 -0.400118 v -0.267595 -0.267591 h 8.468539 8.468538 v 2.53162 2.531621 L 27.46834,40.78339 c -0.515284,0.180465 -1.087135,0.344353 -1.5479,0.443614 -0.561088,0.120872 -1.372419,0.219898 -2.128252,0.259757 -0.267479,0.0141 -1.37959,0.0176 -1.6213,0.0051 z m -3.521053,-2.794993 c 0.0079,-0.04122 -0.07753,-0.10959 -0.246527,-0.197199 -0.274176,-0.142137 -0.292023,-0.127624 -0.06442,0.05238 0.224729,0.177726 0.298031,0.211868 0.310943,0.144822 z"
         style="fill:#e3af77;fill-opacity:1;stroke:none;stroke-width:0.0752409;stroke-opacity:1" />
      <path
         id="path1314"
         d="m 22.00561,41.485941 c -0.536504,-0.03984 -0.951725,-0.09995 -1.40925,-0.204023 -1.044529,-0.237596 -2.122741,-0.612116 -3.17279,-1.102079 -0.13338,-0.06224 -0.261988,-0.126995 -0.285796,-0.14391 -0.02381,-0.01691 -0.04329,-0.02654 -0.04329,-0.02138 0,0.01119 -0.450499,-0.221515 -0.716206,-0.369959 -0.40885,-0.228415 -0.931916,-0.543158 -0.999438,-0.601385 -0.01757,-0.01516 -0.03644,-0.02755 -0.04194,-0.02755 -0.02188,0 -0.60622,-0.390763 -0.63108,-0.422021 -0.01082,-0.0136 -0.01968,-0.0186 -0.01968,-0.01111 0,0.0075 -0.01594,-5.29e-4 -0.03542,-0.01762 -0.01948,-0.0172 -0.05073,-0.04144 -0.06944,-0.0539 -0.277962,-0.1851 -0.930648,-0.6761 -1.325856,-0.997408 -0.28444,-0.231251 -0.978983,-0.809215 -1.024849,-0.852826 -0.02164,-0.02059 -0.166852,-0.143674 -0.322686,-0.273545 l -0.283334,-0.236127 -0.397455,-1.27e-4 -0.397454,-1.3e-4 v -0.267594 -0.267592 h 8.468588 8.468588 l -0.004,2.530118 -0.004,2.530118 -0.0449,0.02151 c -0.02469,0.01183 -0.05302,0.02326 -0.06296,0.02537 -0.0099,0.0021 -0.02869,0.0083 -0.04168,0.01373 -0.02892,0.01209 -0.297818,0.10431 -0.330558,0.113371 -0.01299,0.0036 -0.08736,0.02819 -0.165277,0.05465 -0.305535,0.103783 -0.8106,0.240912 -1.212041,0.329079 -0.150253,0.033 -0.483218,0.08982 -0.700465,0.119544 -0.03896,0.0053 -0.08854,0.01243 -0.110185,0.01577 -0.251761,0.03889 -0.700137,0.08243 -1.133336,0.110056 -0.39599,0.02524 -1.645535,0.0297 -1.951857,0.007 z m -3.363224,-2.806565 c -0.02066,-0.03663 -0.05795,-0.07298 -0.07464,-0.07274 -0.0095,1.27e-4 -0.0066,0.0078 0.0064,0.01701 0.0179,0.01273 0.01219,0.01429 -0.02361,0.0065 -0.02597,-0.0057 -0.06139,-0.02318 -0.0787,-0.03892 -0.01731,-0.01574 -0.07575,-0.05073 -0.129862,-0.07776 -0.100168,-0.05005 -0.126813,-0.0742 -0.06296,-0.05706 0.02792,0.0075 0.02605,0.0042 -0.0088,-0.01569 -0.14476,-0.08242 0.01428,0.07928 0.209509,0.213019 0.0303,0.02077 0.05863,0.04257 0.06296,0.04848 0.02673,0.03648 0.121026,0.01492 0.09975,-0.02281 z m -0.131229,-0.111784 c 0,-0.004 -0.01594,-0.01503 -0.03542,-0.02447 -0.03401,-0.01648 -0.0342,-0.01619 -0.0049,0.0073 0.03212,0.02572 0.04028,0.02921 0.04028,0.01717 z m -0.08657,-0.05564 c -0.0053,-0.0087 -0.01816,-0.01564 -0.02848,-0.0155 -0.01126,1.43e-4 -0.0093,0.0063 0.0049,0.0155 0.03024,0.01955 0.03569,0.01955 0.02361,0 z"
         style="fill:#e3af77;fill-opacity:1;stroke:none;stroke-width:0.0752409;stroke-opacity:1" />
      <path
         id="path1316"
         d="M 22.084314,41.491788 C 21.514013,41.458295 20.948872,41.371295 20.368326,41.22762 17.93673,40.625844 15.659329,39.442784 13.32457,37.568544 13.039108,37.339388 12.541677,36.925273 11.948547,36.422993 L 11.627155,36.15083 h -0.398749 -0.398749 v -0.267595 -0.267591 h 8.468539 8.468538 v 2.532777 2.532777 l -0.137731,0.05007 c -0.481896,0.175184 -1.157428,0.374833 -1.617365,0.478005 -0.590358,0.132429 -1.390803,0.234307 -2.180098,0.277476 -0.260624,0.01426 -1.528046,0.01791 -1.747226,0.005 z m -3.440826,-2.810629 c -0.01921,-0.03376 -0.05796,-0.07477 -0.07065,-0.07477 -0.02791,0 -0.02149,0.05644 0.0084,0.07421 0.04259,0.02529 0.07646,0.02559 0.06222,5.29e-4 z m -0.163813,-0.05957 c -0.0204,-0.01365 -0.01933,-0.01926 0.0079,-0.04123 0.02371,-0.01916 0.02495,-0.02318 0.005,-0.01635 -0.02958,0.01016 -0.206384,-0.07912 -0.194568,-0.09824 0.0041,-0.0067 -0.01029,-0.02029 -0.03207,-0.03022 -0.04719,-0.02151 -0.05386,-0.02212 -0.05386,-0.005 0,0.02185 0.237663,0.207372 0.265319,0.207116 0.02252,-2.09e-4 0.02281,-0.0024 0.0023,-0.01603 z"
         style="fill:#e3af77;fill-opacity:1;stroke:none;stroke-width:0.0752409;stroke-opacity:1" />
      <path
         id="path1318"
         d="M 22.076443,41.491825 C 21.27511,41.438946 20.613685,41.31565 19.723197,41.053157 17.417443,40.373474 15.29533,39.193128 13.033366,37.332184 12.855888,37.186171 12.466487,36.860633 12.16803,36.608768 L 11.625379,36.15083 h -0.397861 -0.397861 v -0.267595 -0.267591 h 8.468539 8.468538 v 2.534264 c 0,1.393846 -0.0021,2.534266 -0.0046,2.534266 -0.0026,0 -0.103457,0.03581 -0.224306,0.07958 -0.526584,0.190717 -1.304314,0.408639 -1.790199,0.501624 -0.526509,0.100756 -1.265683,0.186894 -1.900363,0.221448 -0.261593,0.01423 -1.574615,0.01794 -1.770838,0.005 z m -3.43936,-2.812161 c 0,-0.0315 -0.05797,-0.07822 -0.0801,-0.06454 -0.01398,0.0087 -0.01133,0.01752 0.0099,0.03303 0.02136,0.01561 0.02302,0.02127 0.0063,0.02146 -0.01913,2.04e-4 -0.01899,0.0026 9.26e-4,0.0155 0.03371,0.02178 0.06296,0.01926 0.06296,-0.0054 z m -0.154635,-0.05549 c -0.01665,-0.01056 -0.01507,-0.01902 0.0079,-0.04217 0.02553,-0.02574 0.02573,-0.02782 0.0018,-0.01879 -0.03118,0.0118 -0.160405,-0.05472 -0.2124,-0.109328 -0.03506,-0.03682 -0.06765,-0.04779 -0.06765,-0.02278 0,0.02106 0.240439,0.206762 0.267366,0.206489 0.01892,-1.93e-4 0.01954,-0.003 0.003,-0.01344 z"
         style="fill:#e3af77;fill-opacity:1;stroke:none;stroke-width:0.0752409;stroke-opacity:1" />
      <path
         id="path1320"
         d="m 21.966258,41.486282 c -0.735182,-0.05811 -1.327981,-0.169754 -2.132875,-0.401679 -1.710398,-0.49284 -3.246933,-1.220394 -4.863901,-2.303069 -0.811867,-0.543602 -1.512984,-1.084289 -2.644944,-2.039718 -0.08252,-0.06965 -0.234224,-0.197466 -0.337129,-0.284041 -0.102905,-0.08657 -0.225973,-0.191053 -0.273485,-0.232177 l -0.08639,-0.07477 h -0.398941 -0.39894 v -0.267593 -0.267591 h 8.468539 8.468538 v 2.532581 c 0,2.39731 -0.0016,2.533166 -0.02754,2.543545 -0.136793,0.05445 -0.577541,0.201835 -0.846066,0.282919 -0.897391,0.270981 -1.541954,0.389449 -2.668063,0.490379 -0.319263,0.02861 -1.969149,0.04411 -2.258802,0.02122 z m -3.329175,-2.806618 c 0,-0.0315 -0.05797,-0.07822 -0.0801,-0.06454 -0.01398,0.0087 -0.01133,0.01752 0.0099,0.03303 0.01595,0.01167 0.02369,0.02119 0.0172,0.02119 -0.0065,0 -0.0074,0.0071 -0.0021,0.01574 0.01432,0.02318 0.05509,0.01916 0.05509,-0.0054 z m -0.154635,-0.05549 c -0.01665,-0.01056 -0.01507,-0.01902 0.0079,-0.04217 0.02553,-0.02574 0.02573,-0.02782 0.0018,-0.01879 -0.03118,0.0118 -0.160405,-0.05472 -0.2124,-0.109328 -0.03437,-0.0361 -0.07511,-0.04981 -0.06503,-0.02188 0.0096,0.0267 0.240141,0.205848 0.26453,0.205605 0.01904,-1.9e-4 0.01971,-0.003 0.0032,-0.01344 z"
         style="fill:#e3af77;fill-opacity:1;stroke:none;stroke-width:0.0752409;stroke-opacity:1" />
      <path
         id="path1322"
         d="M 21.974129,41.486764 C 21.274207,41.431304 20.696627,41.326876 19.966285,41.123737 17.670709,40.485242 15.539314,39.346219 13.340311,37.582802 12.99864,37.30881 12.285137,36.714318 11.806551,36.30487 l -0.180052,-0.15404 h -0.398421 -0.398421 v -0.267595 -0.267591 h 8.468587 8.468588 l -0.004,2.536216 -0.004,2.536217 -0.220372,0.07787 c -0.339293,0.119894 -0.888796,0.286256 -1.232162,0.373036 -0.62553,0.158097 -1.21489,0.250471 -2.081272,0.326208 -0.330448,0.02889 -1.961347,0.04452 -2.250931,0.02156 z m -3.337046,-2.808647 c 0,-0.03014 -0.06848,-0.07878 -0.07661,-0.05441 -0.0033,0.0098 0.0038,0.02397 0.01566,0.03148 0.01188,0.0075 0.01586,0.01378 0.0089,0.01392 -0.007,1.27e-4 -0.0084,0.0073 -0.003,0.01598 0.01478,0.02392 0.05509,0.01879 0.05509,-0.007 z m -0.154635,-0.05394 c -0.01665,-0.01056 -0.01507,-0.01902 0.0079,-0.04217 0.02553,-0.02574 0.02573,-0.02782 0.0018,-0.01879 -0.03118,0.0118 -0.160405,-0.05472 -0.2124,-0.109328 -0.04838,-0.05082 -0.08182,-0.04587 -0.03498,0.0052 0.04996,0.05444 0.217604,0.178853 0.240587,0.178546 0.01121,-1.59e-4 0.01013,-0.0052 -0.0029,-0.01344 z"
         style="fill:#e3af77;fill-opacity:1;stroke:none;stroke-width:0.0752409;stroke-opacity:1" />
      <path
         id="path1324"
         d="m 22.060703,41.493199 c -0.03463,-0.0033 -0.155047,-0.01349 -0.267594,-0.02278 -0.781982,-0.06444 -1.651218,-0.262313 -2.683802,-0.610939 -1.740515,-0.587637 -3.401278,-1.486553 -5.107883,-2.764729 -0.535703,-0.401217 -1.135291,-0.889196 -2.125005,-1.729449 l -0.251853,-0.213821 -0.397455,-2.64e-4 -0.397454,-2.65e-4 v -0.267594 -0.267592 h 8.468587 8.468588 l -0.004,2.536675 -0.004,2.536674 -0.291206,0.100904 c -1.142918,0.396034 -1.966142,0.565203 -3.321304,0.682517 -0.184899,0.01601 -1.949133,0.03359 -2.085653,0.0208 z m -3.42362,-2.812826 c 0,-0.0267 -0.03205,-0.05824 -0.05917,-0.05824 -0.01328,0 -0.01666,0.0075 -0.0089,0.01969 0.0069,0.01082 0.01349,0.02498 0.0147,0.03148 0.0012,0.0065 0.0031,0.01535 0.0042,0.01968 0.0044,0.01775 0.04919,0.0063 0.04919,-0.01259 z m -0.162441,-0.06012 c -0.0277,-0.01611 -0.0277,-0.01744 0,-0.04004 0.01575,-0.01286 0.01989,-0.01897 0.0092,-0.01355 -0.02237,0.0113 -0.151459,-0.05905 -0.206997,-0.112805 -0.05161,-0.04995 -0.07934,-0.04609 -0.03208,0.0045 0.05254,0.05621 0.218274,0.179652 0.240415,0.179067 0.01,-2.62e-4 0.0052,-0.008 -0.01053,-0.01714 z"
         style="fill:#e3af77;fill-opacity:1;stroke:none;stroke-width:0.0752409;stroke-opacity:1" />
      <path
         id="path1326"
         d="m 21.863797,41.478422 c -0.514268,-0.04319 -1.014585,-0.126439 -1.515919,-0.252233 -1.997184,-0.501126 -3.861003,-1.375212 -5.748305,-2.695811 -0.727607,-0.509129 -1.436963,-1.073107 -2.723154,-2.165064 l -0.251853,-0.21382 -0.397455,-2.65e-4 -0.397454,-2.64e-4 V 35.88337 35.615779 h 8.468587 8.468588 l -0.004,2.536952 -0.004,2.536949 -0.267594,0.0928 c -0.487971,0.169222 -1.008452,0.321389 -1.436539,0.419983 -0.575431,0.132533 -1.427537,0.243965 -2.17597,0.284557 -0.410852,0.02228 -1.714069,0.0168 -2.014965,-0.0085 z m -3.234158,-2.794016 c 0.0056,-0.009 0.0016,-0.02674 -0.0089,-0.03935 -0.02363,-0.02848 -0.06961,-0.03136 -0.05175,-0.0033 0.0069,0.01082 0.01349,0.02498 0.0147,0.03148 0.0047,0.02506 0.0066,0.02755 0.02095,0.02755 0.0081,0 0.01938,-0.0074 0.02497,-0.01643 z m -0.165704,-0.07014 c -0.0158,-0.01905 -0.01541,-0.02363 0.002,-0.02376 0.01188,-7.9e-5 -0.01735,-0.02217 -0.06497,-0.04908 -0.04762,-0.02691 -0.106053,-0.06713 -0.129861,-0.08937 -0.02381,-0.02225 -0.04329,-0.03336 -0.04329,-0.02471 0,0.01929 0.06135,0.07668 0.163606,0.153014 0.08264,0.0617 0.103777,0.07157 0.07251,0.03389 z"
         style="fill:#e3af77;fill-opacity:1;stroke:none;stroke-width:0.0752409;stroke-opacity:1" />
      <path
         id="path1328"
         d="m 22.029221,41.491952 c -0.592762,-0.03817 -1.143896,-0.129042 -1.794449,-0.29587 -2.369337,-0.6076 -4.611518,-1.781482 -6.888365,-3.606366 -0.355846,-0.28521 -1.369268,-1.130655 -1.634474,-1.363554 l -0.08578,-0.07533 h -0.398248 -0.398247 v -0.267595 -0.267591 h 8.468587 8.468588 l -0.004,2.537492 -0.004,2.537491 -0.267594,0.09227 c -0.53176,0.183351 -1.068281,0.338756 -1.503244,0.435419 -0.553045,0.122907 -1.397157,0.230661 -2.101395,0.268253 -0.266906,0.01426 -1.657185,0.01828 -1.857412,0.0054 z m -3.415743,-2.826533 c -0.0014,-0.01947 -0.01395,-0.03762 -0.02782,-0.04031 -0.02161,-0.0042 -0.02255,7.93e-4 -0.0066,0.03529 0.02307,0.04972 0.03784,0.05187 0.03439,0.005 z m -0.159498,-0.09388 c -0.0042,-0.0068 -0.01785,-0.01238 -0.03033,-0.01238 -0.01247,0 -0.02268,0.0056 -0.02268,0.01238 0,0.0068 0.01365,0.01236 0.03033,0.01236 0.01668,0 0.02689,-0.0056 0.02268,-0.01236 z m -0.188983,-0.114684 c -0.005,-0.01299 -0.01625,-0.0236 -0.02505,-0.0236 -0.0092,0 -0.0077,0.01 0.0036,0.0236 0.01078,0.01299 0.02205,0.0236 0.02505,0.0236 0.003,0 0.0014,-0.01064 -0.0036,-0.0236 z"
         style="fill:#e3af77;fill-opacity:1;stroke:none;stroke-width:0.0752409;stroke-opacity:1" />
      <path
         id="path1330"
         d="m 22.037091,41.492423 c -0.0303,-0.0029 -0.147176,-0.01278 -0.259722,-0.02201 -0.810693,-0.06649 -1.828317,-0.307731 -2.890998,-0.68535 -1.972486,-0.700911 -3.866481,-1.815822 -5.837265,-3.436141 -0.200121,-0.164534 -1.107083,-0.926267 -1.383668,-1.162103 -0.0398,-0.03394 -0.05127,-0.03487 -0.438327,-0.03542 l -0.397454,-5.29e-4 v -0.267594 -0.267592 h 8.468587 8.468588 l -0.004,2.538201 -0.004,2.538201 -0.430292,0.144156 c -0.717341,0.240324 -1.226525,0.373115 -1.797029,0.468659 -0.553646,0.09272 -1.087709,0.151683 -1.644912,0.18161 -0.267849,0.01439 -1.711821,0.01902 -1.849541,0.006 z m -3.420753,-2.819132 c 2.28e-4,-0.02582 -0.02131,-0.05037 -0.04467,-0.05092 -0.0057,-1.27e-4 -0.0021,0.01741 0.0079,0.03899 0.02129,0.04591 0.03646,0.05082 0.0368,0.01193 z m -0.160862,-0.09933 c -0.01106,-0.01789 -0.05451,-0.01979 -0.05451,-0.0024 0,0.0068 0.01432,0.01347 0.03182,0.01479 0.0175,0.0013 0.02771,-0.0043 0.02268,-0.01238 z M 18.267822,38.45003 c -0.0057,-0.0092 -0.01791,-0.01678 -0.02711,-0.01678 -0.01044,0 -0.0092,0.009 0.0032,0.024 0.02159,0.02601 0.04088,0.02021 0.02394,-0.0072 z"
         style="fill:#e3af77;fill-opacity:1;stroke:none;stroke-width:0.0752409;stroke-opacity:1" />
      <path
         id="path1332"
         d="m 22.021351,41.493363 c -0.0303,-0.0033 -0.143635,-0.01352 -0.251853,-0.02265 -0.5884,-0.04952 -1.243486,-0.181043 -2.006949,-0.402934 -1.77895,-0.517027 -3.492275,-1.361344 -5.203496,-2.564257 -0.698483,-0.491 -1.302034,-0.969804 -2.543866,-2.018072 l -0.396419,-0.334628 h -0.394556 -0.394555 v -0.267595 -0.267591 h 8.468587 8.468588 l -0.004,2.538201 -0.004,2.538201 -0.291206,0.09925 c -1.189445,0.405391 -1.928859,0.558829 -3.281952,0.681042 -0.177569,0.01603 -2.045139,0.03418 -2.164357,0.02104 z m -3.406283,-2.816297 c -0.0037,-0.02508 -0.04095,-0.06984 -0.04095,-0.04918 0,0.01513 0.03053,0.07295 0.03851,0.07295 0.0033,0 0.0044,-0.01069 0.0024,-0.02376 z M 18.448194,38.57491 c 0,-0.0087 -0.0124,-0.01564 -0.02755,-0.0155 -0.02354,2.04e-4 -0.02411,0.0024 -0.0039,0.0155 0.02971,0.01921 0.03148,0.01921 0.03148,0 z m -0.180372,-0.12488 c -0.0057,-0.0092 -0.01791,-0.01678 -0.02711,-0.01678 -0.01044,0 -0.0092,0.009 0.0032,0.024 0.02159,0.02601 0.04088,0.02021 0.02394,-0.0072 z"
         style="fill:#e3af77;fill-opacity:1;stroke:none;stroke-width:0.0752409;stroke-opacity:1" />
      <path
         id="path1334"
         d="M 21.911165,41.485124 C 21.164883,41.425554 20.468743,41.283802 19.550048,41.004328 17.672484,40.433156 15.842864,39.475462 14.009294,38.104076 13.478635,37.70718 12.919311,37.251451 11.81095,36.3129 l -0.191395,-0.16207 h -0.394949 -0.394949 v -0.267595 -0.267591 h 8.468587 8.468588 l -0.004,2.538201 -0.004,2.538201 -0.291206,0.09909 c -0.948544,0.322789 -1.575416,0.476089 -2.392746,0.585139 -0.353731,0.04719 -0.831895,0.09219 -1.17254,0.110326 -0.350775,0.01868 -1.75166,0.01765 -1.991208,-0.0016 z m -3.307042,-2.841163 c -0.02303,-0.02774 -0.0342,-0.0196 -0.02085,0.01519 0.0054,0.01418 0.01658,0.02164 0.02475,0.01659 0.0089,-0.0055 0.0073,-0.01831 -0.0039,-0.03177 z m -0.155929,-0.06905 c 0,-0.0087 -0.0124,-0.01564 -0.02755,-0.0155 -0.02354,2.04e-4 -0.02411,0.0024 -0.0039,0.0155 0.02971,0.01921 0.03148,0.01921 0.03148,0 z m -0.181019,-0.125925 c -0.0053,-0.0087 -0.01681,-0.01574 -0.02547,-0.01574 -0.0087,0 -0.01136,0.0071 -0.006,0.01574 0.0053,0.0087 0.01681,0.01574 0.02547,0.01574 0.0087,0 0.01136,-0.0071 0.006,-0.01574 z"
         style="fill:#e3af77;fill-opacity:1;stroke:none;stroke-width:0.0752409;stroke-opacity:1" />
      <path
         id="ellipse1576"
         style="fill:#6c5d53;fill-opacity:1;stroke:none;stroke-width:0.12024;stroke-opacity:1"
         d="m 16.673297,32.76704 a 0.07870024,0.07579566 0 0 1 -0.0787,0.0758 0.07870024,0.07579566 0 0 1 -0.0787,-0.0758 0.07870024,0.07579566 0 0 1 0.0787,-0.07579 0.07870024,0.07579566 0 0 1 0.0787,0.07579" />
      <path
         id="ellipse1611"
         style="fill:#6c5d53;fill-opacity:1;stroke:none;stroke-width:0.12024;stroke-opacity:1"
         d="m 19.497846,35.937363 a 0.07870024,0.07579566 0 0 1 -0.0787,0.07579 0.07870024,0.07579566 0 0 1 -0.0787,-0.07579 0.07870024,0.07579566 0 0 1 0.0787,-0.0758 0.07870024,0.07579566 0 0 1 0.0787,0.0758" />
      <path
         id="ellipse1613"
         style="fill:#6c5d53;fill-opacity:1;stroke:none;stroke-width:0.12024;stroke-opacity:1"
         d="m 15.509542,38.561249 a 0.07870024,0.07579566 0 0 1 -0.0787,0.0758 0.07870024,0.07579566 0 0 1 -0.0787,-0.0758 0.07870024,0.07579566 0 0 1 0.0787,-0.0758 0.07870024,0.07579566 0 0 1 0.0787,0.0758" />
      <path
         id="ellipse1615"
         style="fill:#6c5d53;fill-opacity:1;stroke:none;stroke-width:0.12024;stroke-opacity:1"
         d="m 19.796481,38.767849 a 0.07870024,0.07579566 0 0 1 -0.0787,0.0758 0.07870024,0.07579566 0 0 1 -0.0787,-0.0758 0.07870024,0.07579566 0 0 1 0.0787,-0.0758 0.07870024,0.07579566 0 0 1 0.0787,0.0758" />
      <path
         id="ellipse1619"
         style="fill:#6c5d53;fill-opacity:1;stroke:none;stroke-width:0.12024;stroke-opacity:1"
         d="m 24.336236,37.111729 a 0.07870024,0.07579566 0 0 1 -0.0787,0.0758 0.07870024,0.07579566 0 0 1 -0.0787,-0.0758 0.07870024,0.07579566 0 0 1 0.0787,-0.0758 0.07870024,0.07579566 0 0 1 0.0787,0.0758" />
      <path
         id="ellipse1621"
         style="fill:#6c5d53;fill-opacity:1;stroke:none;stroke-width:0.12024;stroke-opacity:1"
         d="m 20.34793,39.735615 a 0.07870024,0.07579566 0 0 1 -0.0787,0.07579 0.07870024,0.07579566 0 0 1 -0.0787,-0.07579 0.07870024,0.07579566 0 0 1 0.0787,-0.0758 0.07870024,0.07579566 0 0 1 0.0787,0.0758" />
      <path
         id="ellipse1623"
         style="fill:#6c5d53;fill-opacity:1;stroke:none;stroke-width:0.12024;stroke-opacity:1"
         d="m 24.634872,39.942215 a 0.07870024,0.07579566 0 0 1 -0.0787,0.0758 0.07870024,0.07579566 0 0 1 -0.0787,-0.0758 0.07870024,0.07579566 0 0 1 0.0787,-0.0758 0.07870024,0.07579566 0 0 1 0.0787,0.0758" />
      <path
         id="ellipse1641"
         style="fill:#6c5d53;fill-opacity:1;stroke:none;stroke-width:0.12024;stroke-opacity:1"
         d="m 36.681106,26.717379 a 0.07870024,0.07579566 0 0 1 -0.0787,0.07579 0.07870024,0.07579566 0 0 1 -0.0787,-0.07579 0.07870024,0.07579566 0 0 1 0.0787,-0.0758 0.07870024,0.07579566 0 0 1 0.0787,0.0758" />
      <path
         id="ellipse1675"
         style="fill:#6c5d53;fill-opacity:1;stroke:none;stroke-width:0.12024;stroke-opacity:1"
         d="m 27.297258,37.448387 a 0.07870024,0.07579566 0 0 1 -0.0787,0.0758 0.07870024,0.07579566 0 0 1 -0.0787,-0.0758 0.07870024,0.07579566 0 0 1 0.0787,-0.0758 0.07870024,0.07579566 0 0 1 0.0787,0.0758" />
      <path
         id="ellipse1677"
         style="fill:#6c5d53;fill-opacity:1;stroke:none;stroke-width:0.12024;stroke-opacity:1"
         d="m 31.584199,37.654987 a 0.07870024,0.07579566 0 0 1 -0.0787,0.0758 0.07870024,0.07579566 0 0 1 -0.0787,-0.0758 0.07870024,0.07579566 0 0 1 0.0787,-0.07579 0.07870024,0.07579566 0 0 1 0.0787,0.07579" />
      <path
         id="ellipse1709"
         style="fill:#6c5d53;fill-opacity:1;stroke:none;stroke-width:0.12024;stroke-opacity:1"
         d="m 25.941306,26.543722 a 0.07870024,0.07579566 0 0 1 -0.0787,0.0758 0.07870024,0.07579566 0 0 1 -0.0787,-0.0758 0.07870024,0.07579566 0 0 1 0.0787,-0.0758 0.07870024,0.07579566 0 0 1 0.0787,0.0758" />
      <path
         id="ellipse1721"
         style="fill:#6c5d53;fill-opacity:1;stroke:none;stroke-width:0.12024;stroke-opacity:1"
         d="m 30.279485,30.000374 a 0.07870024,0.07579566 0 0 1 -0.0787,0.07579 0.07870024,0.07579566 0 0 1 -0.0787,-0.07579 0.07870024,0.07579566 0 0 1 0.0787,-0.0758 0.07870024,0.07579566 0 0 1 0.0787,0.0758" />
      <path
         id="ellipse1775"
         style="fill:#6c5d53;fill-opacity:1;stroke:none;stroke-width:0.12024;stroke-opacity:1"
         d="m 12.814758,24.541126 a 0.07870024,0.07579566 0 0 1 -0.0787,0.0758 0.07870024,0.07579566 0 0 1 -0.0787,-0.0758 0.07870024,0.07579566 0 0 1 0.0787,-0.07579 0.07870024,0.07579566 0 0 1 0.0787,0.07579" />
      <path
         id="ellipse1821"
         style="fill:#6c5d53;fill-opacity:1;stroke:none;stroke-width:0.12024;stroke-opacity:1"
         d="m 10.718723,29.843451 a 0.07870024,0.07579566 0 0 1 -0.0787,0.07579 0.07870024,0.07579566 0 0 1 -0.0787,-0.07579 0.07870024,0.07579566 0 0 1 0.0787,-0.0758 0.07870024,0.07579566 0 0 1 0.0787,0.0758" />
      <path
         id="ellipse1888"
         style="fill:#6c5d53;fill-opacity:1;stroke:none;stroke-width:0.12024;stroke-opacity:1"
         d="m 11.422361,35.386227 a 0.07870024,0.07579566 0 0 1 -0.0787,0.07579 0.07870024,0.07579566 0 0 1 -0.0787,-0.07579 0.07870024,0.07579566 0 0 1 0.0787,-0.0758 0.07870024,0.07579566 0 0 1 0.0787,0.0758" />
      <path
         id="ellipse1894"
         style="fill:#6c5d53;fill-opacity:1;stroke:none;stroke-width:0.12024;stroke-opacity:1"
         d="m 7.3116252,35.805687 a 0.07870024,0.07579566 0 0 1 -0.0787,0.0758 0.07870024,0.07579566 0 0 1 -0.0787,-0.0758 0.07870024,0.07579566 0 0 1 0.0787,-0.0758 0.07870024,0.07579566 0 0 1 0.0787,0.0758" />
      <path
         id="ellipse1904"
         style="fill:#6c5d53;fill-opacity:1;stroke:none;stroke-width:0.12024;stroke-opacity:1"
         d="m 6.3292972,34.691868 a 0.07870024,0.07579566 0 0 1 -0.0787,0.07579 0.07870024,0.07579566 0 0 1 -0.0787,-0.07579 0.07870024,0.07579566 0 0 1 0.0787,-0.0758 0.07870024,0.07579566 0 0 1 0.0787,0.0758" />
      <path
         id="ellipse1977"
         style="fill:#6c5d53;fill-opacity:1;stroke:none;stroke-width:0.12024;stroke-opacity:1"
         d="m 1.683454,30.755302 a 0.07579566,0.07870024 25.240099 0 1 0.034996,0.103504 0.07579566,0.07870024 25.240099 0 1 -0.1021129,0.03887 0.07579566,0.07870024 25.240099 0 1 -0.035005,-0.103509 0.07579566,0.07870024 25.240099 0 1 0.102122,-0.03886" />
      <path
         id="path2800"
         style="fill:#a05a2c;fill-opacity:1;stroke:none;stroke-width:1.30823;stroke-opacity:1"
         d="M 36.708712,24.345015 A 13.638306,0.76476485 0 0 1 23.070406,25.109779 13.638306,0.76476485 0 0 1 9.4321003,24.345015 13.638306,0.76476485 0 0 1 23.070406,23.58025 13.638306,0.76476485 0 0 1 36.708712,24.345015" />
    </g>
  </g>
</svg>
