<?xml version="1.0" encoding="UTF-8" standalone="no"?>
<svg
   xmlns:svg="http://www.w3.org/2000/svg"
   xmlns="http://www.w3.org/2000/svg"
   xmlns:sodipodi="http://sodipodi.sourceforge.net/DTD/sodipodi-0.dtd"
   xmlns:inkscape="http://www.inkscape.org/namespaces/inkscape"
   width="40.351299mm"
   height="45.159561mm"
   version="1.1"
   viewBox="0 0 40.351299 45.159561"
   id="svg1035"
   sodipodi:docname="notesandbytes2.svg"
   inkscape:version="1.1-dev (48d18c81, 2020-07-08)">
  <defs
     id="defs1039">
    <inkscape:path-effect
       only_selected="false"
       apply_with_weight="true"
       apply_no_weight="true"
       helper_size="0"
       steps="2"
       weight="33.333333"
       lpeversion="1"
       is_visible="true"
       id="path-effect1566"
       effect="bspline" />
    <inkscape:path-effect
       fuse_tolerance="0"
       hide_knot="false"
       vertical_pattern="false"
       prop_units="false"
       tang_offset="0"
       normal_offset="0"
       spacing="0"
       scale_y_rel="false"
       prop_scale="1"
       copytype="single_stretched"
       pattern="M 0,5 C 0,2.24 2.24,0 5,0 7.76,0 10,2.24 10,5 10,7.76 7.76,10 5,10 2.24,10 0,7.76 0,5 Z"
       lpeversion="1"
       is_visible="true"
       id="path-effect1562"
       effect="skeletal" />
  </defs>
  <sodipodi:namedview
     pagecolor="#ffffff"
     bordercolor="#666666"
     borderopacity="1"
     objecttolerance="10"
     gridtolerance="10"
     guidetolerance="10"
     inkscape:pageopacity="0"
     inkscape:pageshadow="2"
     inkscape:window-width="1209"
     inkscape:window-height="689"
     id="namedview1037"
     showgrid="false"
     inkscape:zoom="2.040405"
     inkscape:cx="66.898483"
     inkscape:cy="58.076705"
     inkscape:window-x="62"
     inkscape:window-y="25"
     inkscape:window-maximized="0"
     inkscape:current-layer="svg1035" />
  <text
     id="text825"
     xml:space="preserve"
     style="line-height:1.25;fill:#484848;fill-opacity:1"
     word-spacing="0px"
     stroke-width="0.26458"
     font-size="22.578px"
     font-family="sans-serif"
     y="-49.721111"
     x="-32.461273"><tspan
       style="fill:#484848;fill-opacity:1"
       id="tspan823"
       stroke-width="0.26458"
       y="-49.721111"
       x="-32.461273" /></text>
  <path
     id="path856"
     d="M 34.246331,42.144512 C 28.708215,41.141662 22.82478,36.24723 19.781576,30.111278 c -0.91644,-1.847799 -1.277204,-3.090497 -1.287049,-4.433406 -0.0084,-1.150527 0.223338,-1.796049 0.880994,-2.453706 1.243391,-1.24339 3.129381,-1.425268 9.165779,-0.883912 6.414109,0.575231 9.597516,0.575297 16.001677,2.65e-4 5.011672,-0.449951 7.281448,-0.378206 8.55271,0.270343 0.25155,0.128331 0.676569,0.471138 0.944483,0.761794 1.211432,1.314249 1.085964,3.436019 -0.384791,6.50712 -2.992469,6.248606 -9.015433,11.284751 -14.676652,12.271986 -1.225215,0.213659 -3.531792,0.210095 -4.732396,-0.0073 z m 5.322246,-2.093888 c 4.610893,-1.177147 9.316743,-5.201121 12.026743,-10.284071 1.243856,-2.333006 1.668505,-4.511257 1.008197,-5.171565 -0.161785,-0.161784 -0.544293,-0.366828 -0.850019,-0.455654 -0.805045,-0.233895 -3.898923,-0.184539 -7.004283,0.111736 -5.835998,0.556805 -9.772362,0.611838 -14.24514,0.199162 -7.433089,-0.685805 -9.020021,-0.666684 -9.804845,0.118139 -0.423313,0.423313 -0.391813,1.613893 0.08008,3.026733 1.495358,4.477065 6.030908,9.490943 10.465272,11.568954 1.059603,0.496549 2.664922,0.992105 3.773384,1.164836 1.162565,0.181157 3.251339,0.05343 4.550611,-0.27827 z"
     style="fill:none;fill-opacity:1;stroke:none;stroke-width:0.560427;stroke-opacity:1" />
  <path
     id="path987"
     d=""
     style="fill:#f5ecdb;fill-opacity:1;stroke:none;stroke-width:0.560427;stroke-opacity:1" />
  <path
     id="path1274"
     d=""
     style="fill:#e3af77;fill-opacity:1;stroke:none;stroke-width:0.0966322;stroke-opacity:1" />
  <path
     id="path1276"
     d=""
     style="fill:#e3af77;fill-opacity:1;stroke:none;stroke-width:0.0966322;stroke-opacity:1" />
  <path
     id="path1278"
     d=""
     style="fill:#e3af77;fill-opacity:1;stroke:none;stroke-width:0.0966322;stroke-opacity:1" />
  <path
     id="path1280"
     d=""
     style="fill:#e3af77;fill-opacity:1;stroke:none;stroke-width:0.0966322;stroke-opacity:1" />
  <g
     transform="translate(-2.2992349e-8,5.9649077)"
     id="g1118">
    <g
       transform="translate(0,0.05664381)"
       id="g3991">
      <text
         transform="matrix(-0.18726714,1.1882386,-0.86171167,0.1277271,0,0)"
         xml:space="preserve"
         style="font-size:19.2417px;line-height:1.25;font-family:sans-serif;word-spacing:0px;fill:#484848;fill-opacity:1;stroke-width:0.225487"
         x="10.342069"
         y="-15.587013"
         id="text1408"><tspan
           sodipodi:role="line"
           id="tspan1406"
           style="font-style:normal;font-variant:normal;font-weight:normal;font-stretch:normal;font-size:19.2417px;font-family:'Market Saturday';-inkscape-font-specification:'Market Saturday, Normal';font-variant-ligatures:normal;font-variant-caps:normal;font-variant-numeric:normal;font-variant-east-asian:normal;fill:#484848;fill-opacity:1;stroke-width:0.225487"
           x="10.342069"
           y="-15.587013">0</tspan></text>
      <text
         transform="rotate(11.056653)"
         id="text1412"
         y="8.6367931"
         x="18.026405"
         style="font-size:25.6394px;line-height:1.25;font-family:sans-serif;word-spacing:0px;fill:#484848;fill-opacity:1;stroke-width:0.300462"
         xml:space="preserve"><tspan
           y="8.6367931"
           x="18.026405"
           style="font-style:normal;font-variant:normal;font-weight:normal;font-stretch:normal;font-size:25.6394px;font-family:'Market Saturday';-inkscape-font-specification:'Market Saturday, Normal';font-variant-ligatures:normal;font-variant-caps:normal;font-variant-numeric:normal;font-variant-east-asian:normal;fill:#484848;fill-opacity:1;stroke-width:0.300462"
           id="tspan1410"
           sodipodi:role="line">1</tspan></text>
    </g>
    <text
       xml:space="preserve"
       style="font-size:19.5663px;line-height:1.25;font-family:sans-serif;word-spacing:0px;fill:#484848;fill-opacity:1;stroke-width:0.229293"
       x="8.6617489"
       y="-21.089457"
       id="text2014"
       transform="matrix(0.4375078,0.91862296,-0.8680857,0.46297815,0,0)"><tspan
         sodipodi:role="line"
         id="tspan2012"
         style="font-style:normal;font-variant:normal;font-weight:normal;font-stretch:normal;font-size:19.5663px;font-family:'Market Saturday';-inkscape-font-specification:'Market Saturday, Normal';font-variant-ligatures:normal;font-variant-caps:normal;font-variant-numeric:normal;font-variant-east-asian:normal;fill:#484848;fill-opacity:1;stroke-width:0.229293"
         x="8.6617489"
         y="-21.089457">00101</tspan></text>
    <g
       id="g1075"
       transform="rotate(7.7069973,23.961153,11.504773)">
      <g
         id="g2010"
         transform="matrix(0.33581159,-0.33670317,0.33670317,0.33581159,13.88025,10.663305)">
        <text
           transform="matrix(-0.34321363,1.1529026,-0.87103947,0.01230626,0,0)"
           xml:space="preserve"
           style="font-size:38.2509px;line-height:1.25;font-family:sans-serif;word-spacing:0px;fill:#484848;fill-opacity:1;stroke-width:0.448251"
           x="14.238307"
           y="-8.68153"
           id="text2004"><tspan
             sodipodi:role="line"
             id="tspan2002"
             style="font-style:normal;font-variant:normal;font-weight:normal;font-stretch:normal;font-size:38.2509px;font-family:'Market Saturday';-inkscape-font-specification:'Market Saturday, Normal';font-variant-ligatures:normal;font-variant-caps:normal;font-variant-numeric:normal;font-variant-east-asian:normal;fill:#484848;fill-opacity:1;stroke-width:0.448251"
             x="14.238307"
             y="-8.68153">0</tspan></text>
        <text
           transform="rotate(18.678488)"
           id="text2008"
           y="16.052858"
           x="17.239689"
           style="font-size:50.9691px;line-height:1.25;font-family:sans-serif;word-spacing:0px;fill:#484848;fill-opacity:1;stroke-width:0.597294"
           xml:space="preserve"><tspan
             y="16.052858"
             x="17.239689"
             style="font-style:normal;font-variant:normal;font-weight:normal;font-stretch:normal;font-size:50.9691px;font-family:'Market Saturday';-inkscape-font-specification:'Market Saturday, Normal';font-variant-ligatures:normal;font-variant-caps:normal;font-variant-numeric:normal;font-variant-east-asian:normal;fill:#484848;fill-opacity:1;stroke-width:0.597294"
             id="tspan2006"
             sodipodi:role="line">1</tspan></text>
      </g>
      <ellipse
         transform="matrix(0.77695994,-0.62955004,0.59962492,0.80028117,0,0)"
         ry="1.1024373"
         rx="3.1194167"
         cy="26.744368"
         cx="10.289409"
         id="path2078"
         style="fill:#484848;fill-opacity:1;stroke-width:0.990338" />
    </g>
    <path
       id="path919"
       style="fill:#f5ecdb;fill-opacity:1;stroke:none;stroke-width:1.25653;stroke-opacity:1"
       d="m 6.191962,22.123965 c -2.2793877,0.928727 -4.0949517,2.208455 -5.162398,3.638794 -2.6413406,3.573714 -0.025202,7.131887 5.8432879,7.947376 1.5936781,0.218921 3.3271401,0.217087 5.0722971,-0.0054 l -0.780731,-1.946398 c -0.93867,0.06888 -1.8492755,0.07808 -2.7088831,0.0274 -5.4616312,-0.334748 -7.58569155,-2.73929 -4.888794,-5.657874 0.8928773,-0.955086 2.8389385,-1.744691 4.5209628,-2.505246 z"
       sodipodi:nodetypes="ccccccccc" />
    <path
       style="fill:#f5ecdb;fill-opacity:1;stroke:none;stroke-width:0.560427;stroke-opacity:1"
       d="M 21.634386,39.049565 C 18.55943,38.628938 15.558107,37.131889 12.620994,34.553717 l -0.924265,-0.811313 -1.9485646,0.02809 C 6.0048016,33.824465 3.1915003,33.032135 1.4818298,31.442394 0.73951596,30.752152 0.39048557,30.18941 0.16937157,29.326318 -0.17941371,27.964875 0.32506348,26.569656 1.6830071,25.140094 c 0.9001969,-0.947673 2.2363088,-1.896146 3.572119,-2.535758 0.4705805,-0.225323 1.0864506,-0.622468 1.3686002,-0.882544 0.7939849,-0.73187 1.4846754,-0.891907 3.7552407,-0.870114 1.031746,0.0099 3.326797,0.156607 5.100111,0.326008 5.73871,0.548207 9.600246,0.530778 15.945178,-0.07197 2.986048,-0.283665 5.874237,-0.336359 6.813796,-0.124317 0.904767,0.204191 1.578888,0.666946 1.881145,1.291329 0.212903,0.439796 0.238056,0.64981 0.182671,1.525185 -0.0735,1.161671 -0.405021,2.221437 -1.179779,3.771363 -2.393474,4.78822 -6.925623,9.05015 -11.425087,10.743896 -1.765902,0.664744 -4.319187,0.974876 -6.062616,0.736391 z m 4.253299,-1.935242 c 1.357234,-0.339228 2.972065,-1.097105 4.388727,-2.059726 1.376746,-0.9355 3.640844,-3.189015 4.694375,-4.672436 1.047546,-1.474991 2.020623,-3.437845 2.332283,-4.704589 0.403278,-1.639133 0.136105,-2.529953 -0.913802,-3.046817 -0.502647,-0.247452 -0.762807,-0.284491 -2.250019,-0.320341 -1.065718,-0.02569 -2.719022,0.04928 -4.513892,0.204679 -1.557732,0.134868 -3.069656,0.262602 -3.359835,0.283852 -0.371908,0.02724 -0.289863,0.04468 0.278029,0.05912 0.443092,0.01127 1.709327,-0.06613 2.813854,-0.172001 1.104527,-0.105867 2.984283,-0.198197 4.177242,-0.205177 2.025605,-0.01185 2.200984,0.0044 2.652551,0.245966 0.265946,0.142262 0.627999,0.430338 0.804561,0.64017 0.306268,0.363978 0.318698,0.427526 0.270497,1.382757 -0.04075,0.807492 -0.132438,1.200703 -0.473829,2.031963 -1.523604,3.70985 -4.968838,7.491 -8.404239,9.223661 -1.875292,0.945814 -3.764376,1.36267 -5.726399,1.263621 C 17.747359,37.021131 12.259319,32.571038 9.8223996,26.861174 8.827126,24.529183 9.0547161,23.143229 10.512625,22.657913 c 0.826566,-0.275152 2.668161,-0.283604 5.637845,-0.02587 1.562222,0.13558 3.197775,0.238066 3.634562,0.227746 0.910279,-0.02151 0.94977,-0.01694 -2.979692,-0.344579 -1.782025,-0.148586 -3.572085,-0.229979 -4.513893,-0.205244 -1.382702,0.03631 -1.627623,0.07443 -2.146968,0.334099 -0.8301821,0.415091 -1.1553788,1.056179 -1.0705108,2.110391 0.187157,2.324818 2.2458528,5.836053 4.9556738,8.452211 3.683628,3.556306 7.815753,4.917993 11.858043,3.90766 z M 9.9686126,31.838806 c 0,-0.03714 -0.2301693,-0.366889 -0.5114874,-0.732776 C 8.042668,29.266369 6.9118743,27.204137 6.3725936,25.480759 6.0280854,24.379815 6.1262239,24.407263 4.9271228,25.076484 3.9937077,25.597426 3.0714755,26.50128 2.7115734,27.247878 c -0.945392,1.961174 0.1564979,3.446518 3.1097952,4.191995 1.2137458,0.306377 4.147244,0.588555 4.147244,0.398933 z M 24.425302,22.908413 c -0.657459,-0.02086 -1.765414,-0.02094 -2.462123,-1.76e-4 -0.696709,0.02077 -0.15879,0.03783 1.195378,0.03793 1.354168,9.6e-5 1.924203,-0.01689 1.266745,-0.03775 z"
       id="path1118" />
    <path
       style="fill:#f5ecdb;fill-opacity:1;stroke:none;stroke-width:0.560427;stroke-opacity:1"
       d="M 21.634386,39.049565 C 18.55943,38.628938 15.558107,37.131889 12.620994,34.553717 l -0.924265,-0.811313 -1.9485646,0.02809 C 6.0048016,33.824465 3.1915003,33.032135 1.4818298,31.442394 0.73951596,30.752152 0.39048557,30.18941 0.16937157,29.326318 -0.17941371,27.964875 0.32506348,26.569656 1.6830071,25.140094 c 0.9001969,-0.947673 2.2363088,-1.896146 3.572119,-2.535758 0.4705805,-0.225323 1.0864506,-0.622468 1.3686002,-0.882544 0.7939849,-0.73187 1.4846754,-0.891907 3.7552407,-0.870114 1.031746,0.0099 3.326797,0.156607 5.100111,0.326008 5.73871,0.548207 9.600246,0.530778 15.945178,-0.07197 2.986048,-0.283665 5.874237,-0.336359 6.813796,-0.124317 0.904767,0.204191 1.578888,0.666946 1.881145,1.291329 0.212903,0.439796 0.238056,0.64981 0.182671,1.525185 -0.0735,1.161671 -0.405021,2.221437 -1.179779,3.771363 -2.393474,4.78822 -6.925623,9.05015 -11.425087,10.743896 -1.765902,0.664744 -4.319187,0.974876 -6.062616,0.736391 z m 4.253299,-1.935242 c 1.357234,-0.339228 2.972065,-1.097105 4.388727,-2.059726 1.376746,-0.9355 3.640844,-3.189015 4.694375,-4.672436 1.047546,-1.474991 2.020623,-3.437845 2.332283,-4.704589 0.403278,-1.639133 0.136105,-2.529953 -0.913802,-3.046817 -0.502647,-0.247452 -0.762807,-0.284491 -2.250019,-0.320341 -1.065718,-0.02569 -2.719022,0.04928 -4.513892,0.204679 -1.557732,0.134868 -3.069656,0.262602 -3.359835,0.283852 -0.371908,0.02724 -0.289863,0.04468 0.278029,0.05912 0.443092,0.01127 1.709327,-0.06613 2.813854,-0.172001 1.104527,-0.105867 2.984283,-0.198197 4.177242,-0.205177 2.025605,-0.01185 2.200984,0.0044 2.652551,0.245966 0.265946,0.142262 0.627999,0.430338 0.804561,0.64017 0.306268,0.363978 0.318698,0.427526 0.270497,1.382757 -0.04075,0.807492 -0.132438,1.200703 -0.473829,2.031963 -1.523604,3.70985 -4.968838,7.491 -8.404239,9.223661 -1.875292,0.945814 -3.764376,1.36267 -5.726399,1.263621 C 17.747359,37.021131 12.259319,32.571038 9.8223996,26.861174 8.827126,24.529183 9.0547161,23.143229 10.512625,22.657913 c 0.826566,-0.275152 2.668161,-0.283604 5.637845,-0.02587 1.562222,0.13558 3.197775,0.238066 3.634562,0.227746 0.910279,-0.02151 0.94977,-0.01694 -2.979692,-0.344579 -1.782025,-0.148586 -3.572085,-0.229979 -4.513893,-0.205244 -1.382702,0.03631 -1.627623,0.07443 -2.146968,0.334099 -0.8301821,0.415091 -1.1553788,1.056179 -1.0705108,2.110391 0.187157,2.324818 2.2458528,5.836053 4.9556738,8.452211 3.683628,3.556306 7.815753,4.917993 11.858043,3.90766 z M 9.9686126,31.838806 c 0,-0.03714 -0.2301693,-0.366889 -0.5114874,-0.732776 C 8.042668,29.266369 6.9118743,27.204137 6.3725936,25.480759 6.0280854,24.379815 6.1262239,24.407263 4.9271228,25.076484 3.9937077,25.597426 3.0714755,26.50128 2.7115734,27.247878 c -0.945392,1.961174 0.1564979,3.446518 3.1097952,4.191995 1.2137458,0.306377 4.147244,0.588555 4.147244,0.398933 z M 24.425302,22.908413 c -0.657459,-0.02086 -1.765414,-0.02094 -2.462123,-1.76e-4 -0.696709,0.02077 -0.15879,0.03783 1.195378,0.03793 1.354168,9.6e-5 1.924203,-0.01689 1.266745,-0.03775 z"
       id="path1120" />
    <path
       style="fill:#f5ecdb;fill-opacity:1;stroke:none;stroke-width:0.560427;stroke-opacity:1"
       d="M 21.634386,39.049565 C 18.55943,38.628938 15.558107,37.131889 12.620994,34.553717 l -0.924265,-0.811313 -1.9485646,0.02809 C 6.0048016,33.824465 3.1915003,33.032135 1.4818298,31.442394 0.73951596,30.752152 0.39048557,30.18941 0.16937157,29.326318 -0.17941371,27.964875 0.32506348,26.569656 1.6830071,25.140094 c 0.9001969,-0.947673 2.2363088,-1.896146 3.572119,-2.535758 0.4705805,-0.225323 1.0864506,-0.622468 1.3686002,-0.882544 0.7939849,-0.73187 1.4846754,-0.891907 3.7552407,-0.870114 1.031746,0.0099 3.326797,0.156607 5.100111,0.326008 5.73871,0.548207 9.600246,0.530778 15.945178,-0.07197 2.986048,-0.283665 5.874237,-0.336359 6.813796,-0.124317 0.904767,0.204191 1.578888,0.666946 1.881145,1.291329 0.212903,0.439796 0.238056,0.64981 0.182671,1.525185 -0.0735,1.161671 -0.405021,2.221437 -1.179779,3.771363 -2.393474,4.78822 -6.925623,9.05015 -11.425087,10.743896 -1.765902,0.664744 -4.319187,0.974876 -6.062616,0.736391 z m 4.253299,-1.935242 c 1.357234,-0.339228 2.972065,-1.097105 4.388727,-2.059726 1.376746,-0.9355 3.640844,-3.189015 4.694375,-4.672436 1.047546,-1.474991 2.020623,-3.437845 2.332283,-4.704589 0.403278,-1.639133 0.136105,-2.529953 -0.913802,-3.046817 -0.502647,-0.247452 -0.762807,-0.284491 -2.250019,-0.320341 -1.065718,-0.02569 -2.719022,0.04928 -4.513892,0.204679 -1.557732,0.134868 -3.069656,0.262602 -3.359835,0.283852 -0.371908,0.02724 -0.289863,0.04468 0.278029,0.05912 0.443092,0.01127 1.709327,-0.06613 2.813854,-0.172001 1.104527,-0.105867 2.984283,-0.198197 4.177242,-0.205177 2.025605,-0.01185 2.200984,0.0044 2.652551,0.245966 0.265946,0.142262 0.627999,0.430338 0.804561,0.64017 0.306268,0.363978 0.318698,0.427526 0.270497,1.382757 -0.04075,0.807492 -0.132438,1.200703 -0.473829,2.031963 -1.523604,3.70985 -4.968838,7.491 -8.404239,9.223661 -1.875292,0.945814 -3.764376,1.36267 -5.726399,1.263621 C 17.747359,37.021131 12.259319,32.571038 9.8223996,26.861174 8.827126,24.529183 9.0547161,23.143229 10.512625,22.657913 c 0.826566,-0.275152 2.668161,-0.283604 5.637845,-0.02587 1.562222,0.13558 3.197775,0.238066 3.634562,0.227746 0.910279,-0.02151 0.94977,-0.01694 -2.979692,-0.344579 -1.782025,-0.148586 -3.572085,-0.229979 -4.513893,-0.205244 -1.382702,0.03631 -1.627623,0.07443 -2.146968,0.334099 -0.8301821,0.415091 -1.1553788,1.056179 -1.0705108,2.110391 0.187157,2.324818 2.2458528,5.836053 4.9556738,8.452211 3.683628,3.556306 7.815753,4.917993 11.858043,3.90766 z M 9.9686126,31.838806 c 0,-0.03714 -0.2301693,-0.366889 -0.5114874,-0.732776 C 8.042668,29.266369 6.9118743,27.204137 6.3725936,25.480759 6.0280854,24.379815 6.1262239,24.407263 4.9271228,25.076484 3.9937077,25.597426 3.0714755,26.50128 2.7115734,27.247878 c -0.945392,1.961174 0.1564979,3.446518 3.1097952,4.191995 1.2137458,0.306377 4.147244,0.588555 4.147244,0.398933 z M 24.425302,22.908413 c -0.657459,-0.02086 -1.765414,-0.02094 -2.462123,-1.76e-4 -0.696709,0.02077 -0.15879,0.03783 1.195378,0.03793 1.354168,9.6e-5 1.924203,-0.01689 1.266745,-0.03775 z"
       id="path1122" />
    <path
       style="fill:#f5ecdb;fill-opacity:1;stroke:none;stroke-width:0.560427;stroke-opacity:1"
       d="M 21.634386,39.049565 C 18.55943,38.628938 15.558107,37.131889 12.620994,34.553717 l -0.924265,-0.811313 -1.9485646,0.02809 C 6.0048016,33.824465 3.1915003,33.032135 1.4818298,31.442394 0.73951596,30.752152 0.39048557,30.18941 0.16937157,29.326318 -0.17941371,27.964875 0.32506348,26.569656 1.6830071,25.140094 c 0.9001969,-0.947673 2.2363088,-1.896146 3.572119,-2.535758 0.4705805,-0.225323 1.0864506,-0.622468 1.3686002,-0.882544 0.7939849,-0.73187 1.4846754,-0.891907 3.7552407,-0.870114 1.031746,0.0099 3.326797,0.156607 5.100111,0.326008 5.73871,0.548207 9.600246,0.530778 15.945178,-0.07197 2.986048,-0.283665 5.874237,-0.336359 6.813796,-0.124317 0.904767,0.204191 1.578888,0.666946 1.881145,1.291329 0.212903,0.439796 0.238056,0.64981 0.182671,1.525185 -0.0735,1.161671 -0.405021,2.221437 -1.179779,3.771363 -2.393474,4.78822 -6.925623,9.05015 -11.425087,10.743896 -1.765902,0.664744 -4.319187,0.974876 -6.062616,0.736391 z m 4.253299,-1.935242 c 1.357234,-0.339228 2.972065,-1.097105 4.388727,-2.059726 1.376746,-0.9355 3.640844,-3.189015 4.694375,-4.672436 1.047546,-1.474991 2.020623,-3.437845 2.332283,-4.704589 0.403278,-1.639133 0.136105,-2.529953 -0.913802,-3.046817 -0.502647,-0.247452 -0.762807,-0.284491 -2.250019,-0.320341 -1.065718,-0.02569 -2.719022,0.04928 -4.513892,0.204679 -1.557732,0.134868 -3.069656,0.262602 -3.359835,0.283852 -0.371908,0.02724 -0.289863,0.04468 0.278029,0.05912 0.443092,0.01127 1.709327,-0.06613 2.813854,-0.172001 1.104527,-0.105867 2.984283,-0.198197 4.177242,-0.205177 2.025605,-0.01185 2.200984,0.0044 2.652551,0.245966 0.265946,0.142262 0.627999,0.430338 0.804561,0.64017 0.306268,0.363978 0.318698,0.427526 0.270497,1.382757 -0.04075,0.807492 -0.132438,1.200703 -0.473829,2.031963 -1.523604,3.70985 -4.968838,7.491 -8.404239,9.223661 -1.875292,0.945814 -3.764376,1.36267 -5.726399,1.263621 C 17.747359,37.021131 12.259319,32.571038 9.8223996,26.861174 8.827126,24.529183 9.0547161,23.143229 10.512625,22.657913 c 0.826566,-0.275152 2.668161,-0.283604 5.637845,-0.02587 1.562222,0.13558 3.197775,0.238066 3.634562,0.227746 0.910279,-0.02151 0.94977,-0.01694 -2.979692,-0.344579 -1.782025,-0.148586 -3.572085,-0.229979 -4.513893,-0.205244 -1.382702,0.03631 -1.627623,0.07443 -2.146968,0.334099 -0.8301821,0.415091 -1.1553788,1.056179 -1.0705108,2.110391 0.187157,2.324818 2.2458528,5.836053 4.9556738,8.452211 3.683628,3.556306 7.815753,4.917993 11.858043,3.90766 z M 9.9686126,31.838806 c 0,-0.03714 -0.2301693,-0.366889 -0.5114874,-0.732776 C 8.042668,29.266369 6.9118743,27.204137 6.3725936,25.480759 6.0280854,24.379815 6.1262239,24.407263 4.9271228,25.076484 3.9937077,25.597426 3.0714755,26.50128 2.7115734,27.247878 c -0.945392,1.961174 0.1564979,3.446518 3.1097952,4.191995 1.2137458,0.306377 4.147244,0.588555 4.147244,0.398933 z M 24.425302,22.908413 c -0.657459,-0.02086 -1.765414,-0.02094 -2.462123,-1.76e-4 -0.696709,0.02077 -0.15879,0.03783 1.195378,0.03793 1.354168,9.6e-5 1.924203,-0.01689 1.266745,-0.03775 z"
       id="path1124" />
    <path
       style="fill:#f5ecdb;fill-opacity:1;stroke:none;stroke-width:0.560427;stroke-opacity:1"
       d="M 21.634386,39.049565 C 18.55943,38.628938 15.558107,37.131889 12.620994,34.553717 l -0.924265,-0.811313 -1.9485646,0.02809 C 6.0048016,33.824465 3.1915003,33.032135 1.4818298,31.442394 0.73951596,30.752152 0.39048557,30.18941 0.16937157,29.326318 -0.17941371,27.964875 0.32506348,26.569656 1.6830071,25.140094 c 0.9001969,-0.947673 2.2363088,-1.896146 3.572119,-2.535758 0.4705805,-0.225323 1.0864506,-0.622468 1.3686002,-0.882544 0.7939849,-0.73187 1.4846754,-0.891907 3.7552407,-0.870114 1.031746,0.0099 3.326797,0.156607 5.100111,0.326008 5.73871,0.548207 9.600246,0.530778 15.945178,-0.07197 2.986048,-0.283665 5.874237,-0.336359 6.813796,-0.124317 0.904767,0.204191 1.578888,0.666946 1.881145,1.291329 0.212903,0.439796 0.238056,0.64981 0.182671,1.525185 -0.0735,1.161671 -0.405021,2.221437 -1.179779,3.771363 -2.393474,4.78822 -6.925623,9.05015 -11.425087,10.743896 -1.765902,0.664744 -4.319187,0.974876 -6.062616,0.736391 z m 4.253299,-1.935242 c 1.357234,-0.339228 2.972065,-1.097105 4.388727,-2.059726 1.376746,-0.9355 3.640844,-3.189015 4.694375,-4.672436 1.047546,-1.474991 2.020623,-3.437845 2.332283,-4.704589 0.403278,-1.639133 0.136105,-2.529953 -0.913802,-3.046817 -0.502647,-0.247452 -0.762807,-0.284491 -2.250019,-0.320341 -1.065718,-0.02569 -2.719022,0.04928 -4.513892,0.204679 -1.557732,0.134868 -3.069656,0.262602 -3.359835,0.283852 -0.371908,0.02724 -0.289863,0.04468 0.278029,0.05912 0.443092,0.01127 1.709327,-0.06613 2.813854,-0.172001 1.104527,-0.105867 2.984283,-0.198197 4.177242,-0.205177 2.025605,-0.01185 2.200984,0.0044 2.652551,0.245966 0.265946,0.142262 0.627999,0.430338 0.804561,0.64017 0.306268,0.363978 0.318698,0.427526 0.270497,1.382757 -0.04075,0.807492 -0.132438,1.200703 -0.473829,2.031963 -1.523604,3.70985 -4.968838,7.491 -8.404239,9.223661 -1.875292,0.945814 -3.764376,1.36267 -5.726399,1.263621 C 17.747359,37.021131 12.259319,32.571038 9.8223996,26.861174 8.827126,24.529183 9.0547161,23.143229 10.512625,22.657913 c 0.826566,-0.275152 2.668161,-0.283604 5.637845,-0.02587 1.562222,0.13558 3.197775,0.238066 3.634562,0.227746 0.910279,-0.02151 0.94977,-0.01694 -2.979692,-0.344579 -1.782025,-0.148586 -3.572085,-0.229979 -4.513893,-0.205244 -1.382702,0.03631 -1.627623,0.07443 -2.146968,0.334099 -0.8301821,0.415091 -1.1553788,1.056179 -1.0705108,2.110391 0.187157,2.324818 2.2458528,5.836053 4.9556738,8.452211 3.683628,3.556306 7.815753,4.917993 11.858043,3.90766 z M 9.9686126,31.838806 c 0,-0.03714 -0.2301693,-0.366889 -0.5114874,-0.732776 C 8.042668,29.266369 6.9118743,27.204137 6.3725936,25.480759 6.0280854,24.379815 6.1262239,24.407263 4.9271228,25.076484 3.9937077,25.597426 3.0714755,26.50128 2.7115734,27.247878 c -0.945392,1.961174 0.1564979,3.446518 3.1097952,4.191995 1.2137458,0.306377 4.147244,0.588555 4.147244,0.398933 z M 24.425302,22.908413 c -0.657459,-0.02086 -1.765414,-0.02094 -2.462123,-1.76e-4 -0.696709,0.02077 -0.15879,0.03783 1.195378,0.03793 1.354168,9.6e-5 1.924203,-0.01689 1.266745,-0.03775 z"
       id="path1126" />
    <path
       style="fill:#f5ecdb;fill-opacity:1;stroke:none;stroke-width:0.560427;stroke-opacity:1"
       d="M 21.192225,39.006517 C 18.306454,38.495112 15.275247,36.929678 12.60867,34.573632 L 11.712966,33.782237 9.6976607,33.781443 C 6.6657466,33.780385 4.7462644,33.415387 2.9582064,32.499844 1.6924059,31.85171 0.55609947,30.687443 0.21902457,29.693261 0.13976938,29.459501 0.07336908,28.891184 0.07146834,28.430336 0.06839462,27.685089 0.11851102,27.492938 0.52465917,26.692764 1.2935629,25.177903 2.7108953,23.925414 5.1029887,22.646918 5.6188621,22.3712 6.2519793,21.97535 6.509916,21.767251 c 1.3595174,-1.096837 2.5296713,-1.1835 8.651774,-0.640757 5.999076,0.531837 9.942081,0.547042 15.031505,0.05796 6.944151,-0.667311 9.033809,-0.468822 9.857269,0.936304 0.736412,1.256592 0.09641,3.892083 -1.652133,6.803441 -1.014113,1.688515 -1.891773,2.81726 -3.398136,4.370287 -3.039999,3.13418 -5.963301,4.887756 -9.320893,5.591246 -1.241399,0.260102 -3.37634,0.317522 -4.487077,0.120679 z m 2.820281,-1.675736 c -0.304138,-0.02408 -0.831736,-0.02431 -1.17244,-5.29e-4 -0.340704,0.02376 -0.09186,0.04345 0.552979,0.04375 0.644841,2.65e-4 0.923599,-0.01913 0.619461,-0.04319 z m -2.290187,-0.108876 c -0.08061,-0.03252 -0.212505,-0.03252 -0.29311,0 -0.0806,0.03252 -0.01466,0.05914 0.146555,0.05914 0.16121,0 0.22716,-0.02661 0.146555,-0.05914 z m 3.402305,7.94e-4 c -0.07938,-0.03211 -0.237657,-0.03407 -0.351732,-0.0043 -0.114074,0.02973 -0.04913,0.056 0.144324,0.05839 0.193453,0.0024 0.286786,-0.02193 0.207408,-0.05405 z m -4.662678,-0.285761 c -1.107981,-0.308898 -3.448395,-1.486553 -4.45527,-2.241814 -2.050411,-1.538023 -4.098629,-3.858268 -5.31263,-6.018207 -0.581817,-1.035164 -1.3116532,-2.701203 -1.3116532,-2.994184 0,-0.08061 -0.031755,-0.114809 -0.070567,-0.076 -0.1136497,0.11365 0.2926662,1.234562 0.8558742,2.361118 1.555152,3.110696 4.319609,6.075252 7.256986,7.782264 1.158432,0.673206 3.073343,1.422395 3.62348,1.417651 0.128968,-0.0011 -0.134831,-0.104987 -0.58622,-0.230831 z m 5.510466,0.128217 c 0.298763,-0.128381 -0.0095,-0.128381 -0.410354,0 -0.235629,0.07546 -0.247126,0.09455 -0.05862,0.09732 0.128968,0.0019 0.340007,-0.04189 0.468976,-0.09732 z m 2.051768,-0.762084 c 0.29018,-0.155382 0.474838,-0.282514 0.410356,-0.282514 -0.06448,0 -0.354663,0.127132 -0.644843,0.282514 -0.290179,0.155382 -0.474839,0.282514 -0.410355,0.282514 0.06448,0 0.354663,-0.127132 0.644842,-0.282514 z m 2.344881,-1.356037 c 1.141338,-0.79774 3.879241,-3.556535 4.646567,-4.682027 1.081262,-1.585968 2.276983,-4.044617 2.267826,-4.663123 -0.0016,-0.111375 -0.134162,0.182544 -0.294473,0.653153 -0.404511,1.187479 -0.952143,2.237084 -1.945976,3.729712 -1.099058,1.650659 -3.445293,4.022334 -4.976866,5.030827 -0.585753,0.385702 -1.166108,0.7678 -1.289682,0.849109 -0.123574,0.08131 -0.01365,0.04638 0.244298,-0.0776 0.257937,-0.123991 0.864674,-0.502012 1.348306,-0.840046 z M 9.8513686,31.782045 c 0,-0.07041 -0.237967,-0.437266 -0.5288161,-0.815247 C 8.1366668,29.42565 6.9396452,27.238644 6.3875719,25.604471 6.2078481,25.072476 6.0152583,24.637208 5.9595943,24.637208 c -0.3163141,0 -1.6419687,0.820894 -2.2273617,1.379265 -1.0992866,1.048541 -1.5498173,2.333884 -1.1667966,3.328815 0.1735012,0.450686 0.8741808,1.109335 1.5379435,1.445689 0.9725562,0.492832 2.8959096,0.919295 4.6341715,1.027533 0.2579367,0.01606 0.6140654,0.04323 0.7913968,0.06037 0.1773314,0.01715 0.3224207,-0.02643 0.3224207,-0.09684 z M 9.2291541,25.020482 c -0.029727,-0.114074 -0.056003,-0.04913 -0.058393,0.144324 -0.00238,0.193452 0.021931,0.286786 0.054048,0.207408 0.032116,-0.07938 0.034071,-0.237657 0.00434,-0.351732 z M 37.197742,23.426899 c -0.215672,-0.369284 -0.88311,-0.900483 -1.130376,-0.899644 -0.07107,2.46e-4 0.03131,0.09833 0.227509,0.217979 0.196202,0.119646 0.499571,0.387296 0.674153,0.594776 0.273519,0.325057 0.320601,0.49357 0.34039,1.218261 l 0.02296,0.841023 0.04122,-0.800354 c 0.03199,-0.621133 -0.0074,-0.883586 -0.175858,-1.172041 z M 9.1107519,24.380737 c -0.037427,-0.09353 -0.065209,-0.06575 -0.070835,0.07084 -0.00509,0.123594 0.022619,0.192842 0.061579,0.153883 0.038959,-0.03896 0.043124,-0.140083 0.00926,-0.224718 z M 9.9117291,22.92525 c 0.1729739,-0.113336 0.5599029,-0.272168 0.8598429,-0.352958 0.35206,-0.09483 0.44146,-0.148785 0.252236,-0.152231 -0.393903,-0.0072 -1.1719799,0.362878 -1.4861688,0.70682 -0.1403093,0.153596 -0.2889904,0.437545 -0.3304027,0.630997 -0.061842,0.288886 -0.033727,0.264333 0.1573501,-0.137414 0.1279549,-0.269031 0.3741693,-0.581877 0.5471425,-0.695214 z m 9.7563779,-0.117536 c -0.03896,-0.03896 -0.140083,-0.04312 -0.224718,-0.0093 -0.09353,0.03743 -0.06575,0.06521 0.07084,0.07083 0.123593,0.0051 0.192841,-0.02262 0.153882,-0.06158 z m 7.269125,0 c -0.03896,-0.03896 -0.140083,-0.04312 -0.224718,-0.0093 -0.09353,0.03743 -0.06575,0.06521 0.07084,0.07083 0.123592,0.0051 0.192841,-0.02262 0.153881,-0.06158 z m -8.613376,-0.128941 c -0.144203,-0.02783 -0.408002,-0.02855 -0.58622,-0.0016 -0.178217,0.02695 -0.06023,0.04972 0.262187,0.0506 0.322421,8.73e-4 0.468236,-0.02117 0.324033,-0.049 z m 10.374477,-0.0015 c -0.177331,-0.02686 -0.46751,-0.02686 -0.644842,0 -0.177332,0.02686 -0.03224,0.04884 0.322421,0.04884 0.354664,0 0.499753,-0.02198 0.322421,-0.04884 z M 16.976038,22.560287 c -0.176176,-0.02675 -0.492735,-0.02729 -0.703463,-0.0012 -0.210729,0.02609 -0.06658,0.04798 0.320321,0.04864 0.386905,6.62e-4 0.559319,-0.02069 0.383142,-0.04744 z m 13.072213,0.0012 c -0.144203,-0.02783 -0.408001,-0.02855 -0.586219,-0.0016 -0.178218,0.02695 -0.06024,0.04972 0.262186,0.0506 0.322422,8.73e-4 0.468236,-0.02117 0.324033,-0.049 z m 1.329005,-0.127214 c -0.444998,-0.01994 -0.851498,0.0059 -0.903338,0.05743 -0.05184,0.05153 0.312248,0.06785 0.809085,0.03626 l 0.903338,-0.05743 z m -15.925389,0.0087 c -0.176177,-0.02675 -0.492735,-0.02729 -0.703464,-0.0012 -0.210728,0.02609 -0.06658,0.04798 0.320321,0.04864 0.386906,6.61e-4 0.55932,-0.02069 0.383143,-0.04744 z m 20.281102,0.003 c -0.112845,-0.02949 -0.297505,-0.02949 -0.410353,0 -0.112847,0.02949 -0.02053,0.05362 0.205177,0.05362 0.225695,0 0.318024,-0.02413 0.205176,-0.05362 z M 13.280754,22.324758 c -0.209573,-0.02601 -0.552512,-0.02601 -0.762085,0 -0.209574,0.02601 -0.0381,0.04729 0.381042,0.04729 0.419148,0 0.590617,-0.02128 0.381043,-0.04729 z m 21.107449,-8.46e-4 c -0.272113,-0.02459 -0.74695,-0.02488 -1.055195,-6.35e-4 -0.308245,0.02423 -0.08561,0.04435 0.49475,0.04471 0.580355,3.44e-4 0.832556,-0.01947 0.560445,-0.04406 z"
       id="path1128" />
    <path
       style="fill:#f5ecdb;fill-opacity:1;stroke:none;stroke-width:0.560427;stroke-opacity:1"
       d="m 21.399898,39.053832 c -2.854971,-0.445254 -6.09095,-2.094378 -8.791228,-4.4802 L 11.712966,33.782237 9.6976607,33.781443 C 6.5884751,33.780478 4.7557593,33.425962 2.9038697,32.467369 1.7979623,31.894919 0.84943608,30.991119 0.40830354,30.089477 -0.06358107,29.124981 -0.07108517,27.910072 0.38877605,26.928 1.12386,25.358166 2.5073202,24.069187 4.8285171,22.791464 5.559834,22.388904 6.3164636,21.922177 6.509916,21.754292 c 1.2384971,-1.07481 2.6263045,-1.175572 8.734674,-0.634183 1.38641,0.122878 3.233002,0.254719 4.103539,0.292979 0.870536,0.03826 2.051308,0.09081 2.623939,0.116772 1.425624,0.06464 5.556111,-0.123526 8.807346,-0.401227 5.584065,-0.476959 7.247307,-0.439651 8.401335,0.188449 0.847164,0.461084 1.154047,1.035561 1.154047,2.160344 0,3.864133 -4.590431,10.241885 -9.618589,13.363667 -1.599969,0.993357 -3.296811,1.692799 -4.974337,2.050439 -1.023123,0.218125 -3.411572,0.307403 -4.341972,0.1623 z m 2.434424,-1.719566 c -0.144203,-0.02783 -0.408002,-0.02855 -0.58622,-0.0016 -0.178218,0.02695 -0.06023,0.04972 0.262187,0.0506 0.322421,7.94e-4 0.468236,-0.02117 0.324033,-0.049 z m 1.227007,-0.105548 c -0.03896,-0.03896 -0.140083,-0.04312 -0.224718,-0.0093 -0.09353,0.03743 -0.06575,0.06521 0.07083,0.07083 0.123594,0.0051 0.192842,-0.02262 0.153883,-0.06158 z m 1.055196,-0.234487 c -0.03896,-0.03896 -0.140084,-0.04312 -0.224718,-0.0093 -0.09353,0.03743 -0.06575,0.06521 0.07083,0.07083 0.123594,0.0051 0.192841,-0.02262 0.153883,-0.06158 z m -6.593134,-0.378674 c -2.071128,-0.817539 -3.631582,-1.854893 -5.493557,-3.651994 -1.904269,-1.83792 -3.503637,-4.186795 -4.382542,-6.436317 -0.2171904,-0.55589 -0.3614947,-0.852429 -0.3206764,-0.658977 0.040818,0.193453 0.2282136,0.722096 0.4164336,1.174764 1.4374488,3.45704 4.8238798,7.204683 8.0120878,8.866692 1.094411,0.570513 2.166979,1.027817 2.413699,1.029105 0.09673,5.29e-4 -0.193724,-0.144965 -0.645445,-0.323273 z m 8.500789,-0.312576 c 0.161211,-0.09216 0.240351,-0.167556 0.175866,-0.167556 -0.06448,0 -0.249142,0.0754 -0.410353,0.167556 -0.16121,0.09216 -0.24035,0.167558 -0.175865,0.167558 0.06448,0 0.249142,-0.0754 0.410352,-0.167558 z m 1.289685,-0.711714 c 0,-0.03224 -0.105521,-0.0021 -0.234489,0.06687 -0.128969,0.06902 -0.234487,0.151876 -0.234487,0.184119 0,0.03224 0.105518,0.0021 0.234487,-0.06687 0.128968,-0.06902 0.234489,-0.151873 0.234489,-0.184116 z m 1.113817,-0.699452 c 0.386905,-0.27255 0.808982,-0.616185 0.93795,-0.763632 0.128969,-0.14745 -0.05569,-0.03425 -0.410352,0.251563 -0.354664,0.285811 -0.84269,0.641913 -1.084506,0.791342 -0.241816,0.149429 -0.439666,0.296878 -0.439666,0.327668 0,0.07756 0.183668,-0.0343 0.996574,-0.606941 z m 1.714992,-1.431999 c 0.145836,-0.185957 0.14169,-0.190103 -0.04427,-0.04427 -0.195299,0.153165 -0.257408,0.249444 -0.160911,0.249444 0.02434,0 0.116675,-0.09233 0.205176,-0.205176 z m 0.981617,-0.967264 c 0.317574,-0.322421 0.551027,-0.586219 0.518785,-0.586219 -0.03224,0 -0.318455,0.263798 -0.636027,0.586219 -0.317574,0.322421 -0.551026,0.586222 -0.518784,0.586222 0.03224,0 0.318455,-0.263801 0.636026,-0.586222 z M 9.7894921,31.772804 C 9.8157201,31.746583 9.4223617,31.131898 8.9153611,30.406858 7.8844701,28.932621 6.8729984,27.032346 6.388677,25.65992 6.2117015,25.158422 6.021509,24.720051 5.9660272,24.685761 c -0.2035813,-0.125819 -1.5829021,0.733352 -2.274857,1.416995 -0.847856,0.837674 -1.2261703,1.580637 -1.2261703,2.408047 0,0.740574 0.1979473,1.129845 0.8796952,1.729941 0.6326736,0.556903 1.6340823,0.981255 2.9307331,1.241917 1.4315912,0.287788 3.3574111,0.446794 3.5140639,0.290143 z M 34.814757,30.504021 c 0.506288,-0.690423 1.326552,-2.026354 1.154639,-1.880518 -0.03801,0.03224 -0.381699,0.534976 -0.76376,1.117189 -0.382061,0.582213 -0.873514,1.268093 -1.092115,1.524172 -0.218602,0.256083 -0.276754,0.362159 -0.129225,0.235728 0.147529,-0.126428 0.521237,-0.574886 0.830461,-0.996571 z m 1.598273,-2.59564 c 0.166632,-0.328834 0.283308,-0.617537 0.259281,-0.641567 -0.02402,-0.02402 -0.185282,0.245018 -0.358341,0.597879 -0.173058,0.352862 -0.289734,0.641565 -0.259281,0.641565 0.03046,0 0.191709,-0.269044 0.358341,-0.597877 z m 0.859216,-2.215977 c -0.0021,-0.09673 -0.07475,0.0088 -0.16166,0.234486 -0.206142,0.535303 -0.2031,0.745914 0.0042,0.293111 0.08858,-0.193453 0.159422,-0.430871 0.157425,-0.527597 z M 9.2279959,25.084201 c -0.037427,-0.09353 -0.065209,-0.06575 -0.070835,0.07083 -0.00509,0.123595 0.022619,0.192842 0.061579,0.153883 0.038959,-0.03896 0.043124,-0.140082 0.00926,-0.224717 z M 37.366544,24.966957 c -0.03743,-0.09353 -0.06521,-0.06575 -0.07083,0.07083 -0.0051,0.123595 0.02262,0.192842 0.06158,0.153883 0.03896,-0.03896 0.04312,-0.140082 0.0093,-0.224717 z m -0.09036,-1.409747 c -0.142486,-0.343991 -0.94878,-1.030839 -1.209069,-1.029955 -0.07093,2.46e-4 0.03156,0.09833 0.227763,0.217979 0.545211,0.332479 0.989571,0.925255 1.007544,1.344061 0.01262,0.294332 0.02689,0.314619 0.06823,0.09712 0.02875,-0.151213 -0.01376,-0.434353 -0.09447,-0.629202 z M 9.909024,22.927023 c 0.158335,-0.103746 0.513505,-0.259084 0.789266,-0.345196 0.275762,-0.08611 0.393854,-0.160097 0.262428,-0.164411 -0.614499,-0.02017 -1.8275112,0.949992 -1.8076315,1.445734 0.00285,0.07107 0.1093283,-0.06804 0.2366186,-0.309142 0.12729,-0.241096 0.3609837,-0.52324 0.5193189,-0.626985 z M 18.207231,22.6844 c -0.07938,-0.03212 -0.237657,-0.03407 -0.351732,-0.0043 -0.114075,0.02973 -0.04913,0.056 0.144324,0.05839 0.193453,0.0024 0.286786,-0.02193 0.207408,-0.05405 z m 10.373858,-0.0039 c -0.112848,-0.02949 -0.297506,-0.02949 -0.410353,0 -0.112848,0.02949 -0.02053,0.05362 0.205176,0.05362 0.225695,0 0.318024,-0.02413 0.205177,-0.05362 z M 16.858062,22.563505 c -0.112096,-0.02935 -0.323135,-0.03041 -0.468976,-0.0024 -0.145841,0.02804 -0.05413,0.05205 0.20381,0.05336 0.257936,0.0013 0.377261,-0.02164 0.265166,-0.05099 z m 13.073563,0.0037 c -0.07938,-0.03212 -0.237657,-0.03407 -0.351732,-0.0043 -0.114075,0.02973 -0.04913,0.056 0.144325,0.05839 0.193453,0.0024 0.286785,-0.02193 0.207407,-0.05405 z M 15.333891,22.446261 c -0.112096,-0.02934 -0.323136,-0.03041 -0.468976,-0.0024 -0.145841,0.02804 -0.05413,0.05205 0.203809,0.05335 0.257937,0.0013 0.377262,-0.02164 0.265167,-0.05099 z m 16.178297,-0.0034 c -0.177332,-0.02686 -0.467511,-0.02686 -0.64484,0 -0.177332,0.02686 -0.03224,0.04884 0.322419,0.04884 0.354663,0 0.499752,-0.02198 0.322421,-0.04884 z m 4.218339,0.01314 c -0.03896,-0.03896 -0.140081,-0.04312 -0.224716,-0.0093 -0.09353,0.03743 -0.06575,0.06521 0.07083,0.07083 0.123595,0.0051 0.192842,-0.02262 0.153882,-0.06158 z M 33.97431,22.328753 c -0.112847,-0.02949 -0.297505,-0.02949 -0.410353,0 -0.112847,0.02949 -0.0205,0.05362 0.205177,0.05362 0.225695,0 0.318024,-0.02413 0.205176,-0.05362 z"
       id="path1130" />
    <path
       style="fill:#f5ecdb;fill-opacity:1;stroke:none;stroke-width:0.560427;stroke-opacity:1"
       d="M 21.059548,38.987091 C 18.324337,38.493149 15.509097,37.04913 12.792964,34.746916 l -1.103319,-0.93518 -2.5898649,-0.0601 C 6.8113428,33.698536 6.3734593,33.656136 5.3374766,33.3874 2.9051951,32.756459 1.0499616,31.50639 0.37495064,30.043618 -0.06685951,29.086199 -0.06153131,27.889933 0.38882774,26.928001 1.1044804,25.399423 2.5479597,24.032365 4.6691845,22.874259 5.2946819,22.532762 6.0702514,22.057306 6.392672,21.81769 c 0.8510926,-0.632512 1.2237386,-0.793428 2.1870688,-0.944421 0.9553162,-0.149738 2.9236842,-0.08924 6.0653142,0.186421 4.109808,0.360612 5.326865,0.421872 8.337636,0.419669 3.060354,-0.0022 4.801486,-0.08797 8.500186,-0.41854 4.663533,-0.416801 6.619288,-0.347071 7.727051,0.275496 0.845349,0.47509 1.12046,0.997118 1.122939,2.130811 0.0026,1.153615 -0.322652,2.306672 -1.106982,3.925316 -1.131756,2.335631 -2.550417,4.273296 -4.661935,6.36746 -4.202684,4.168151 -9.027409,6.035672 -13.504402,5.227189 z m -1.007956,-2.156513 c -0.09673,-0.06251 -0.228625,-0.113651 -0.29311,-0.113651 -0.06448,0 -0.0381,0.05114 0.05862,0.113651 0.09673,0.06251 0.228625,0.113652 0.293109,0.113652 0.06448,0 0.03811,-0.05114 -0.05862,-0.113652 z m -0.703463,-0.264826 c -0.161211,-0.07244 -0.701999,-0.333262 -1.201751,-0.579594 -0.499752,-0.246335 -0.908641,-0.419155 -0.908641,-0.384051 0,0.08658 2.1196,1.113272 2.277748,1.103292 0.06916,-0.0044 -0.0061,-0.06721 -0.167356,-0.139647 z m 8.558807,-0.20415 c 0.09673,-0.06251 0.123108,-0.113652 0.05862,-0.113652 -0.06448,0 -0.196384,0.05114 -0.29311,0.113652 -0.09673,0.06251 -0.123106,0.113654 -0.05862,0.113654 0.06448,0 0.196384,-0.05114 0.293108,-0.113654 z M 17.120493,35.497854 c 0,-0.02368 -0.211039,-0.1827 -0.468975,-0.353396 -0.257937,-0.170694 -0.468976,-0.285129 -0.468976,-0.254294 0,0.05149 0.834812,0.650732 0.906545,0.650732 0.01728,0 0.03141,-0.01937 0.03141,-0.04304 z m 13.19785,-0.555969 c 0.04377,-0.07083 -0.05881,-0.03809 -0.227957,0.07274 -0.169151,0.110832 -0.307547,0.223679 -0.307547,0.250772 0,0.08481 0.451856,-0.188163 0.535504,-0.323508 z M 15.596322,34.394988 c -0.290179,-0.237548 -1.081575,-0.959773 -1.758659,-1.604946 -0.928349,-0.884595 -1.029253,-0.961276 -0.410354,-0.311849 0.826135,0.866886 2.496358,2.363767 2.626569,2.353969 0.03852,-0.0029 -0.167377,-0.199625 -0.457556,-0.437174 z m 15.139425,0.237265 c 0.145836,-0.185954 0.141689,-0.1901 -0.04427,-0.04426 -0.195297,0.153164 -0.257405,0.249444 -0.160909,0.249444 0.02434,0 0.116676,-0.09233 0.205177,-0.20518 z m 0.468976,-0.351731 c 0.145836,-0.185955 0.14169,-0.190101 -0.04427,-0.04427 -0.1953,0.153165 -0.257405,0.249444 -0.160909,0.249444 0.02434,0 0.116673,-0.09233 0.205176,-0.205179 z m 2.227636,-2.110391 c 0.145836,-0.185955 0.14169,-0.190101 -0.04427,-0.04427 -0.112848,0.0885 -0.205177,0.18083 -0.205177,0.205177 0,0.0965 0.09628,0.03439 0.249444,-0.160912 z M 8.8575041,30.330906 C 7.7392025,28.68251 7.0720513,27.430364 6.448551,25.809648 6.1310906,24.984447 5.9688403,24.700176 5.8224002,24.712601 5.4730061,24.742241 4.3222123,25.498565 3.6761638,26.12314 2.6288093,27.135682 2.219003,28.395154 2.6229426,29.360042 c 0.1726231,0.412345 0.9262223,1.146529 1.4471577,1.409874 1.0718008,0.541825 3.2240582,0.98719 4.8703247,1.007817 l 0.9063376,0.01135 z m 3.2611859,0.520232 c -0.300459,-0.386905 -0.570663,-0.703464 -0.600454,-0.703464 -0.06338,0 0.009,0.102056 0.60311,0.850019 0.243283,0.306298 0.465125,0.556909 0.492983,0.556909 0.02786,0 -0.19518,-0.316558 -0.495639,-0.703464 z m 22.134375,0.381042 c 0.145838,-0.185954 0.141689,-0.190103 -0.04427,-0.04427 -0.1953,0.153165 -0.257408,0.249444 -0.160912,0.249444 0.02434,0 0.116676,-0.09233 0.205177,-0.205177 z m 0.692623,-0.914622 c 0.496224,-0.721235 0.350475,-0.658175 -0.177572,0.07683 -0.236469,0.329146 -0.373999,0.563872 -0.305626,0.521615 0.06838,-0.04226 0.285816,-0.31156 0.483198,-0.598448 z M 10.837726,28.947424 C 10.485744,28.35177 10.030763,27.455978 9.8266565,26.956776 9.6225509,26.457573 9.4371597,26.067532 9.4146765,26.090014 c -0.1220227,0.122023 0.9032185,2.262259 1.6488905,3.442129 0.577703,0.914095 0.422716,0.512823 -0.225841,-0.584719 z m 24.924556,0.145055 c 0.06902,-0.128968 0.09911,-0.234489 0.06687,-0.234489 -0.03224,0 -0.115094,0.105521 -0.184115,0.234489 -0.06902,0.128969 -0.09912,0.234487 -0.06687,0.234487 0.03224,0 0.115097,-0.105518 0.184118,-0.234487 z m 0.650476,-1.183336 c 0.103137,-0.199445 0.166706,-0.383442 0.141266,-0.408881 -0.02545,-0.02545 -0.133995,0.137742 -0.241236,0.362627 -0.24112,0.505637 -0.157576,0.544293 0.09997,0.04625 z m 0.823923,-4.42726 c -0.160586,-0.31054 -0.472125,-0.591019 -0.995037,-0.895835 -0.09101,-0.05305 0.106836,0.166015 0.439666,0.48682 0.379823,0.366101 0.610206,0.689529 0.618744,0.868634 0.0088,0.185084 0.03191,0.216022 0.0657,0.08805 0.02865,-0.108518 -0.02943,-0.354968 -0.129077,-0.547665 z M 9.6172427,23.20097 c 0.1726128,-0.23579 0.2009244,-0.317679 0.07427,-0.21482 -0.1922542,0.156134 -0.4829518,0.595862 -0.393915,0.595862 0.022384,0 0.1662245,-0.171469 0.319645,-0.381042 z m 0.6475823,-0.534266 c -0.0361,-0.0361 -0.130703,-7.4e-5 -0.210233,0.08005 -0.1149309,0.115792 -0.1014638,0.129259 0.06563,0.06563 0.115629,-0.04403 0.180699,-0.109587 0.144601,-0.145685 z m 7.879111,0.02376 c -0.03896,-0.03896 -0.140083,-0.04312 -0.224718,-0.0093 -0.09353,0.03743 -0.06575,0.06521 0.07083,0.07083 0.123594,0.0051 0.192842,-0.02262 0.153883,-0.06158 z m 10.317468,0 c -0.03896,-0.03896 -0.140083,-0.04312 -0.224718,-0.0093 -0.09353,0.03743 -0.06575,0.06521 0.07083,0.07083 0.123595,0.0051 0.192842,-0.02262 0.153884,-0.06158 z M 10.847942,22.526817 c 0.154615,-0.06644 0.174583,-0.102958 0.05862,-0.107208 -0.09673,-0.0035 -0.255005,0.0447 -0.351732,0.107208 -0.214318,0.138503 -0.0292,0.138503 0.29311,0 z m 5.889066,0.04641 c -0.03896,-0.03896 -0.140083,-0.04312 -0.224717,-0.0093 -0.09353,0.03743 -0.06575,0.06521 0.07083,0.07083 0.123594,0.0051 0.192842,-0.02262 0.153882,-0.06158 z m 13.131324,0 c -0.03896,-0.03896 -0.140084,-0.04312 -0.224719,-0.0093 -0.09353,0.03743 -0.06575,0.06521 0.07083,0.07083 0.123595,0.0051 0.192842,-0.02262 0.153885,-0.06158 z M 15.212837,22.455982 c -0.03896,-0.03896 -0.140083,-0.04312 -0.224718,-0.0093 -0.09353,0.03743 -0.06575,0.06521 0.07084,0.07083 0.123593,0.0051 0.192841,-0.02262 0.153882,-0.06158 z m 16.182109,-0.01 c -0.112848,-0.02949 -0.297508,-0.02949 -0.410356,0 -0.112847,0.02949 -0.0205,0.05362 0.205177,0.05362 0.225694,0 0.318023,-0.02413 0.205179,-0.05362 z"
       id="path1132" />
    <path
       style="fill:#f5ecdb;fill-opacity:1;stroke:none;stroke-width:0.560427;stroke-opacity:1"
       d="m 21.041491,38.998516 c -2.869907,-0.525748 -5.774817,-2.074725 -8.70655,-4.642559 L 11.711549,33.809942 9.1107329,33.752567 C 6.7973051,33.701534 6.3803621,33.661383 5.3374766,33.38923 2.9043298,32.754267 1.0564802,31.50953 0.37082079,30.043617 0.1242373,29.516432 0.06288392,29.209531 0.06226786,28.500178 0.06158127,27.709473 0.10945853,27.517727 0.50987597,26.707538 1.2523394,25.205265 2.7650788,23.884831 5.4750325,22.37357 5.9152502,22.128073 6.530926,21.746282 6.8432013,21.525145 7.1554766,21.304007 7.6303146,21.057013 7.898397,20.976269 c 0.7785152,-0.234482 4.111407,-0.166721 7.463437,0.151741 4.161924,0.395406 10.925729,0.403353 15.241714,0.01791 5.676722,-0.506967 7.391543,-0.471048 8.601257,0.180167 0.842635,0.453608 1.125546,0.990568 1.128062,2.141039 0.0026,1.162682 -0.323969,2.32284 -1.104733,3.925315 -1.127173,2.313459 -2.410254,4.083132 -4.493377,6.197434 -3.11259,3.159175 -6.502934,5.013084 -9.993407,5.464595 -1.176372,0.152173 -2.688611,0.129302 -3.699859,-0.05595 z m -2.054864,-2.564545 c -0.11916,-0.109469 -1.74889,-0.889945 -1.74889,-0.837544 0,0.07074 1.538134,0.868492 1.690268,0.876654 0.05911,0.0032 0.08549,-0.01442 0.05862,-0.03911 z m 8.982033,-0.166968 c -0.0361,-0.0361 -0.130701,-7.7e-5 -0.210232,0.08005 -0.11493,0.115792 -0.101463,0.129257 0.06563,0.06563 0.115628,-0.04403 0.1807,-0.109588 0.1446,-0.145685 z M 17.120493,35.495758 c 0,-0.02482 -0.145089,-0.133477 -0.32242,-0.241448 l -0.322421,-0.196308 0.276787,0.241446 c 0.270099,0.235611 0.368054,0.287859 0.368054,0.19631 z m -1.055195,-0.702593 c 0,-0.02434 -0.09233,-0.116676 -0.205177,-0.205176 -0.185956,-0.145836 -0.190103,-0.14169 -0.04427,0.04426 0.153165,0.1953 0.249444,0.257408 0.249444,0.160912 z m -0.468976,-0.347916 c 0,-0.02225 -0.118709,-0.140957 -0.263799,-0.263798 l -0.263799,-0.223348 0.223349,0.263798 c 0.209893,0.247906 0.304249,0.317174 0.304249,0.223348 z m -1.172439,-1.073367 c -0.284789,-0.290179 -0.544179,-0.527598 -0.576421,-0.527598 -0.03224,0 0.174388,0.237419 0.459177,0.527598 0.284789,0.290179 0.544178,0.527597 0.57642,0.527597 0.03224,0 -0.174387,-0.237418 -0.459176,-0.527597 z m -0.820708,-0.802535 c 0,-0.02225 -0.118709,-0.140959 -0.263799,-0.2638 l -0.263799,-0.223348 0.223349,0.263798 c 0.209892,0.247906 0.304249,0.317174 0.304249,0.22335 z M 8.8565567,30.329509 C 7.8204839,28.802321 6.9407193,27.152911 6.4034127,25.730281 6.2286203,25.267481 6.0191425,24.833665 5.9379064,24.766245 c -0.2091198,-0.173554 -1.4803636,0.590696 -2.2455713,1.35 -1.4291084,1.418082 -1.6133809,2.924008 -0.4900331,4.004688 0.9701992,0.933349 3.3435953,1.610265 5.7967449,1.653289 l 0.8477157,0.01487 z m 3.6914233,1.063583 c 0,-0.02434 -0.09233,-0.116676 -0.205177,-0.205179 -0.185956,-0.145836 -0.190103,-0.141687 -0.04427,0.04427 0.153164,0.1953 0.249444,0.257406 0.249444,0.160912 z m -0.351732,-0.465161 c 0,-0.02225 -0.11871,-0.140957 -0.263799,-0.2638 l -0.263799,-0.223348 0.223348,0.2638 c 0.209893,0.247906 0.30425,0.317172 0.30425,0.223348 z m 22.628081,-0.428525 c 0.13775,-0.193452 0.224076,-0.351732 0.191834,-0.351732 -0.03224,0 -0.171326,0.15828 -0.309076,0.351732 -0.13775,0.193453 -0.224076,0.351732 -0.191833,0.351732 0.03224,0 0.171325,-0.158279 0.309075,-0.351732 z M 10.906564,29.092479 c -0.06902,-0.128968 -0.151874,-0.234489 -0.184116,-0.234489 -0.03224,0 -0.0021,0.105521 0.06687,0.234489 0.06902,0.128969 0.151874,0.234487 0.184116,0.234487 0.03224,0 0.0021,-0.105518 -0.06687,-0.234487 z m 24.855718,0 c 0.06902,-0.128968 0.09911,-0.234489 0.06687,-0.234489 -0.03224,0 -0.115094,0.105521 -0.184115,0.234489 -0.06902,0.128969 -0.09912,0.234487 -0.06687,0.234487 0.03224,0 0.115097,-0.105518 0.184118,-0.234487 z M 10.295943,27.982428 C 10.090274,27.565352 9.9026522,27.243454 9.8790069,27.2671 c -0.052421,0.05242 0.6564721,1.473647 0.7350411,1.473647 0.03071,0 -0.112436,-0.341243 -0.318105,-0.758319 z m 26.14716,-0.241359 c -0.0361,-0.0361 -0.101658,0.02897 -0.145685,0.144603 -0.06363,0.167095 -0.05016,0.180562 0.06563,0.06563 0.08013,-0.07953 0.116149,-0.174136 0.08005,-0.210236 z M 9.7484369,26.785704 c -0.1382123,-0.23768 -0.1715879,-0.161605 -0.05845,0.133228 0.040208,0.104781 0.097804,0.165815 0.1279908,0.135628 0.030187,-0.03019 -0.00111,-0.151172 -0.069541,-0.268856 z M 37.162907,23.388253 c -0.07688,-0.119127 -0.304771,-0.34671 -0.50641,-0.505741 -0.321879,-0.253862 -0.309388,-0.224341 0.102357,0.241918 0.475742,0.538726 0.658495,0.658053 0.404053,0.263823 z M 9.556936,23.274467 c 0.1108314,-0.16915 0.1435627,-0.271731 0.072737,-0.227958 -0.1353458,0.08365 -0.4083229,0.535503 -0.3235111,0.535503 0.027095,0 0.1399431,-0.138395 0.2507741,-0.307545 z m 1.232384,-0.74765 c 0.09673,-0.06251 0.123106,-0.113653 0.05862,-0.113653 -0.06448,0 -0.196383,0.05114 -0.29311,0.113653 -0.09673,0.06251 -0.123106,0.113653 -0.05862,0.113653 0.06448,0 0.196383,-0.05114 0.293109,-0.113653 z m 20.485939,-0.07083 c -0.03896,-0.03896 -0.140084,-0.04312 -0.224719,-0.0093 -0.09353,0.03743 -0.06575,0.06521 0.07083,0.07083 0.123595,0.0051 0.192842,-0.02262 0.153885,-0.06158 z"
       id="path1134" />
    <path
       style="fill:#f5ecdb;fill-opacity:1;stroke:none;stroke-width:0.560427;stroke-opacity:1"
       d="M 20.98384,39.002326 C 18.337201,38.49835 15.49392,37.023775 12.780114,34.747728 L 11.663942,33.811603 9.0869293,33.747222 C 7.4028948,33.705151 6.2458404,33.620865 5.7478303,33.50398 3.1254656,32.888514 1.1952854,31.674074 0.40412402,30.141798 0.12578496,29.602728 0.07321253,29.356195 0.06785235,28.564881 0.06250317,27.775188 0.11323034,27.516451 0.38877605,26.928 1.1136244,25.380025 2.485979,24.090696 4.8167621,22.7679 5.527991,22.364255 6.2526675,21.914674 6.4271546,21.768833 c 1.314735,-1.098897 2.7480208,-1.19771 9.1228004,-0.628944 4.149109,0.370189 10.929826,0.37147 14.967212,0.0028 3.840712,-0.350684 6.158515,-0.436603 7.231335,-0.268057 1.130847,0.177661 1.966878,0.624026 2.325872,1.241804 0.247597,0.426082 0.267949,0.576208 0.222523,1.641415 -0.03833,0.898661 -0.125339,1.377774 -0.372632,2.051769 -1.928412,5.255837 -7.096267,10.592096 -12.099964,12.494263 -1.966645,0.747622 -4.971091,1.05438 -6.840461,0.698415 z m -2.231701,-2.68524 c -0.11923,-0.108651 -1.279914,-0.656881 -1.279914,-0.604547 0,0.07137 1.071417,0.635992 1.221292,0.643604 0.05911,0.003 0.08549,-0.01458 0.05862,-0.03906 z m -3.155817,-1.875653 c 0,-0.02434 -0.09233,-0.116676 -0.205177,-0.205176 -0.185956,-0.145836 -0.190103,-0.14169 -0.04427,0.04427 0.153164,0.195299 0.249443,0.257407 0.249443,0.160911 z M 14.775615,33.74405 c 0,-0.02101 -0.14509,-0.16609 -0.322421,-0.322419 l -0.322421,-0.284236 0.284236,0.322421 c 0.265662,0.30135 0.360606,0.376187 0.360606,0.284234 z M 9.7341248,31.714286 c 0,-0.04114 -0.4439666,-0.740209 -0.9865923,-1.553483 C 7.6578577,28.527625 7.0837145,27.455679 6.4484173,25.868269 6.1391977,25.095625 5.9653133,24.804366 5.7990412,24.780553 5.2393051,24.700393 3.2502683,26.37963 2.7977694,27.314368 1.752731,29.47313 3.307273,31.011769 7.1359883,31.608206 c 1.0812236,0.168434 2.5981366,0.230368 2.5981365,0.10608 z m 1.1724392,-2.621807 c -0.06902,-0.128968 -0.151874,-0.234489 -0.184116,-0.234489 -0.03224,0 -0.0021,0.105521 0.06687,0.234489 0.06902,0.128969 0.151874,0.234487 0.184116,0.234487 0.03224,0 0.0021,-0.105518 -0.06687,-0.234487 z m 24.833075,-0.06172 c -0.0361,-0.0361 -0.101658,0.02897 -0.145685,0.144601 -0.06363,0.167095 -0.05016,0.180562 0.06563,0.06563 0.08013,-0.07953 0.116149,-0.174135 0.08005,-0.210233 z M 10.296708,27.981232 c -0.140293,-0.288764 -0.275187,-0.504915 -0.2997654,-0.480335 -0.05304,0.05304 0.4207024,1.005361 0.5001264,1.005361 0.03009,0 -0.06007,-0.23626 -0.200361,-0.525026 z M 37.286452,23.54639 c 0,-0.01959 -0.197848,-0.217442 -0.439664,-0.439665 l -0.439666,-0.404042 0.404043,0.439665 c 0.376073,0.40923 0.475287,0.493572 0.475287,0.404042 z"
       id="path1136" />
    <path
       id="path890"
       style="fill:#f5ecdb;fill-opacity:1;stroke:none;stroke-width:2.04672;stroke-opacity:1"
       d="m 10.860971,20.247696 c -2.7575778,-0.03413 -4.939029,1.013399 -4.939029,3.158262 0,4.575704 7.725005,15.788698 17.254243,15.788698 9.529238,0 16.659615,-11.086318 16.744401,-15.661237 0.0424,-2.287855 -2.049657,-3.065652 -5.373325,-3.271486 -3.323668,-0.205833 -6.731799,-0.222085 -11.615842,-0.222085 -5.062408,0 -8.945193,0.246521 -12.070448,0.207851 z m 1.425956,2.034815 c 2.574551,-0.04607 6.480818,0.666625 10.886674,0.666625 7.832633,0 14.278716,-2.251569 14.278716,1.509469 0,3.761039 -6.349964,12.977503 -14.182598,12.977503 -7.832632,0 -14.1820792,-9.216464 -14.1820792,-12.977503 0,-1.645454 1.1968592,-2.140262 3.1992872,-2.176094 z"
       sodipodi:nodetypes="ssssssssssssss" />
    <path
       style="fill:#e3af77;fill-opacity:1;stroke:none;stroke-width:0.0752409;stroke-opacity:1"
       d="m 18.516508,36.277713 c -0.09429,-0.04519 -0.155263,-0.08808 -0.125208,-0.08808 0.0268,0 0.245783,0.1114 0.245783,0.125031 0,0.02199 0.0067,0.02408 -0.120575,-0.03695 z"
       id="path1302" />
    <path
       d="m 16.673297,30.397503 a 0.07870024,0.07579566 0 0 1 -0.0787,0.0758 0.07870024,0.07579566 0 0 1 -0.0787,-0.0758 0.07870024,0.07579566 0 0 1 0.0787,-0.07579 0.07870024,0.07579566 0 0 1 0.0787,0.07579"
       style="fill:#6c5d53;fill-opacity:1;stroke:none;stroke-width:0.12024;stroke-opacity:1"
       id="ellipse1576" />
    <path
       d="m 19.497846,33.567826 a 0.07870024,0.07579566 0 0 1 -0.0787,0.07579 0.07870024,0.07579566 0 0 1 -0.0787,-0.07579 0.07870024,0.07579566 0 0 1 0.0787,-0.0758 0.07870024,0.07579566 0 0 1 0.0787,0.0758"
       style="fill:#6c5d53;fill-opacity:1;stroke:none;stroke-width:0.12024;stroke-opacity:1"
       id="ellipse1611" />
    <path
       d="m 31.727538,31.759737 a 0.07870024,0.07579566 0 0 1 -0.0787,0.0758 0.07870024,0.07579566 0 0 1 -0.0787,-0.0758 0.07870024,0.07579566 0 0 1 0.0787,-0.0758 0.07870024,0.07579566 0 0 1 0.0787,0.0758"
       style="fill:#6c5d53;fill-opacity:1;stroke:none;stroke-width:0.12024;stroke-opacity:1"
       id="ellipse1619" />
    <path
       d="m 24.634872,37.572678 a 0.07870024,0.07579566 0 0 1 -0.0787,0.0758 0.07870024,0.07579566 0 0 1 -0.0787,-0.0758 0.07870024,0.07579566 0 0 1 0.0787,-0.0758 0.07870024,0.07579566 0 0 1 0.0787,0.0758"
       style="fill:#6c5d53;fill-opacity:1;stroke:none;stroke-width:0.12024;stroke-opacity:1"
       id="ellipse1623" />
    <path
       d="m 36.681106,24.347842 a 0.07870024,0.07579566 0 0 1 -0.0787,0.07579 0.07870024,0.07579566 0 0 1 -0.0787,-0.07579 0.07870024,0.07579566 0 0 1 0.0787,-0.0758 0.07870024,0.07579566 0 0 1 0.0787,0.0758"
       style="fill:#6c5d53;fill-opacity:1;stroke:none;stroke-width:0.12024;stroke-opacity:1"
       id="ellipse1641" />
    <path
       d="m 27.297258,35.07885 a 0.07870024,0.07579566 0 0 1 -0.0787,0.0758 0.07870024,0.07579566 0 0 1 -0.0787,-0.0758 0.07870024,0.07579566 0 0 1 0.0787,-0.0758 0.07870024,0.07579566 0 0 1 0.0787,0.0758"
       style="fill:#6c5d53;fill-opacity:1;stroke:none;stroke-width:0.12024;stroke-opacity:1"
       id="ellipse1675" />
    <path
       d="m 25.941306,24.174185 a 0.07870024,0.07579566 0 0 1 -0.0787,0.0758 0.07870024,0.07579566 0 0 1 -0.0787,-0.0758 0.07870024,0.07579566 0 0 1 0.0787,-0.0758 0.07870024,0.07579566 0 0 1 0.0787,0.0758"
       style="fill:#6c5d53;fill-opacity:1;stroke:none;stroke-width:0.12024;stroke-opacity:1"
       id="ellipse1709" />
    <path
       d="m 30.279485,27.630837 a 0.07870024,0.07579566 0 0 1 -0.0787,0.07579 0.07870024,0.07579566 0 0 1 -0.0787,-0.07579 0.07870024,0.07579566 0 0 1 0.0787,-0.0758 0.07870024,0.07579566 0 0 1 0.0787,0.0758"
       style="fill:#6c5d53;fill-opacity:1;stroke:none;stroke-width:0.12024;stroke-opacity:1"
       id="ellipse1721" />
    <path
       d="m 12.814758,22.171589 a 0.07870024,0.07579566 0 0 1 -0.0787,0.0758 0.07870024,0.07579566 0 0 1 -0.0787,-0.0758 0.07870024,0.07579566 0 0 1 0.0787,-0.07579 0.07870024,0.07579566 0 0 1 0.0787,0.07579"
       style="fill:#6c5d53;fill-opacity:1;stroke:none;stroke-width:0.12024;stroke-opacity:1"
       id="ellipse1775" />
    <path
       d="m 10.718723,27.473914 a 0.07870024,0.07579566 0 0 1 -0.0787,0.07579 0.07870024,0.07579566 0 0 1 -0.0787,-0.07579 0.07870024,0.07579566 0 0 1 0.0787,-0.0758 0.07870024,0.07579566 0 0 1 0.0787,0.0758"
       style="fill:#6c5d53;fill-opacity:1;stroke:none;stroke-width:0.12024;stroke-opacity:1"
       id="ellipse1821" />
    <path
       d="m 14.775615,33.74405 a 0.07870024,0.07579566 0 0 1 -0.0787,0.07579 0.07870024,0.07579566 0 0 1 -0.0787,-0.07579 0.07870024,0.07579566 0 0 1 0.0787,-0.0758 0.07870024,0.07579566 0 0 1 0.0787,0.0758"
       style="fill:#6c5d53;fill-opacity:1;stroke:none;stroke-width:0.12024;stroke-opacity:1"
       id="ellipse1888" />
    <path
       d="m 6.3292972,32.322331 a 0.07870024,0.07579566 0 0 1 -0.0787,0.07579 0.07870024,0.07579566 0 0 1 -0.0787,-0.07579 0.07870024,0.07579566 0 0 1 0.0787,-0.0758 0.07870024,0.07579566 0 0 1 0.0787,0.0758"
       style="fill:#6c5d53;fill-opacity:1;stroke:none;stroke-width:0.12024;stroke-opacity:1"
       id="ellipse1904" />
    <path
       d="m 1.683454,28.385765 a 0.07579566,0.07870024 25.240099 0 1 0.034996,0.103504 0.07579566,0.07870024 25.240099 0 1 -0.1021129,0.03887 0.07579566,0.07870024 25.240099 0 1 -0.035005,-0.103509 0.07579566,0.07870024 25.240099 0 1 0.102122,-0.03886"
       style="fill:#6c5d53;fill-opacity:1;stroke:none;stroke-width:0.12024;stroke-opacity:1"
       id="ellipse1977" />
    <path
       d="M 36.708712,21.975478 A 13.638306,0.76476485 0 0 1 23.070406,22.740242 13.638306,0.76476485 0 0 1 9.4321003,21.975478 13.638306,0.76476485 0 0 1 23.070406,21.210713 13.638306,0.76476485 0 0 1 36.708712,21.975478"
       style="fill:#a05a2c;fill-opacity:1;stroke:none;stroke-width:1.30823;stroke-opacity:1"
       id="path2800" />
  </g>
</svg>
